<?xml version="1.0" encoding="UTF-8" standalone="no"?>
<svg
   sodipodi:docname="Atac.svg"
   inkscape:version="1.4.3 (0d15f75, 2025-12-25)"
   id="svg970"
   version="1.1"
   viewBox="0 0 213.755 213.75501"
   height="213.755mm"
   width="213.755mm"
   xmlns:inkscape="http://www.inkscape.org/namespaces/inkscape"
   xmlns:sodipodi="http://sodipodi.sourceforge.net/DTD/sodipodi-0.dtd"
   xmlns="http://www.w3.org/2000/svg"
   xmlns:svg="http://www.w3.org/2000/svg"
   xmlns:rdf="http://www.w3.org/1999/02/22-rdf-syntax-ns#"
   xmlns:cc="http://creativecommons.org/ns#"
   xmlns:dc="http://purl.org/dc/elements/1.1/">
  <title
     id="title945">Atac</title>
  <defs
     id="defs964" />
  <sodipodi:namedview
     inkscape:document-rotation="0"
     fit-margin-bottom="0"
     fit-margin-right="0"
     fit-margin-left="0"
     fit-margin-top="0"
     inkscape:window-maximized="1"
     inkscape:window-y="-11"
     inkscape:window-x="2869"
     inkscape:window-height="2030"
     inkscape:window-width="3840"
     showgrid="false"
     inkscape:current-layer="layer1"
     inkscape:document-units="mm"
     inkscape:cy="185.8736"
     inkscape:cx="475.39635"
     inkscape:zoom="0.86349002"
     inkscape:pageshadow="2"
     inkscape:pageopacity="0.0"
     borderopacity="1.0"
     bordercolor="#666666"
     pagecolor="#ffffff"
     id="base"
     inkscape:showpageshadow="2"
     inkscape:pagecheckerboard="0"
     inkscape:deskcolor="#d1d1d1">
    <inkscape:grid
       originy="-1.6722192"
       originx="-7.5633192"
       id="grid947"
       type="xygrid"
       spacingy="1"
       spacingx="1"
       units="mm" />
  </sodipodi:namedview>
  <metadata
     id="metadata967">
    <rdf:RDF>
      <cc:Work
         rdf:about="">
        <dc:format>image/svg+xml</dc:format>
        <dc:type
           rdf:resource="http://purl.org/dc/dcmitype/StillImage" />
        <dc:title>Atac</dc:title>
      </cc:Work>
    </rdf:RDF>
  </metadata>
  <g
     transform="translate(-1.814066,-47.343224)"
     id="layer1"
     inkscape:groupmode="layer"
     inkscape:label="Calque 1">
    <path
       id="path87"
       d="m 119.50813,118.12195 c 0,0.14448 0.34989,0.93045 0.74246,1.43425 0.90877,1.16625 1.27209,2.27438 1.26834,3.86851 -0.004,1.6575 -15.09789,48.57113 -16.63383,51.69958 -0.55249,1.12533 -1.60784,2.84807 -2.34524,3.82829 -0.7374,0.98021 -1.28395,1.95679 -1.21455,2.06903 h 12.35432 c 0.0703,-0.11368 -0.12808,-0.6736 -0.44103,-1.13995 -0.31294,-0.46635 -0.69914,-1.22751 -0.85783,-1.69145 -0.43921,-1.28396 -0.34189,-4.37752 0.20985,-6.67901 0.42606,-1.7772 11.76374,-37.02762 12.0931,-37.59904 0.0658,-0.11425 0.21256,-0.11425 0.32569,0 0.26052,0.26308 6.6863,24.39652 6.6863,25.11189 0,0.52881 -0.0219,0.5307 -6.68533,0.5307 -4.24695,0 -6.7417,0.0918 -6.84041,0.25153 -0.0854,0.13828 0.0201,0.85482 0.23457,1.59258 0.45654,1.57045 1.97973,3.09628 3.5656,3.57142 0.61288,0.18363 2.91294,0.29176 6.20358,0.29176 2.87629,0 5.28479,0.089 5.35204,0.19774 0.0672,0.10873 0.63775,2.09078 1.26834,4.40455 1.71107,6.27824 3.0918,8.91231 5.51003,10.51409 l 1.15446,0.64319 h 20.85759 c 0.0705,-0.11418 -0.50919,-0.95422 -1.28821,-1.76129 -1.55981,-1.61594 -2.41076,-3.17873 -3.36593,-6.18176 -0.34727,-1.09184 -3.26468,-11.9233 -6.48323,-24.0699 -3.21855,-12.14661 -6.13919,-23.03306 -6.49049,-24.19203 -0.76483,-2.52311 -1.79098,-4.62503 -2.8425,-5.82264 l -0.77205,-0.87204 z"
       style="fill:#e4150b;fill-opacity:1;stroke-width:0.248143" />
    <path
       id="path85"
       d="m 54.275051,118.12195 v 9.92573 c 0.173643,-0.006 0.982199,-0.40967 1.623111,-0.80875 3.49121,-2.17389 6.776471,-2.9655 11.900691,-2.8677 l 3.722147,0.0712 v 24.31804 c 0,19.83277 -0.06331,24.56976 -0.342168,25.68283 -0.429538,1.7145 -1.365144,3.98435 -2.163981,5.24977 -0.337494,0.53463 -0.546962,1.19708 -0.465752,1.32849 h 27.017544 c 0.0709,-0.11478 -0.370606,-1.29078 -0.980939,-2.50668 -2.095505,-4.17465 -1.972543,-2.32053 -1.972543,-29.75441 v -24.31799 l 4.466576,0.0131 c 4.373133,0.0129 4.515893,0.0299 6.823933,0.81906 1.29655,0.44331 3.10245,1.24702 4.01343,1.78596 0.91097,0.53894 1.86351,0.97997 1.94201,0.97997 l 1e-4,-9.9186 z"
       style="fill:#e4150b;fill-opacity:1;stroke-width:0.248143" />
    <path
       id="path83"
       d="m 20.021471,118.12195 c 0,0.0924 0.425623,0.93224 0.933582,1.66977 0.800063,1.16166 0.936321,1.5672 1.019228,3.03442 0.09334,1.65177 -0.09639,2.28895 -7.649787,25.72499 -5.0081855,15.539 -8.1281973,24.83306 -8.828951,26.30077 -0.5960472,1.24841 -1.6951773,3.08281 -2.4426587,4.07642 -0.7474815,0.99362 -1.3023246,1.97857 -1.2329612,2.0908 H 14.209631 c 0.08966,-0.14507 -0.0095,-0.59413 -0.220033,-0.82682 -1.43896,-1.59003 -1.798404,-4.95223 -0.920844,-8.61231 0.352781,-1.47137 11.185241,-35.21382 12.059173,-37.56365 0.08177,-0.21987 0.218399,-0.26383 0.364461,-0.11777 0.301277,0.30128 6.939595,25.21776 6.785163,25.46764 -0.06412,0.10374 -3.112715,0.18853 -6.774984,0.18853 -5.623182,0 -6.680774,0.0566 -6.798734,0.36397 -0.259233,0.67555 0.547206,2.72992 1.382719,3.52296 1.703376,1.61677 2.004515,1.68419 8.175636,1.82036 3.093945,0.0683 5.67784,0.17987 5.742188,0.24815 0.06435,0.0682 0.468651,1.46404 0.898549,3.10179 1.823782,6.94786 3.032604,9.52655 5.356886,11.43155 l 1.189827,0.9756 21.221082,0.003 c 0.257433,-0.0988 -0.06022,-0.57275 -1.131183,-1.68805 -1.562882,-1.62757 -2.29547,-2.84337 -3.089672,-5.12667 -0.263376,-0.75771 -3.439125,-12.48757 -7.057053,-26.06719 -6.793854,-25.50023 -7.244167,-26.95043 -9.032993,-29.0948 l -0.776415,-0.92346 z"
       style="fill:#e4150b;fill-opacity:1;stroke-width:0.248143" />
    <path
       id="path1002"
       d="m 193.84198,116.13598 c -4.98656,0.047 -12.19402,1.71317 -16.48794,4.00761 -6.50979,3.47847 -11.31918,9.37194 -13.93285,17.07245 -1.48173,4.36556 -1.82499,6.94062 -1.81843,13.65369 0.006,5.68601 0.0479,6.25631 0.65574,8.81297 2.19031,9.21278 6.61975,15.23883 13.98325,19.02221 3.30216,1.69666 7.7281,2.99133 12.03058,3.52004 0.47768,0.0587 3.10178,0.0735 5.83136,0.0329 5.29867,-0.0789 7.03933,-0.34769 11.18873,-1.72924 2.35383,-0.78372 6.91418,-2.93624 8.86628,-4.18499 l 1.40937,-0.90146 v -4.70309 c 0,-2.58674 -0.0942,-4.7618 -0.20937,-4.83298 -0.11516,-0.0712 -0.97831,1.01108 -1.91826,2.40486 -4.01921,5.95984 -8.45665,8.87507 -14.12574,9.27968 -7.3137,0.52197 -12.52548,-4.67024 -14.65692,-14.60216 -1.4557,-6.7833 -1.49442,-17.60886 -0.0901,-25.1119 2.00604,-10.71822 6.88708,-16.54738 13.8427,-16.53158 6.09193,0.0138 10.82049,2.95243 15.17793,9.43283 0.82297,1.22394 1.60501,2.22554 1.73797,2.22554 0.30921,0 0.32968,-14.06087 0.0208,-14.25176 -0.12164,-0.0752 -0.76373,0.11065 -1.42681,0.41293 -2.00736,0.91503 -3.9908,0.76557 -8.21684,-0.61987 -1.94522,-0.63771 -4.45719,-1.33191 -5.58273,-1.54266 -1.12557,-0.21075 -2.5856,-0.4931 -3.24429,-0.62763 -0.85108,-0.17381 -1.88367,-0.2493 -3.03442,-0.23845 z"
       style="fill:#e4150b;fill-opacity:1;stroke-width:0.248143" />
  </g>
</svg>
