<?xml version="1.0" encoding="UTF-8"?>
<svg xmlns="http://www.w3.org/2000/svg" xmlns:xlink="http://www.w3.org/1999/xlink" width="64px" height="52px" viewBox="0 0 64 52" version="1.1">
<g id="surface1">
<path style=" stroke:none;fill-rule:evenodd;fill:rgb(78.039217%,13.725491%,17.647059%);fill-opacity:1;" d="M 44.390625 37.785156 C 55.101562 32.238281 55.878906 21.925781 55.964844 19.585938 C 55.964844 19.152344 55.964844 17.332031 58.035156 17.246094 C 59.246094 17.160156 61.667969 17.246094 64 15.945312 C 62.097656 14.039062 59.421875 13.953125 57 14.039062 C 54.0625 8.148438 47.125 9.515625 47.125 9.515625 L 43.867188 0 L 18.824219 0 L 10.78125 23.050781 L -0.00390625 23.050781 C -0.00390625 25.824219 0.683594 28.671875 3.449219 28.671875 L 3.449219 28.679688 C 0.683594 28.679688 -0.00390625 32.0625 -0.00390625 34.300781 L 6.859375 34.300781 L 0.683594 51.996094 L 16.234375 51.996094 L 21.070312 38.132812 L 29.199219 38.132812 L 33.082031 52.03125 L 61.445312 52.03125 L 54.023438 29.992188 C 52.191406 34.300781 47.15625 37.320312 44.390625 37.785156 Z M 49.398438 13.007812 C 49.507812 13.007812 49.609375 13.027344 49.710938 13.042969 L 48.707031 15.773438 L 51.691406 15.023438 C 51.703125 15.128906 51.722656 15.230469 51.722656 15.339844 C 51.722656 16.625 50.683594 17.667969 49.398438 17.667969 C 48.117188 17.667969 47.078125 16.625 47.078125 15.339844 C 47.078125 14.050781 48.117188 13.007812 49.398438 13.007812 Z M 31.703125 7.59375 L 34.128906 16.261719 C 34.128906 16.261719 28.820312 18.914062 27.234375 20.464844 Z M 37.394531 31.527344 L 35.078125 34.300781 L 39.453125 49.917969 L 36.597656 49.917969 L 32.222656 34.300781 L 15.023438 34.300781 L 16.492188 31.519531 L 4.917969 31.519531 C 4.917969 29.785156 6.429688 28.671875 7.640625 28.671875 C 6.429688 28.671875 4.917969 27.558594 4.917969 25.824219 L 25.359375 25.824219 C 28.84375 23.054688 34.253906 18.953125 38.429688 17.507812 C 38.859375 12.914062 41.023438 11.613281 43.957031 10.484375 C 40.332031 12.738281 40.503906 17.765625 40.503906 17.765625 C 35.667969 19.671875 24.667969 27.808594 23.371094 31.527344 Z M 43.164062 49.917969 L 40.195312 39.320312 L 42.945312 38.632812 L 46.105469 49.917969 Z M 43.164062 49.917969 "/>
</g>
</svg>
