<?xml version="1.0" encoding="UTF-8" standalone="no"?>
<svg
   id="Calque_2"
   data-name="Calque 2"
   viewBox="0 0 193.38 193.38001"
   version="1.1"
   sodipodi:docname="Bricomarche.svg"
   width="193.38"
   height="193.38"
   inkscape:version="1.4.3 (0d15f75, 2025-12-25)"
   xmlns:inkscape="http://www.inkscape.org/namespaces/inkscape"
   xmlns:sodipodi="http://sodipodi.sourceforge.net/DTD/sodipodi-0.dtd"
   xmlns="http://www.w3.org/2000/svg"
   xmlns:svg="http://www.w3.org/2000/svg">
  <defs
     id="defs2" />
  <sodipodi:namedview
     id="namedview2"
     pagecolor="#ffffff"
     bordercolor="#000000"
     borderopacity="0.25"
     inkscape:showpageshadow="2"
     inkscape:pageopacity="0.0"
     inkscape:pagecheckerboard="0"
     inkscape:deskcolor="#d1d1d1"
     inkscape:zoom="3.371354"
     inkscape:cx="96.845362"
     inkscape:cy="17.648695"
     inkscape:window-width="3840"
     inkscape:window-height="2030"
     inkscape:window-x="2869"
     inkscape:window-y="-11"
     inkscape:window-maximized="1"
     inkscape:current-layer="Calque_2" />
  <g
     id="Calque_1-2"
     data-name="Calque 1"
     transform="translate(0,80)">
    <g
       id="g2">
      <path
         d="M 13.35,18.44 C 12.97,18 12.54,17.66 12.09,17.43 c 0.31,-0.2 0.62,-0.47 0.9,-0.81 0.57,-0.68 0.86,-1.56 0.86,-2.6 0,-1.49 -0.49,-2.72 -1.46,-3.63 C 11.42,9.48 10.13,9.02 8.55,9.02 H 0 v 17.36 h 8.58 c 1.88,0 3.32,-0.46 4.28,-1.36 0.97,-0.9 1.46,-2.13 1.46,-3.63 0,-1.2 -0.33,-2.19 -0.97,-2.95 z M 4.16,12.69 h 4.03 c 0.45,0 0.83,0.14 1.14,0.44 0.31,0.28 0.46,0.64 0.46,1.09 0,0.53 -0.16,0.94 -0.49,1.25 -0.33,0.32 -0.76,0.47 -1.34,0.47 h -3.8 z m 5.46,9.58 c -0.3,0.29 -0.78,0.44 -1.41,0.44 H 4.16 v -3.3 h 4.17 c 0.54,0 0.96,0.15 1.29,0.45 0.31,0.29 0.46,0.69 0.46,1.2 0,0.51 -0.15,0.91 -0.46,1.21 z m 17.94,-2.18 c 1.22,-0.3 2.22,-0.87 2.98,-1.7 0.93,-0.99 1.39,-2.25 1.39,-3.73 0,-1.68 -0.59,-3.05 -1.76,-4.09 C 29.01,9.54 27.48,9.02 25.6,9.02 h -8.33 v 17.36 h 4.16 V 20.3 h 1.18 l 5.42,6.04 0.04,0.04 h 5.18 z m -1.95,-3.63 h -4.18 v -3.6 h 4.17 c 0.68,0 1.22,0.17 1.63,0.51 0.38,0.33 0.57,0.75 0.57,1.29 0,0.54 -0.18,0.96 -0.57,1.29 -0.4,0.34 -0.95,0.51 -1.62,0.51 z M 39.08,9.02 h -4.16 v 17.36 h 4.16 z M 77.4,11.29 C 75.64,9.54 73.46,8.65 70.92,8.65 c -2.54,0 -4.71,0.89 -6.47,2.64 -1.76,1.75 -2.65,3.91 -2.65,6.43 0,2.52 0.89,4.66 2.65,6.4 1.76,1.75 3.93,2.63 6.47,2.63 2.54,0 4.71,-0.89 6.47,-2.63 1.76,-1.74 2.65,-3.89 2.65,-6.4 0.01,-2.52 -0.89,-4.68 -2.64,-6.43 z m -2.97,10.06 c -0.94,0.95 -2.12,1.44 -3.51,1.44 -1.39,0 -2.56,-0.49 -3.51,-1.44 -0.94,-0.96 -1.42,-2.17 -1.42,-3.62 0,-1.45 0.48,-2.68 1.43,-3.65 0.94,-0.97 2.12,-1.46 3.5,-1.46 1.38,0 2.56,0.49 3.51,1.46 0.95,0.97 1.43,2.2 1.43,3.65 0,1.45 -0.48,2.66 -1.43,3.62 z M 55.62,18.8 55.58,18.98 c -0.28,1.28 -0.82,2.25 -1.61,2.88 -0.8,0.63 -1.77,0.95 -2.89,0.95 -1.36,0 -2.54,-0.49 -3.48,-1.46 -0.95,-0.97 -1.43,-2.2 -1.43,-3.65 0,-1.45 0.48,-2.67 1.42,-3.64 0.94,-0.96 2.11,-1.45 3.5,-1.45 1.11,0 2.07,0.32 2.88,0.95 0.79,0.62 1.34,1.57 1.62,2.82 l 4.11,-0.75 -0.06,-0.29 c -0.43,-2.05 -1.44,-3.69 -3.02,-4.89 -1.56,-1.2 -3.42,-1.8 -5.53,-1.8 -2.54,0 -4.71,0.88 -6.46,2.63 -1.75,1.74 -2.64,3.9 -2.64,6.43 0,2.53 0.89,4.7 2.64,6.44 1.75,1.73 3.92,2.61 6.46,2.61 2.12,0 3.99,-0.62 5.56,-1.84 1.57,-1.22 2.58,-2.95 2.99,-5.11 l 0.05,-0.26 -4.05,-0.74 z"
         style="fill:#372123;stroke-width:0px"
         id="path1" />
      <path
         d="M 12.87,29.65 0.05,31.95 0.62,35.1 13.44,32.8 12.88,29.65 Z M 192.66,0 180.11,2.32 180.68,5.4 193.23,3.08 Z M 92.57,20.03 86.64,9.23 86.53,9.02 h -3.58 v 17.36 h 4.06 v -7.86 l 4.33,7.86 h 2.47 l 4.31,-7.86 v 7.86 h 4.06 V 9.02 H 98.63 Z M 115.06,9.32 114.99,9.15 h -3.5 l -7.4,17.1 h 4.23 l 1.45,-3.53 h 6.95 l 1.44,3.53 h 4.23 z m -3.9,9.91 2.09,-5.1 2.07,5.1 z m 23.42,0.86 c 1.21,-0.3 2.21,-0.87 2.98,-1.7 0.93,-0.99 1.39,-2.25 1.39,-3.73 0,-1.68 -0.59,-3.05 -1.76,-4.09 -1.16,-1.03 -2.7,-1.55 -4.57,-1.55 h -8.33 v 17.36 h 4.16 V 20.3 h 1.17 l 5.43,6.04 0.03,0.04 h 5.19 z m -1.96,-3.63 h -4.17 v -3.6 h 4.17 c 0.68,0 1.22,0.17 1.62,0.51 0.39,0.33 0.58,0.75 0.58,1.29 0,0.54 -0.19,0.96 -0.58,1.29 -0.4,0.34 -0.94,0.51 -1.62,0.51 z m 40.15,-0.72 h -7.11 V 9.02 h -4.16 v 17.36 h 4.16 v -6.8 h 7.11 v 6.8 h 4.16 V 9.02 h -4.16 z m 11.97,6.8 v -2.96 h 8.45 v -3.79 h -8.45 v -2.93 h 8.59 V 9.02 h -12.75 v 17.36 h 12.8 v -3.84 z m -30.15,-3.74 -0.04,0.18 c -0.28,1.28 -0.82,2.25 -1.61,2.88 -0.8,0.63 -1.77,0.95 -2.89,0.95 -1.36,0 -2.54,-0.49 -3.48,-1.46 -0.95,-0.97 -1.43,-2.2 -1.43,-3.65 0,-1.45 0.48,-2.67 1.42,-3.64 0.94,-0.96 2.11,-1.45 3.5,-1.45 1.1,0 2.07,0.32 2.88,0.95 0.79,0.62 1.34,1.57 1.62,2.82 l 4.11,-0.75 -0.06,-0.29 c -0.43,-2.05 -1.44,-3.69 -3.02,-4.89 -1.56,-1.2 -3.42,-1.8 -5.53,-1.8 -2.54,0 -4.71,0.88 -6.46,2.63 -1.75,1.74 -2.64,3.9 -2.64,6.43 0,2.53 0.89,4.7 2.64,6.44 1.75,1.73 3.92,2.61 6.46,2.61 2.12,0 3.99,-0.62 5.56,-1.84 1.57,-1.22 2.58,-2.95 2.99,-5.11 l 0.05,-0.26 -4.05,-0.74 z"
         style="fill:#ed1d24;stroke-width:0px"
         id="path2" />
    </g>
  </g>
</svg>
