<?xml version="1.0" encoding="UTF-8" standalone="no"?>
<svg
   version="1.2"
   viewBox="0 0 1584 1584"
   width="1584"
   height="1584"
   id="svg1"
   sodipodi:docname="Carrefour.svg"
   inkscape:version="1.4.3 (0d15f75, 2025-12-25)"
   xmlns:inkscape="http://www.inkscape.org/namespaces/inkscape"
   xmlns:sodipodi="http://sodipodi.sourceforge.net/DTD/sodipodi-0.dtd"
   xmlns="http://www.w3.org/2000/svg"
   xmlns:svg="http://www.w3.org/2000/svg"
   xmlns:rdf="http://www.w3.org/1999/02/22-rdf-syntax-ns#"
   xmlns:cc="http://creativecommons.org/ns#"
   xmlns:dc="http://purl.org/dc/elements/1.1/">
  <defs
     id="defs1" />
  <sodipodi:namedview
     id="namedview1"
     pagecolor="#ffffff"
     bordercolor="#000000"
     borderopacity="0.25"
     inkscape:showpageshadow="2"
     inkscape:pageopacity="0.0"
     inkscape:pagecheckerboard="0"
     inkscape:deskcolor="#d1d1d1"
     inkscape:zoom="0.60191457"
     inkscape:cx="791.64059"
     inkscape:cy="794.96332"
     inkscape:window-width="3840"
     inkscape:window-height="2030"
     inkscape:window-x="2869"
     inkscape:window-y="-11"
     inkscape:window-maximized="1"
     inkscape:current-layer="svg1" />
  <title
     id="title1">Carrefour_logo_no_tag-svg</title>
  <style
     id="style1">
		.s0 { fill: #ed1c24 } 
		.s1 { fill: #005bab } 
	</style>
  <g
     id="g1"
     transform="translate(0,268)">
    <path
       id="Layer"
       class="s0"
       d="m 476.1,32.6 c 4.1,0 6.9,3.6 6.8,8.1 -0.1,2.6 -1.2,5.5 -3.8,8.1 -101.6,126.3 -175.6,274 -175.6,478.9 0,204.8 74,349.6 175.6,475.9 2.6,2.5 3.7,5.5 3.8,8.1 0.1,4.4 -2.7,8.1 -6.8,8.1 -2.3,0 -5,-1.1 -7.8,-4 L 35.4,597 C 13.8,578.5 0,556.9 0,526.2 0,495.3 13.8,473.8 35.4,455.4 L 468.3,36.5 c 2.8,-2.9 5.5,-4 7.8,-3.9 z" />
    <path
       id="path1"
       class="s1"
       d="m 989.9,109.7 c 0,10.7 -4.1,20.9 -13.1,29.9 -48.2,46.5 -67.1,93.1 -67.2,134.2 -0.3,78.5 67.7,136.9 130.4,136.9 86.3,0 137.1,-67.9 137.1,-155.6 0,-83.1 -35.4,-152.5 -74,-207.9 -1.5,-2.3 -2.2,-4.8 -2.2,-7 0.1,-4.4 2.6,-8 6.5,-8 2.3,0 5,1.3 8,4.3 l 433,418.9 c 21.6,18.3 35.5,39.9 35.5,70.8 0,30.7 -13.9,52.3 -35.5,70.8 l -433,418.8 c -3,3 -5.7,4.2 -8,4.2 -3.9,0 -6.4,-3.5 -6.5,-7.9 0,-2.2 0.7,-4.7 2.2,-7 38.6,-55.5 74,-124.8 74,-207.9 0,-87.8 -50.8,-155.6 -137.1,-155.6 -62.7,0 -130.7,58.4 -130.4,136.9 0.1,41.1 19,87.6 67.2,134.2 9,9 13.1,19.3 13.1,30 -0.3,48.9 -87,108.5 -188.7,108.5 -169.5,0 -235.8,-237 -235.8,-523.5 C 565.4,241.3 631.7,1 801.2,1 902.9,1 989.6,60.6 989.9,109.7 Z" />
  </g>
  <metadata
     id="metadata1">
    <rdf:RDF>
      <cc:Work
         rdf:about="">
        <dc:title>Carrefour_logo_no_tag-svg</dc:title>
      </cc:Work>
    </rdf:RDF>
  </metadata>
</svg>
