<?xml version="1.0" encoding="UTF-8" standalone="no"?>
<svg
   viewBox="0 0 220 220"
   version="1.1"
   id="svg3"
   sodipodi:docname="Logo_of_Casino_Supermarchés.svg"
   width="220"
   height="220"
   inkscape:version="1.4.3 (0d15f75, 2025-12-25)"
   xmlns:inkscape="http://www.inkscape.org/namespaces/inkscape"
   xmlns:sodipodi="http://sodipodi.sourceforge.net/DTD/sodipodi-0.dtd"
   xmlns="http://www.w3.org/2000/svg"
   xmlns:svg="http://www.w3.org/2000/svg">
  <defs
     id="defs3" />
  <sodipodi:namedview
     id="namedview3"
     pagecolor="#ffffff"
     bordercolor="#000000"
     borderopacity="0.25"
     inkscape:showpageshadow="2"
     inkscape:pageopacity="0.0"
     inkscape:pagecheckerboard="0"
     inkscape:deskcolor="#d1d1d1"
     inkscape:zoom="2.0954545"
     inkscape:cx="110"
     inkscape:cy="38.893709"
     inkscape:window-width="3840"
     inkscape:window-height="2030"
     inkscape:window-x="2869"
     inkscape:window-y="-11"
     inkscape:window-maximized="1"
     inkscape:current-layer="svg3" />
  <g
     id="g3"
     transform="translate(0,64)">
    <path
       d="M 40.93,39 A 9.56,9.56 0 1 1 31.39,29.42 9.59,9.59 0 0 1 40.93,39 Z"
       fill="#f59c00"
       id="path1" />
    <path
       d="m 105.55,44.62 c -13.25,4.38 -29,-1.3 -27.8,-14 0.87,-9.19 12,-16.84 23.81,-16.64 a 9.83,9.83 0 0 1 1.93,0.16 c 1.7,0.32 2.33,1.06 2.29,1.93 a 3.62,3.62 0 0 1 -1.3,2.29 l 0.08,0.35 c 0.08,0.24 0.16,0.32 0.47,0.32 3.43,-0.08 6,-2.56 6,-3.94 0,-1.62 -1.58,-3.67 -8.32,-3.75 C 82.88,11.1 70,20.69 69,31.13 67.74,45 86.82,52.07 103.14,47.69 c 3.75,-1 5.84,-2.41 5.87,-3 a 5.78,5.78 0 0 0 0,-1.46 c -1.17,0.52 -2.32,0.99 -3.46,1.39 z m 51.1,-25.08 0.32,0.08 c 2.84,-4.61 9.07,-2.8 11,-9.27 -1.77,0.75 -4.57,0.95 -6.78,1.14 -2.72,0.28 -3.71,1.26 -4.22,3 -0.32,1.18 -0.67,2.6 -0.91,3.82 -0.16,0.96 0.04,1.07 0.59,1.23 z m -9.5,5.68 c 0.12,0.2 0.2,0.24 0.43,0.12 1.18,-0.51 2.56,-1.62 2.6,-2.56 0,-1.18 -1.46,-2.05 -5.72,-2.29 -6.86,-0.35 -12.58,2 -12.62,6.11 0,5 9.23,5.68 9.19,9.78 0,2 -1.93,3.67 -6,3.63 -2.72,0 -5.09,-1 -5.09,-3.19 0,-1.38 1.14,-3 5.28,-4.1 -0.59,-0.75 -0.87,-0.87 -1.66,-0.75 -4.77,0.75 -7.53,2.8 -7.65,5.28 -0.12,2.72 2,5 9.7,5 8.71,0.08 12.54,-4.06 12.58,-7.81 0,-4.14 -5.68,-6.35 -8.2,-8.24 a 2.26,2.26 0 0 1 -1.1,-1.81 c 0,-1.1 1.18,-2.17 4.3,-2.17 a 5.57,5.57 0 0 1 3.59,1 1.44,1.44 0 0 1 0.24,1.81 z m -24.21,10.57 a 85.33,85.33 0 0 1 4.85,-12.74 c 0.39,-0.79 0.28,-1.42 -0.47,-1.62 a 22.47,22.47 0 0 0 -4.3,-0.63 C 107.72,20 97,29.52 96.6,36.77 c -0.16,3 1.46,5 5.32,5 4.26,0 9.42,-2.44 12.89,-5.2 0.87,-0.67 1,-0.39 0.83,0.16 -0.67,2.56 -0.47,4.77 1.81,4.93 2.56,0.16 5.84,-1.26 6.9,-1.81 0.08,0 0.24,-0.39 0.16,-1.06 -1.42,-0.05 -1.93,-1.43 -1.57,-3 z m -16.64,2 a 2.08,2.08 0 0 1 -2,-2.33 c 0.28,-5.64 8.2,-12.77 16.17,-11.51 C 116.63,33.34 110.28,38 106.3,37.76 Z M 210.78,20.53 c -7.61,-0.43 -13.56,5.64 -14.63,11.87 -5.52,6.31 -7.93,5.48 -7.41,3.19 0.63,-2.76 4.14,-9.74 4.26,-12.42 0.08,-1.46 -0.79,-2.56 -2.64,-2.64 -3.08,-0.16 -8.2,3.23 -12.93,7.45 -0.83,0.75 -1.42,0.35 -1.1,-0.39 0.75,-2 1.14,-3.08 1.85,-5 0.12,-0.43 0.12,-0.67 -0.16,-0.91 a 4.48,4.48 0 0 0 -2.72,-1.38 2.64,2.64 0 0 0 -2.21,1.14 c -4.06,3.9 -12.26,15.85 -15,15.69 a 0.85,0.85 0 0 1 -0.91,-1 c 0.08,-1.66 5.13,-13.33 5.2,-14.67 a 0.87,0.87 0 0 0 -0.87,-0.95 26.18,26.18 0 0 0 -7.51,2.62 2.5,2.5 0 0 0 -0.39,1.1 c 0.59,0 1.22,0.35 0.87,1.54 -0.75,2.72 -4.53,11.32 -4.61,13.17 a 2.36,2.36 0 0 0 2.56,2.68 c 4.81,0.24 9.74,-3.59 16.13,-11.43 -1.66,3.59 -2.8,6.62 -2.88,8.87 -0.08,2.25 2.76,2.52 4.49,2.29 0.59,-0.08 0.67,-0.08 0.87,-0.75 0.59,-2 2.76,-6 7.29,-10.37 2.17,-2.09 4.81,-4.18 6,-4.14 0.91,0 1,0.95 0.91,1.46 -0.47,2.13 -2.05,5.76 -3.11,8.91 -1,3 0.32,4.85 2.6,5 3.15,0.16 7.18,-1.73 11.32,-6 a 7.08,7.08 0 0 0 7,6.51 14.59,14.59 0 0 0 15.22,-13.67 c 0.24,-4.5 -3.11,-7.57 -7.49,-7.77 z m 1.22,8.6 c -1.06,5.4 -5,9.46 -8.56,9.27 -2.25,-0.12 -2.92,-2.64 -2.37,-5.36 0.91,-4.46 4.61,-9.23 8.36,-9 2.02,0.08 3.17,2.05 2.57,5.08 z M 17.58,39.73 18.13,39.3 17.58,38.87 A 19.29,19.29 0 0 0 6,34.92 c -2.76,0 -6,1.14 -6,4.38 0,3.24 3.23,4.38 6,4.38 a 19.29,19.29 0 0 0 11.58,-3.95 z m 2.21,6.78 0.24,-0.67 -0.71,-0.12 a 19.28,19.28 0 0 0 -12,2.41 c -2.41,1.38 -4.61,4 -3,6.78 1.61,2.78 5,2.17 7.37,0.79 a 19.08,19.08 0 0 0 8.1,-9.19 z m 4.06,-19 0.67,0.24 0.12,-0.71 a 19.28,19.28 0 0 0 -2.41,-12 c -1.38,-2.37 -4,-4.57 -6.78,-3 -2.78,1.57 -2.17,5 -0.79,7.37 a 19.34,19.34 0 0 0 9.19,8.06 z m 19.08,4.06 -0.24,0.67 0.71,0.12 a 19.28,19.28 0 0 0 12,-2.41 c 2.41,-1.38 4.61,-4 3,-6.78 -1.61,-2.78 -5,-2.17 -7.37,-0.79 a 19.08,19.08 0 0 0 -8.09,9.15 z M 25,50.61 24.33,50.85 a 19.32,19.32 0 0 0 -9.23,8.08 c -1.38,2.41 -2,5.76 0.79,7.37 2.79,1.61 5.4,-0.59 6.78,-3 a 19.25,19.25 0 0 0 2.41,-12 z M 7.06,30.35 a 19.25,19.25 0 0 0 12,2.41 L 19.77,32.64 19.56,32 A 19.32,19.32 0 0 0 11.48,22.77 C 9.07,21.39 5.72,20.77 4.11,23.56 2.5,26.35 4.69,29 7.06,30.35 Z m 48.61,17.34 a 19.25,19.25 0 0 0 -12,-2.41 l -0.71,0.12 0.24,0.67 a 19.14,19.14 0 0 0 8.08,9.19 c 2.41,1.38 5.76,2 7.37,-0.79 1.61,-2.79 -0.65,-5.4 -2.98,-6.78 z M 31.11,25.77 31.54,25.22 a 19.29,19.29 0 0 0 3.94,-11.59 c 0,-2.76 -1.14,-6 -4.38,-6 -3.24,0 -4.38,3.23 -4.38,6 a 19.29,19.29 0 0 0 3.94,11.59 z m 7.77,24.8 -0.67,-0.24 -0.12,0.71 a 19.28,19.28 0 0 0 2.41,12 c 1.38,2.41 4,4.61 6.78,3 2.78,-1.61 2.17,-5 0.79,-7.37 a 19.08,19.08 0 0 0 -9.19,-8.1 z m 17.86,-16.2 a 19.29,19.29 0 0 0 -11.59,3.94 l -0.55,0.43 0.55,0.43 a 19.29,19.29 0 0 0 11.59,3.94 c 2.76,0 6,-1.14 6,-4.38 0,-3.24 -3.24,-4.36 -6,-4.36 z m -25.12,17.86 -0.43,0.55 a 19.29,19.29 0 0 0 -3.94,11.59 c 0,2.76 1.14,6 4.38,6 3.24,0 4.38,-3.23 4.38,-6 A 19.29,19.29 0 0 0 32.07,52.78 Z m 16,-33.12 c 1.38,-2.41 2,-5.76 -0.79,-7.37 -2.79,-1.61 -5.4,0.59 -6.78,3 a 19.25,19.25 0 0 0 -2.41,12 l 0.12,0.71 0.67,-0.24 a 20,20 0 0 0 9.2,-8.1 z"
       fill="#d51317"
       id="path2" />
    <path
       d="m 149.91,58.65 a 3.83,3.83 0 0 0 -1.06,1.18 V 58.3 h -1.66 V 66 h 1.62 v -3.28 a 3.37,3.37 0 0 1 0.59,-2.09 2.19,2.19 0 0 1 1.81,-0.79 h 0.08 v -1.66 a 2.34,2.34 0 0 0 -1.38,0.47 z m 13,-0.47 a 3.57,3.57 0 0 0 -2.88,1.5 2.47,2.47 0 0 0 -2.48,-1.5 2.75,2.75 0 0 0 -1.5,0.39 2.61,2.61 0 0 0 -1.06,1.1 v -1.41 h -1.62 V 66 H 155 v -4.19 a 2,2 0 0 1 0.63,-1.62 2.24,2.24 0 0 1 1.46,-0.55 1.38,1.38 0 0 1 1.22,0.51 2.57,2.57 0 0 1 0.39,1.62 V 66 h 1.62 v -4.3 a 2,2 0 0 1 2.09,-2.05 q 1.77,0 1.77,2.13 V 66 h 1.62 v -4.74 a 3.25,3.25 0 0 0 -0.79,-2.33 3.07,3.07 0 0 0 -2.13,-0.75 z M 144,59.13 a 4,4 0 0 0 -2.68,-0.95 3.81,3.81 0 0 0 -2.72,1.06 3.69,3.69 0 0 0 -1.14,2.88 3.78,3.78 0 0 0 3.9,4 4.25,4.25 0 0 0 3.23,-1.3 l -0.95,-1 a 2.74,2.74 0 0 1 -2.21,0.91 2.63,2.63 0 0 1 -1.62,-0.51 1.79,1.79 0 0 1 -0.79,-1.34 h 6.07 v -1.1 A 3.21,3.21 0 0 0 144,59.13 Z m -5,2.48 a 1.71,1.71 0 0 1 0.71,-1.46 2.67,2.67 0 0 1 1.62,-0.55 2.16,2.16 0 0 1 1.5,0.51 1.87,1.87 0 0 1 0.59,1.5 z m -24,0.47 a 4.64,4.64 0 0 0 -0.75,-0.39 c -0.24,-0.08 -0.47,-0.2 -0.71,-0.28 -0.24,-0.08 -0.51,-0.16 -0.83,-0.24 a 5.71,5.71 0 0 1 -0.75,-0.24 0.64,0.64 0 0 1 -0.39,-0.55 0.71,0.71 0 0 1 0.35,-0.63 1.69,1.69 0 0 1 0.95,-0.2 3.5,3.5 0 0 1 2.05,0.63 l 0.59,-1.22 a 4.64,4.64 0 0 0 -2.52,-0.79 3.38,3.38 0 0 0 -2.17,0.63 2.06,2.06 0 0 0 -0.83,1.73 c 0,1 0.79,1.73 2.41,2.17 0,0 0.08,0 0.16,0 q 1.54,0.47 1.54,1.06 a 0.77,0.77 0 0 1 -0.32,0.63 1.42,1.42 0 0 1 -0.87,0.24 4.47,4.47 0 0 1 -2.6,-1 l -0.79,1.26 a 5.29,5.29 0 0 0 1.62,0.87 5.57,5.57 0 0 0 1.73,0.32 3.2,3.2 0 0 0 2.05,-0.67 2.22,2.22 0 0 0 0.79,-1.77 1.62,1.62 0 0 0 -0.71,-1.55 z m 101.09,0 a 4.64,4.64 0 0 0 -0.75,-0.39 c -0.24,-0.08 -0.47,-0.2 -0.71,-0.28 -0.24,-0.08 -0.51,-0.16 -0.83,-0.24 a 5.71,5.71 0 0 1 -0.75,-0.24 0.64,0.64 0 0 1 -0.39,-0.55 0.71,0.71 0 0 1 0.35,-0.63 1.69,1.69 0 0 1 0.95,-0.2 3.5,3.5 0 0 1 2.05,0.63 l 0.59,-1.22 a 4.64,4.64 0 0 0 -2.52,-0.79 3.38,3.38 0 0 0 -2.17,0.63 2.06,2.06 0 0 0 -0.83,1.73 c 0,1 0.79,1.73 2.41,2.17 0,0 0.08,0 0.16,0 q 1.54,0.47 1.54,1.06 a 0.77,0.77 0 0 1 -0.32,0.63 1.42,1.42 0 0 1 -0.87,0.24 4.47,4.47 0 0 1 -2.6,-1 l -0.79,1.26 a 5.29,5.29 0 0 0 1.62,0.87 5.57,5.57 0 0 0 1.73,0.32 3.2,3.2 0 0 0 2.05,-0.67 2.22,2.22 0 0 0 0.79,-1.77 1.62,1.62 0 0 0 -0.69,-1.55 z m -84.22,-3.9 a 2.93,2.93 0 0 0 -2.52,1.46 V 58.3 h -1.62 v 10.13 h 1.62 v -3.58 a 3.43,3.43 0 0 0 2.6,1.26 3.47,3.47 0 0 0 2.56,-1.1 4.36,4.36 0 0 0 0,-5.8 3.76,3.76 0 0 0 -2.62,-1.03 z m 1.42,5.8 A 2.27,2.27 0 0 1 131.63,64.69 2.12,2.12 0 0 1 130,64 a 2.57,2.57 0 0 1 -0.67,-1.81 2.74,2.74 0 0 1 0.67,-1.85 2.18,2.18 0 0 1 1.66,-0.75 2.11,2.11 0 0 1 1.66,0.75 2.53,2.53 0 0 1 0.71,1.85 2.55,2.55 0 0 1 -0.72,1.81 z m -9.9,-1.5 a 2,2 0 0 1 -0.63,1.62 2.24,2.24 0 0 1 -1.46,0.55 q -1.77,0 -1.77,-2.13 v -4.26 h -1.62 V 63 a 3.25,3.25 0 0 0 0.79,2.33 3.18,3.18 0 0 0 3.63,0.39 2.61,2.61 0 0 0 1.06,-1.1 V 66 H 125 v -7.7 h -1.62 v 4.18 z m 84.53,-3.35 a 4,4 0 0 0 -2.68,-0.95 3.81,3.81 0 0 0 -2.72,1.06 3.69,3.69 0 0 0 -1.14,2.88 3.78,3.78 0 0 0 3.9,4 4.25,4.25 0 0 0 3.23,-1.3 l -0.95,-1 a 2.74,2.74 0 0 1 -2.21,0.91 2.63,2.63 0 0 1 -1.62,-0.51 1.79,1.79 0 0 1 -0.79,-1.34 H 209 v -1.1 a 3.21,3.21 0 0 0 -1.06,-2.65 z M 203,61.61 a 1.71,1.71 0 0 1 0.71,-1.46 2.67,2.67 0 0 1 1.62,-0.55 2.16,2.16 0 0 1 1.5,0.51 1.87,1.87 0 0 1 0.59,1.5 z m -6.7,-3.43 a 2.75,2.75 0 0 0 -1.5,0.39 2.61,2.61 0 0 0 -1.06,1.1 v -4 h -1.62 V 66 h 1.62 v -4.15 a 2,2 0 0 1 0.63,-1.62 2.24,2.24 0 0 1 1.46,-0.55 q 1.77,0 1.77,2.13 V 66 h 1.62 v -4.7 a 3.25,3.25 0 0 0 -0.79,-2.33 3,3 0 0 0 -2.12,-0.79 z m 11.47,-1.89 -1.7,-0.71 -1.42,1.73 h 1.5 z m -34,2.6 a 3.35,3.35 0 0 0 -2.21,-0.67 5,5 0 0 0 -3.19,1.1 l 0.71,1 a 4.19,4.19 0 0 1 2.25,-0.79 c 1.14,0 1.7,0.51 1.7,1.54 v 0.28 H 171 a 4.26,4.26 0 0 0 -2.29,0.55 1.94,1.94 0 0 0 -0.83,1.7 2.3,2.3 0 0 0 0.79,1.81 2.83,2.83 0 0 0 2,0.67 3.21,3.21 0 0 0 2.54,-1.08 v 1 h 1.5 V 61 A 2.64,2.64 0 0 0 173.8,58.89 Z M 173,63.15 a 1.41,1.41 0 0 1 -0.59,1.18 2.27,2.27 0 0 1 -1.34,0.43 2.24,2.24 0 0 1 -1.22,-0.32 1,1 0 0 1 -0.43,-0.87 c 0,-0.75 0.59,-1.1 1.77,-1.1 H 173 Z m 14,1.5 a 2.38,2.38 0 0 1 -1.81,-0.75 2.44,2.44 0 0 1 -0.75,-1.81 2.16,2.16 0 0 1 0.75,-1.73 2.68,2.68 0 0 1 1.77,-0.67 3,3 0 0 1 2,0.87 l 0.95,-1.18 a 4,4 0 0 0 -3,-1.22 4.24,4.24 0 0 0 -3,1.1 3.81,3.81 0 0 0 -1.22,2.88 3.89,3.89 0 0 0 1.31,2.86 3.84,3.84 0 0 0 2.76,1.1 4.37,4.37 0 0 0 3.24,-1.41 l -0.95,-1.06 a 2.47,2.47 0 0 1 -1.96,1.02 z m -7.1,-6 a 3.83,3.83 0 0 0 -1.06,1.18 V 58.3 h -1.62 V 66 h 1.62 v -3.28 a 3.37,3.37 0 0 1 0.59,-2.09 2.19,2.19 0 0 1 1.81,-0.79 h 0.08 V 58.18 A 2.36,2.36 0 0 0 180,58.65 Z m 40,-12.42 a 0.69,0.69 0 0 0 -0.51,-0.32 c -0.08,0 -8.12,-0.63 -21.76,-0.63 a 554.68,554.68 0 0 0 -130,15.93 0.48,0.48 0 0 0 -0.39,0.59 0.62,0.62 0 0 0 0.55,0.35 h 0.16 a 531.69,531.69 0 0 1 110,-11.91 330.84,330.84 0 0 1 35.49,1.62 0.58,0.58 0 0 0 0.51,-0.16 l 5.72,-5 A 0.43,0.43 0 0 0 220,46.24 Z"
       fill="#1a5036"
       id="path3" />
  </g>
</svg>
