<?xml version="1.0" encoding="UTF-8" standalone="no"?>
<svg
   viewBox="208.5 290.5 201 201"
   version="1.1"
   id="svg10"
   sodipodi:docname="Costco_Wholesale_logo_2010-10-26.svg"
   width="201"
   height="201"
   inkscape:version="1.4.3 (0d15f75, 2025-12-25)"
   xmlns:inkscape="http://www.inkscape.org/namespaces/inkscape"
   xmlns:sodipodi="http://sodipodi.sourceforge.net/DTD/sodipodi-0.dtd"
   xmlns="http://www.w3.org/2000/svg"
   xmlns:svg="http://www.w3.org/2000/svg">
  <defs
     id="defs10" />
  <sodipodi:namedview
     id="namedview10"
     pagecolor="#ffffff"
     bordercolor="#000000"
     borderopacity="0.25"
     inkscape:showpageshadow="2"
     inkscape:pageopacity="0.0"
     inkscape:pagecheckerboard="0"
     inkscape:deskcolor="#d1d1d1"
     inkscape:zoom="4.5870647"
     inkscape:cx="100.609"
     inkscape:cy="36.079718"
     inkscape:window-width="3840"
     inkscape:window-height="2030"
     inkscape:window-x="2869"
     inkscape:window-y="-11"
     inkscape:window-maximized="1"
     inkscape:current-layer="svg10" />
  <path
     fill="#ffffff"
     d="m 401.434,373.283 c -3.194,-3.873 -8.83,-6.094 -15.459,-6.094 -7.014,0 -13.328,2.385 -17.701,6.256 l 0.713,-4.469 -1.896,-0.564 c -2.684,-0.8 -5.664,-1.223 -8.619,-1.223 -5.078,0 -9.934,1.57 -13.857,4.157 l 1.129,-3.72 H 315.38 l -0.36,1.188 c -2.698,-1.085 -5.666,-1.625 -9.01,-1.625 -6.251,0 -13.017,2.426 -16.53,7.097 -0.23,-0.342 -0.471,-0.679 -0.739,-1.003 -3.195,-3.873 -8.83,-6.094 -15.46,-6.094 -6.806,0 -12.961,2.244 -17.315,5.916 l 1.695,-10.305 -1.926,-0.557 c -3.289,-0.951 -6.944,-1.454 -10.571,-1.454 -13.306,0 -25.417,8.458 -27.571,19.254 -0.917,4.593 0.154,9.042 3.013,12.529 2.437,2.971 6.036,5.089 10.312,6.171 h -13.183 v 16.862 h 67.151 l 0.104,-0.206 0.013,0.206 h 8.083 l 1.096,-1.787 -0.339,1.787 h 18.275 l 0.268,-1.409 c 1.606,1.04 3.691,1.605 6.092,1.605 2.146,0 4.137,-0.445 5.853,-1.236 l -0.197,1.04 h 25.623 l 0.044,-0.229 c 1.188,0.268 2.436,0.426 3.628,0.426 0.724,0 1.47,-0.065 2.212,-0.196 h 9.769 l 0.725,-1.539 h 0.651 l 0.199,1.539 h 30.13 l 1.498,-7.89 h -0.55 l 0.206,-1.084 h 0.394 l 1.5,-7.889 h -0.834 c 0.68,-0.615 1.175,-1.405 1.346,-2.304 0.202,-1.068 -0.075,-2.155 -0.76,-2.981 -0.178,-0.214 -0.382,-0.402 -0.602,-0.571 2.39,-2.455 4.047,-5.426 4.691,-8.766 0.787,-4.097 -0.1,-7.845 -2.57,-10.838 z m -17.432,33.843 h -0.925 l 1.396,-7.336 c 0.318,-0.041 0.635,-0.087 0.949,-0.137 z m -21.564,-23.864 c -0.096,0.49 -0.162,0.974 -0.211,1.451 -2.033,1.36 -3.938,2.003 -5.976,2.003 -1.379,0 -2.573,-0.45 -3.194,-1.204 -0.354,-0.428 -0.473,-0.907 -0.363,-1.464 0.363,-1.879 2.912,-3.527 5.453,-3.527 1.59,0 3.084,0.562 4.549,1.712 -0.091,0.341 -0.192,0.68 -0.258,1.029 z m 2.058,15.48 -0.992,1.635 -0.825,-0.462 c -0.543,-0.305 -1.126,-0.54 -1.727,-0.744 0.44,-0.105 0.851,-0.223 1.209,-0.353 l 1.157,-0.42 1.137,-4.985 c 0.154,0.214 0.3,0.433 0.47,0.639 1.716,2.079 4.188,3.669 7.173,4.689 z m 10.063,0.69 -0.395,2.075 -0.549,-2.305 c 0.311,0.081 0.623,0.16 0.944,0.23 z m 9.668,-18.693 c 1.238,0 2.191,0.329 2.685,0.926 0.453,0.55 0.437,1.251 0.34,1.744 -0.394,2.033 -2.481,3.453 -5.082,3.453 -1.265,0 -2.265,-0.334 -2.745,-0.916 -0.332,-0.403 -0.431,-0.968 -0.293,-1.681 0.337,-1.752 2.196,-3.526 5.095,-3.526 z m -57.183,19.518 c -0.356,-0.241 -0.743,-0.454 -1.147,-0.646 h 1.271 z m -6.991,6.867 c -0.164,0.146 -0.431,0.244 -0.74,0.262 0.158,-0.136 0.406,-0.248 0.74,-0.262 z m -1.987,-26.195 -1.508,4.964 c -0.097,-1.326 -0.51,-2.531 -1.234,-3.603 -0.299,-0.439 -0.655,-0.839 -1.047,-1.219 z m -43.509,2.479 c -0.393,2.034 -2.483,3.454 -5.082,3.454 -1.264,0 -2.265,-0.334 -2.745,-0.916 -0.333,-0.403 -0.431,-0.968 -0.293,-1.681 0.339,-1.753 2.198,-3.526 5.096,-3.526 1.238,0 2.192,0.329 2.685,0.926 0.452,0.55 0.434,1.252 0.339,1.743 z m 17.427,16.141 -0.049,0.104 -0.01,-0.113 c 0.02,0.002 0.039,0.006 0.059,0.009 z m 22.437,-6.609 -1.761,5.802 h -6.763 c 3.457,-1.141 6.557,-3.054 8.524,-5.802 z m 0.734,6.671 h 0.377 c -0.14,0.059 -0.276,0.119 -0.411,0.182 z m -72.76,-15.219 c -1.93,0 -3.602,-0.634 -4.473,-1.695 -0.504,-0.614 -0.673,-1.294 -0.517,-2.078 0.504,-2.525 3.871,-4.658 7.352,-4.658 2.35,0 4.527,0.882 6.653,2.683 -0.562,1.05 -1.009,2.15 -1.334,3.297 -2.597,1.662 -5.05,2.451 -7.681,2.451 z m 39.78,11.955 2.197,0.989 c 1.214,0.546 2.563,1.013 3.975,1.407 h -4.087 l -0.438,0.877 -0.056,-0.877 H 276.7 c 1.976,-0.607 3.811,-1.414 5.475,-2.396 z m 53.546,10.779 1.594,-8.384 h -7.736 l 5.421,-17.865 1.653,0.063 c -0.305,0.816 -0.562,1.647 -0.729,2.504 -0.771,3.987 0.166,7.835 2.642,10.834 1.631,1.977 3.871,3.479 6.492,4.463 h -6.817 l -1.595,8.384 z m -86.167,-9.011 1.165,-0.41 1.018,-4.326 c 0.163,0.227 0.315,0.457 0.495,0.674 1.715,2.079 4.187,3.669 7.171,4.689 h -12.338 c 0.933,-0.175 1.791,-0.382 2.489,-0.627 z m 139.841,0.627 c 1.002,-0.309 1.967,-0.667 2.894,-1.074 0.136,0.326 0.301,0.641 0.53,0.918 0.049,0.058 0.113,0.102 0.164,0.156 z"
     id="path1" />
  <path
     fill="#005daa"
     d="m 281.647,401 0.466,7.369 h 0.118 c 0.241,-0.753 0.509,-1.539 0.885,-2.276 l 2.54,-5.093 h 4.127 l 0.624,7.369 h 0.118 c 0.215,-0.721 0.457,-1.475 0.787,-2.178 l 2.48,-5.191 h 5.601 l -7.574,12.347 h -4.697 l -0.414,-6.714 h -0.177 c -0.18,0.64 -0.338,1.261 -0.63,1.867 l -2.415,4.847 h -4.58 L 276.065,401 Z"
     id="path2" />
  <path
     fill="#005daa"
     d="m 299,401 h 5.188 l -0.79,4.159 h 3.301 L 307.49,401 h 5.188 l -2.346,12.347 h -5.188 l 0.815,-4.29 h -3.302 l -0.815,4.29 h -5.188 z"
     id="path3" />
  <path
     fill="#005daa"
     d="m 327.873,407.206 c -0.753,3.963 -4.88,6.337 -9.398,6.337 -4.521,0 -7.746,-2.375 -6.992,-6.337 0.737,-3.881 4.912,-6.403 9.412,-6.403 4.5,0 7.714,2.522 6.978,6.403 z m -10.978,0.065 c -0.269,1.408 0.688,2.375 2.319,2.375 1.632,0 2.955,-0.967 3.224,-2.375 0.248,-1.311 -0.604,-2.407 -2.314,-2.407 -1.712,0.001 -2.981,1.097 -3.229,2.407 z M 329.053,401 h 5.385 l -1.594,8.384 h 4.521 l -0.754,3.962 h -9.905 z m 21.051,7.925 0.24,0.181 c 0.844,0.622 1.907,1.13 3.146,1.13 0.531,0 1.41,-0.181 1.516,-0.737 0.106,-0.556 -0.592,-0.605 -1.066,-0.688 l -1.051,-0.163 c -2.045,-0.312 -3.615,-1.344 -3.25,-3.275 0.559,-2.931 4.072,-4.569 7.295,-4.569 1.69,0 3.179,0.345 4.492,1.081 l -2.055,3.161 c -0.824,-0.524 -1.788,-0.934 -2.948,-0.934 -0.471,0 -1.188,0.146 -1.282,0.654 -0.088,0.458 0.567,0.524 0.965,0.606 l 1.176,0.229 c 2.197,0.427 3.656,1.441 3.259,3.537 -0.562,2.948 -4.062,4.405 -7.265,4.405 -1.866,0 -3.948,-0.426 -5.484,-1.13 z"
     id="path4" />
  <path
     fill="#005daa"
     d="m 368.604,408.876 -0.215,-2.178 c -0.058,-0.524 -0.054,-1.064 -0.051,-1.589 h -0.197 l -1.697,3.767 z m -4.688,4.471 h -5.699 L 365.713,401 h 5.954 l 2.94,12.347 h -5.699 l -0.198,-1.539 h -4.067 z"
     id="path5" />
  <path
     fill="#005daa"
     d="m 376.504,401 h 5.385 l -1.594,8.384 h 4.521 l -0.754,3.962 h -9.904 z m 10.905,0 h 9.965 l -0.642,3.374 h -4.541 l -0.224,1.179 h 4.146 l -0.609,3.21 h -4.147 l -0.229,1.211 h 4.698 l -0.643,3.373 h -10.121 z"
     id="path6" />
  <g
     fill="#e31837"
     id="g9"
     transform="translate(0,62)">
    <path
       d="m 314.348,316.81 6.799,-0.255 -5.705,18.799 h 12.199 l 5.703,-18.799 6.646,0.255 2.708,-8.926 h -25.644 z m -25.259,4.881 c -1.706,8.815 -11.052,14.099 -21.292,14.099 -10.239,0 -17.542,-5.283 -15.836,-14.099 1.67,-8.635 11.125,-14.244 21.32,-14.244 10.194,0 17.478,5.61 15.808,14.244 z m -24.87,0.146 c -0.605,3.133 1.562,5.283 5.255,5.283 3.695,0 6.693,-2.149 7.299,-5.283 0.564,-2.914 -1.368,-5.354 -5.241,-5.354 -3.873,-0.002 -6.749,2.44 -7.313,5.354 z"
       id="path7" />
    <path
       d="m 285.298,333.276 c 3.481,1.565 8.195,2.514 12.424,2.514 7.257,0 15.185,-3.242 16.453,-9.8 0.902,-4.663 -2.399,-6.922 -7.381,-7.869 l -2.662,-0.51 c -0.9,-0.183 -2.385,-0.328 -2.188,-1.349 0.218,-1.129 1.84,-1.458 2.909,-1.458 2.625,0 4.81,0.911 6.676,2.077 l 4.654,-7.031 c -2.978,-1.639 -6.346,-2.403 -10.175,-2.403 -7.301,0 -15.263,3.643 -16.524,10.164 -0.832,4.299 2.731,6.594 7.36,7.287 l 2.378,0.363 c 1.078,0.184 2.66,0.292 2.42,1.53 -0.24,1.238 -2.231,1.639 -3.434,1.639 -2.805,0 -5.213,-1.129 -7.126,-2.513 l -0.545,-0.401 z m 81.145,-24.7 c -2.44,-0.729 -5.213,-1.129 -7.974,-1.129 -9.838,0 -18.78,6.412 -20.331,14.427 -1.516,7.833 4.787,13.917 14.359,13.917 2.18,0 6.784,-0.328 8.893,-1.093 l 2.344,-10.273 c -2.264,1.566 -4.678,2.55 -7.483,2.55 -3.649,0 -6.36,-2.332 -5.774,-5.354 0.578,-2.988 4.02,-5.355 7.67,-5.355 2.76,0 4.961,1.275 6.633,2.77 z m 19.532,-1.129 c -10.194,0 -19.649,5.609 -21.32,14.244 -1.705,8.815 5.598,14.099 15.838,14.099 10.238,0 19.586,-5.283 21.291,-14.099 1.668,-8.634 -5.616,-14.244 -15.809,-14.244 z m -1.748,9.034 c 3.873,0 5.806,2.44 5.24,5.354 -0.605,3.133 -3.604,5.283 -7.299,5.283 -3.695,0 -5.861,-2.149 -5.255,-5.283 0.564,-2.912 3.441,-5.354 7.314,-5.354 z m -129.121,-14.07 c -3.045,-0.881 -6.501,-1.365 -9.944,-1.365 -12.271,0 -23.424,7.75 -25.357,17.438 -1.889,9.468 5.971,16.821 17.908,16.821 2.721,0 8.464,-0.396 11.091,-1.32 l 2.923,-12.419 c -2.821,1.894 -5.834,3.083 -9.333,3.083 -4.553,0 -7.932,-2.819 -7.203,-6.475 0.721,-3.61 5.013,-6.474 9.565,-6.474 3.442,0 6.188,1.542 8.271,3.347 z"
       id="path8" />
    <path
       d="m 394.277,334.018 c 0.183,-0.959 1.252,-1.732 2.416,-1.732 1.155,0 1.938,0.773 1.756,1.732 -0.185,0.965 -1.259,1.738 -2.416,1.738 -1.163,0 -1.938,-0.774 -1.756,-1.738 z m 3.628,0 c 0.146,-0.772 -0.408,-1.279 -1.3,-1.279 -0.906,0 -1.638,0.507 -1.783,1.279 -0.147,0.773 0.391,1.285 1.298,1.285 0.891,0 1.638,-0.511 1.785,-1.285 z m -0.743,0.907 h -0.539 l -0.339,-0.769 h -0.353 l -0.146,0.769 h -0.458 l 0.345,-1.816 h 1.057 c 0.466,0 0.718,0.129 0.638,0.556 -0.061,0.311 -0.304,0.471 -0.585,0.493 z m -0.668,-1.116 c 0.229,0 0.426,0 0.464,-0.194 0.03,-0.16 -0.168,-0.16 -0.397,-0.16 h -0.496 L 396,333.809 Z"
       id="path9" />
  </g>
  <path
     fill="#005daa"
     d="m 220.658,413.367 h 57.093 l -0.004,-0.02 H 277.7 l -0.722,-3.14 h -56.32 z m 0,-4.488 h 56.014 l -0.728,-3.159 h -55.286 z m 0,-4.507 h 54.958 l -0.247,-1.151 -0.505,-2.197 H 220.658 Z M 339.959,401 h 9.964 l -0.641,3.374 h -4.54 l -0.225,1.179 h 4.146 l -0.609,3.21 h -4.146 l -0.23,1.211 h 4.697 l -0.641,3.373 h -10.123 z"
     id="path10" />
</svg>
