<?xml version="1.0" encoding="UTF-8" standalone="no"?>
<svg
   inkscape:version="1.4.3 (0d15f75, 2025-12-25)"
   sodipodi:docname="Dyneff.svg"
   viewBox="0 0 700 700"
   height="700"
   width="700"
   xml:space="preserve"
   id="svg833"
   version="1.1"
   xmlns:inkscape="http://www.inkscape.org/namespaces/inkscape"
   xmlns:sodipodi="http://sodipodi.sourceforge.net/DTD/sodipodi-0.dtd"
   xmlns="http://www.w3.org/2000/svg"
   xmlns:svg="http://www.w3.org/2000/svg"
   xmlns:rdf="http://www.w3.org/1999/02/22-rdf-syntax-ns#"
   xmlns:cc="http://creativecommons.org/ns#"
   xmlns:dc="http://purl.org/dc/elements/1.1/"><metadata
     id="metadata839"><rdf:RDF><cc:Work
         rdf:about=""><dc:format>image/svg+xml</dc:format><dc:type
           rdf:resource="http://purl.org/dc/dcmitype/StillImage" /></cc:Work></rdf:RDF></metadata><defs
     id="defs837" /><sodipodi:namedview
     inkscape:current-layer="g841"
     inkscape:window-maximized="1"
     inkscape:window-y="-11"
     inkscape:window-x="2869"
     inkscape:cy="384.29588"
     inkscape:cx="308.9711"
     inkscape:zoom="0.71689554"
     showgrid="false"
     id="namedview835"
     inkscape:window-height="2030"
     inkscape:window-width="3840"
     inkscape:pageshadow="2"
     inkscape:pageopacity="0"
     guidetolerance="10"
     gridtolerance="10"
     objecttolerance="10"
     borderopacity="1"
     bordercolor="#666666"
     pagecolor="#ffffff"
     inkscape:showpageshadow="2"
     inkscape:pagecheckerboard="0"
     inkscape:deskcolor="#d1d1d1" /><g
     transform="matrix(1.3333333,0,0,-1.3333333,175.23013,1507.7016)"
     inkscape:label="Logo"
     inkscape:groupmode="layer"
     id="g841"><g
       id="g16845"
       transform="translate(0,-138)"><path
         id="path1451"
         style="fill:#007e48;fill-opacity:1;fill-rule:nonzero;stroke:none;stroke-width:1"
         d="M 370.65746,902.93778 V 879.46777 H -131.4226 v 228.19263 h 22.97897 l 456.16674,-22.7458 z" /><path
         id="path1455"
         style="fill:#ffd300;fill-opacity:1;fill-rule:nonzero;stroke:none;stroke-width:1"
         d="m 393.57742,902.61322 h -22.8897 l -456.236161,23.90177 -22.874829,180.30511 v 23.9561 h 502.00069 z" /><path
         d="M 370.6902,902.61717 H -108.4456 V 1107.6574 H 370.6902 Z"
         style="fill:#e52612;fill-opacity:1;fill-rule:nonzero;stroke:none;stroke-width:1"
         id="path1457" /></g><g
       id="g16868"
       transform="translate(0,-138)"><path
         id="path16859"
         style="fill:#ffffff;fill-opacity:1;fill-rule:nonzero;stroke:none;stroke-width:1.33333"
         d="m 442.13086,128.25 c -35.22916,0 -56.60742,26.96052 -56.60742,55.05273 0,27.16614 16.07317,40.89844 43.4707,40.89844 8.39388,0 24.46744,-1.11233 37.61719,-7.99805 l -1.81836,-23.42187 c -8.41373,4.08111 -18.09829,5.95313 -27.77539,5.95313 -7.48768,0 -13.50536,-1.48216 -17.3418,-4.82227 -1.65365,-1.50177 -2.93853,-3.73036 -3.49414,-5.5957 41.12273,1.11776 61.73438,-8.36737 61.73438,-30.10938 0,-20.46546 -16.78813,-29.95703 -35.78516,-29.95703 z m -3.11133,22.23047 c 1.27451,0.0108 2.56075,0.10402 3.83985,0.28515 8.2285,1.1836 9.72239,5.12599 8.66406,8.30079 v 0.002 c -1.15094,3.61147 -6.50805,8.01631 -20.34571,8.24805 l -11.41601,0.34375 c -0.85991,-1.3364 -1.1255,-3.77088 -0.35156,-6.11914 2.28036,-7.11305 10.68783,-11.13638 19.60937,-11.06055 z"
         transform="matrix(0.75000002,0,0,-0.75000002,-131.4226,1130.7762)" /><path
         style="fill:#ffffff;fill-opacity:1;fill-rule:nonzero;stroke:none;stroke-width:1"
         d="m 334.55236,1044.1921 c -1.78097,0.7143 -3.85959,1.1115 -6.44423,1.1115 -5.2189,0 -9.05369,-3.7505 -10.00619,-8.776 l -0.6846,-3.6314 h 12.32789 l -3.56194,-19.2285 h -12.19891 l -8.88501,-49.37099 h -24.52184 l 9.1777,49.37099 h -24.12 l -8.89493,-49.37099 h -24.39286 l 9.04376,49.37099 h -8.34427 l 3.55202,19.2285 h 8.36412 l 0.41669,1.8155 c 1.76609,7.6797 4.64343,15.3293 10.11036,20.9106 4.81209,5.0304 11.92606,8.2399 22.0761,8.2399 4.51941,0 8.34924,-0.8383 10.95868,-1.9548 l -6.43927,-18.8214 c -1.23527,0.41 -2.46559,0.6896 -3.97867,0.6896 -5.88365,0 -7.66958,-4.8916 -8.632,-9.0639 l -0.42662,-1.8155 h 24.27875 l 0.65981,3.8992 c 1.24023,7.2677 4.40033,16.1874 11.78715,22.1752 6.43431,5.4474 14.50573,6.8414 21.37661,6.8414 4.65831,0 8.62705,-0.7044 10.9686,-1.8159 z"
         id="path16855" /><path
         style="fill:#ffffff;fill-opacity:1;fill-rule:nonzero;stroke:none;stroke-width:1"
         d="m 74.738942,964.29177 8.200404,44.75703 c 1.929802,9.7585 3.026164,17.7257 3.978663,23.8474 h 21.639541 l -1.23031,-11.281 h 0.27284 c 7.12884,9.6241 15.61202,12.9675 24.51687,12.9675 13.02242,0 18.64811,-8.0962 18.64811,-19.6751 0,-2.7925 -0.56058,-8.4978 -0.97234,-11.0127 l -7.40666,-39.60313 h -24.36804 l 6.57818,35.69852 c 0.39189,2.37121 0.67468,5.17911 0.67468,7.53051 0,4.3211 -1.22535,7.2579 -5.60584,7.2579 -6.59803,0 -12.74957,-8.5077 -15.49296,-23.28129 l -5.045256,-27.20564 z"
         id="path16853" /><path
         style="fill:#ffffff;fill-opacity:1;fill-rule:nonzero;stroke:none;stroke-width:1"
         d="m 32.27841,1032.8962 4.107646,-25.653 c 1.086442,-6.831 1.919877,-11.58876 2.604484,-15.49286 h 0.267897 c 1.379138,3.64623 2.743392,7.82844 5.635608,15.07096 l 10.532041,26.0749 H 81.456042 L 57.474947,986.60087 C 46.794078,965.69572 38.028131,953.42226 28.850425,944.91407 19.54374,936.11343 8.0294068,932.63122 2.9693009,932.20934 l -4.1126111,21.63479 c 3.2890614,0.66937 7.9424065,2.21214 11.9161042,4.72266 4.792258,3.08553 8.215293,6.70211 10.55192,10.60127 0.669717,1.12138 0.669717,1.9597 0.267748,3.62152 L 6.5212205,1032.8962 Z"
         id="path16851" /><path
         id="path16849"
         style="fill:#ffffff;fill-opacity:1;fill-rule:nonzero;stroke:none;stroke-width:1.33333"
         d="m 152.41406,88.847656 -8.03711,41.261724 c -4.37882,-1.4768 -8.95646,-1.84571 -11.68164,-1.84571 -37.07467,0 -60.648435,27.70291 -60.648435,58.92383 0,25.8692 15.893991,37.02148 30.525395,37.02148 10.19968,0 21.89482,-3.14881 30.30859,-15.82226 h 0.35742 l -0.72851,13.5918 h 30.68554 c 0,0 1.80509,-27.70758 4.38477,-41.26758 l 17.16601,-91.863284 z m -22.65625,64.525394 c 4.04811,0 8.05708,1.47518 10.05469,3.33398 l -3.28125,15.98828 c -3.6512,19.54596 -12.23622,25.10157 -18.44727,25.10157 -5.49013,0 -11.70117,-3.8825 -11.70117,-16.16602 0,-15.06105 9.33891,-28.25781 23.375,-28.25781 z"
         transform="matrix(0.75000002,0,0,-0.75000002,-131.4226,1130.7762)" /></g></g></svg>
