<?xml version="1.0" encoding="UTF-8" standalone="no"?>
<!-- Created with Inkscape (http://www.inkscape.org/) by Marsupilami -->
<svg
   xmlns:svg="http://www.w3.org/2000/svg"
   xmlns="http://www.w3.org/2000/svg"
   version="1.0"
   width="768"
   height="768"
   viewBox="0 0 65.438751 65.438751"
   id="svg2677">
  <defs
     id="defs2679" />
  <g
     transform="translate(-0.7091964,2.4417857)"
     id="layer1">
    <path
       d="M 0.70919643,63.013214 L 66.147946,63.013214 L 66.147946,-2.4417857 L 0.70919643,-2.4417857 L 0.70919643,63.013214 z "
       style="fill:#f1d220;fill-opacity:1;fill-rule:nonzero;stroke:none"
       id="path4855" />
    <path
       d="M 17.5625,5 C 17.665001,6.0362498 17.7725,6.97625 17.875,7.59375 C 17.983749,7.705 17.88375,7.71875 17.78125,7.71875 C 17.3675,7.7187501 16.9375,8.12 16.625,8.53125 C 16.21,9.2625003 15.815,9.9025 15.1875,10.21875 C 15.2925,10.5275 15.4925,10.71375 15.8125,10.8125 C 16.015,10.8125 16.20125,10.83125 16.40625,10.9375 C 16.406251,11.0475 16.41625,11.025 16.3125,11.125 C 15.801251,12.16125 16.62875,13.5275 15.59375,14.25 C 16.00625,14.46125 16.61375,14.26125 17.03125,13.84375 C 16.72125,14.5725 16.61125,15.4 16.71875,16.125 C 16.71875,16.332501 16.63625,16.63625 16.53125,16.84375 C 17.572499,16.734999 18.28375,15.50625 18.59375,14.46875 L 18.59375,14.5625 C 18.49125,14.97875 18.17625,15.91375 18.59375,16.4375 C 18.69875,16.535 18.7925,16.75 19,16.75 C 19.2075,16.01875 19.5475,15.29125 20.0625,14.875 C 20.582499,14.875 21.1,15.17875 21.625,15.28125 C 21.929999,14.66125 21.40625,13.625 21.40625,13.625 C 21.406251,13.625 21.82125,14.04375 22.03125,14.25 C 22.341251,14.46125 23.05375,14.55 23.46875,14.34375 C 23.673749,14.135 23.90625,14.055 23.90625,13.84375 C 22.551249,13.95 22.4375,12.175 21.8125,11.34375 L 21.90625,11.34375 C 22.218751,11.5525 22.4425,11.97625 22.75,12.1875 L 24.625,12.59375 L 24.8125,12.375 C 24.812501,12.06375 25.0425,11.64875 24.9375,11.34375 C 24.730001,11.13875 24.62125,11.5625 24.40625,11.5625 C 23.99875,11.35375 23.67625,11.33 23.15625,11.125 L 22.21875,9.375 L 22.21875,9.28125 L 23.46875,8.53125 C 23.566249,8.6350003 23.66875,8.85875 23.78125,8.96875 C 24.08125,8.8587502 23.99625,8.425 24.09375,8.21875 C 24.301249,8.2187505 24.30375,8.45 24.40625,8.65625 C 24.72125,8.6562501 24.6125,8.11625 24.8125,7.90625 C 24.920001,7.7025 25.44875,7.7275 25.34375,7.3125 L 24.9375,5.3125 C 24.937501,5.2087498 24.725,5.0225 24.625,5.125 C 23.067499,5.6399998 21.93,6.17125 20.375,6.6875 C 20.274999,6.7850001 20.1425,6.785 19.9375,6.6875 L 17.5625,5 z M 21.09375,7.59375 C 21.406251,7.59375 21.625,7.81 21.625,8.125 C 21.624999,8.4337504 21.40625,8.65625 21.09375,8.65625 C 20.786251,8.6562501 20.5625,8.43375 20.5625,8.125 C 20.562501,7.8100004 20.78625,7.59375 21.09375,7.59375 z M 41.4375,9.375 C 39.885001,9.3750004 38.8325,10.62375 38.3125,11.96875 C 37.579999,13.6275 37.80625,14.45375 36.65625,15.28125 C 36.551248,15.49125 36.13375,15.6025 35.71875,15.1875 C 35.511251,14.97875 35.30125,14.56125 35.40625,14.25 C 35.508749,14.355 35.7125,14.65625 35.8125,14.65625 C 36.019999,14.86 36.23,14.86 36.4375,14.75 C 36.6425,14.65625 36.75,14.47125 36.75,14.15625 C 36.749999,13.8425 36.54625,13.52625 36.34375,13.3125 C 36.026251,13.005 35.40375,13.10625 35.09375,13.3125 C 34.56875,13.52625 34.2625,14.13375 34.375,14.75 C 34.375,15.17375 34.67625,15.49 34.78125,16 C 34.781251,15.999999 34.70375,16.21875 34.59375,16.21875 C 34.283752,16.21875 34.04875,16.12 33.84375,15.8125 C 33.743751,15.70875 33.86125,15.5 33.65625,15.5 C 33.241249,15.8125 33.34375,16.33625 33.34375,16.75 C 33.343749,16.85875 33.3525,16.9375 33.25,16.9375 C 32.83375,16.51625 32.61375,16.23625 32.40625,15.71875 C 31.990001,15.92375 32,16.2225 32,16.53125 C 31.894999,16.84625 32.20625,17.25 32,17.25 C 31.479999,17.13875 31.25,16.4375 31.25,15.8125 C 31.04,15.91375 30.86,16.1125 30.75,16.21875 C 30.544999,16.5275 30.54,16.9375 30.125,16.9375 C 29.71,16.83125 29.59375,16.3275 29.59375,15.8125 C 29.48625,15.70875 29.39125,15.90375 29.28125,16 C 28.97125,16.216249 28.7725,16.62375 28.5625,16.9375 C 28.2475,16.51625 28.25125,16.01 28.15625,15.5 C 27.63125,15.70875 27.105,17.25 26.375,17.25 L 26.375,17.0625 C 26.690001,16.647501 26.59375,16.01 26.59375,15.5 C 26.593749,15.395 26.5775,14.96875 26.375,14.96875 C 26.057501,15.385 25.9775,15.595 25.5625,15.90625 C 25.15,16.32 24.625,16.625 24.625,16.625 C 24.624999,16.42 24.71875,16.23125 24.71875,16.125 C 24.818749,15.918751 24.9375,15.59375 24.9375,15.28125 C 24.937501,14.97 24.8125,14.67 24.8125,14.5625 C 24.812501,14.4625 24.81875,14.46875 24.71875,14.46875 C 24.718749,14.46875 24.52625,14.66 23.90625,14.96875 C 23.276249,15.385 22.54,15.0875 22.4375,15.1875 C 22.4375,15.1875 22.44875,15.51 22.34375,15.71875 C 22.238749,16.02 22.11625,16.3125 21.90625,16.3125 C 21.698751,16.3125 20.7925,15.70875 20.375,15.8125 C 20.062499,16.01 19.4375,17.875 19.4375,17.875 C 18.609999,17.765 18.38,17.57625 18.0625,17.0625 C 17.8575,16.961251 17.875,17.13875 17.875,17.25 C 17.772499,17.25 17.65625,17.7625 17.65625,18.59375 C 17.65625,18.8025 17.67625,19.13 17.78125,19.4375 L 17.78125,19.96875 C 18.40625,23.292499 19.84375,26.1825 20.15625,29.5 C 20.57125,31.26625 18.90375,32.00625 18.28125,33.25 L 18.40625,33.34375 L 20.375,33.34375 C 20.582499,33.343751 20.7725,33.145 20.875,32.9375 C 20.977501,32.20875 21.09375,31.28125 21.40625,30.5625 C 22.133751,30.456249 22.34625,29.6025 22.96875,29.1875 C 22.96875,28.982499 22.63875,28.87875 22.53125,28.5625 C 22.736251,28.36125 23.07625,28.16 23.28125,27.84375 C 23.38625,27.535001 22.96875,27.425 22.96875,27.21875 C 22.96875,27.113749 23.05625,27.01375 23.15625,26.90625 C 23.26125,26.599999 23.78625,26.60625 23.46875,26.28125 C 23.363749,25.87625 22.96,26.0925 22.75,25.78125 C 22.855001,25.3675 23.15,24.8275 23.5625,24.625 C 23.255,24.305001 22.75625,24.09375 22.34375,24.09375 L 22.34375,23.28125 L 22.4375,23.1875 C 23.06,23.494999 23.47625,23.695 24.09375,24 C 23.996249,24.52 24.21,24.94375 24.3125,25.46875 C 24.415001,26.191251 24.92,26.70125 24.8125,27.4375 C 24.712501,28.055 24.08125,28.25125 23.78125,28.5625 C 23.66875,28.67 23.375,28.79 23.375,29 C 23.797501,29.511249 24.295,29.8125 24.8125,30.21875 L 24.9375,30.34375 C 25.350001,29.827499 25.4375,29.19625 25.75,28.78125 C 25.955001,28.67625 26.295,28.67875 26.5,28.46875 C 26.7125,28.468751 26.9,28.375 27,28.375 C 26.9,27.9525 26.5,27.64 26.1875,27.4375 C 26.3975,27.23125 26.59125,27.21875 26.90625,27.21875 C 27.006251,27.113749 27.11625,27.11375 27.21875,26.90625 C 26.90375,26.906249 26.59375,26.60625 26.59375,26.28125 C 26.908749,26.07875 27.415,25.77625 27.625,25.15625 C 27.415,24.947501 27.11875,24.95 26.90625,24.84375 C 26.906251,24.534999 27.0125,24.2275 27.125,23.90625 C 27.124999,23.81125 27.1125,23.59375 27.3125,23.59375 C 28.1525,23.805 29.19,23.805 30.125,23.59375 C 30.2275,23.705 30.34375,23.7125 30.34375,23.8125 C 30.133751,24.9525 29.7125,26.0725 29.5,27.21875 C 29.192501,27.627499 28.66875,27.9375 28.15625,28.25 C 27.93875,28.458751 27.50875,28.5775 27.40625,29 L 28.96875,30.21875 L 29.1875,30.21875 C 29.494999,29.8125 29.71875,29.40625 30.03125,29 C 30.031251,28.789999 30.0225,28.47375 30.125,28.375 C 30.54,28.375 30.9375,28.25625 31.25,28.15625 C 31.25,27.839999 30.96,27.62375 30.75,27.3125 C 31.062499,27.214999 31.46375,27.3275 31.78125,27.125 C 31.87875,27.125001 32.09375,26.9 32.09375,26.59375 L 31.78125,26.59375 C 31.78125,26.593751 31.57875,26.6075 31.6875,26.5 C 32.206249,26.393751 32.71,26.28 33.125,25.875 C 33.019999,25.875 32.91375,25.76125 32.8125,25.65625 C 32.913749,25.554999 33.02,25.5625 33.125,25.5625 C 33.434999,25.355001 33.75,25.0425 33.75,24.625 C 33.4325,24.625001 33.04,24.52625 32.9375,24.3125 C 33.144999,24.00625 33.42625,23.8125 33.84375,23.8125 C 34.256251,24.84625 34.88625,25.88375 35.71875,26.8125 L 35.71875,27.125 L 34.0625,29.09375 C 34.0625,29.20125 33.95125,29.40625 34.15625,29.40625 L 36.4375,29.28125 C 36.5375,29.281251 36.75,29.20125 36.75,29.09375 C 36.854999,28.47125 36.86875,27.7425 36.96875,27.125 C 37.278751,26.917501 37.48,26.28125 38,26.28125 C 38.000001,26.07875 37.71,25.98 37.5,25.875 C 37.500002,25.4625 37.7975,25.2575 38,25.0625 C 37.797501,24.953749 37.49375,25.2575 37.28125,25.0625 C 37.493749,24.953749 37.5975,24.8475 37.8125,24.4375 L 37.8125,24.3125 C 37.495001,24.425 37.39,24.3125 37.1875,24.3125 C 36.974999,24.2175 36.75,24.0175 36.75,23.8125 C 36.954999,23.4 37.27875,23.06 37.59375,22.75 C 37.701251,22.749999 37.80875,22.54125 37.90625,22.75 C 38.011251,23.059999 38.0975,23.375 38.3125,23.6875 C 38.312499,23.8825 38.33375,24.10875 38.53125,24.3125 C 39.053751,24.6325 39.57625,25.16125 40.09375,25.78125 C 40.196252,26.0925 40.605,26.38625 40.5,26.90625 L 39.15625,29 L 39.03125,29.1875 C 39.133751,29.187499 39.1425,29.28125 39.25,29.28125 L 41.4375,28.78125 L 41.65625,28.6875 L 41.53125,27.125 C 41.738749,26.810001 42.0575,26.70875 42.375,26.40625 C 42.259998,26.295 42.17,26.2825 42.0625,26.1875 C 42.062499,25.877501 42.36875,25.87 42.46875,25.65625 C 42.46875,25.457499 41.9375,25.4725 41.9375,25.15625 C 42.2425,24.947501 42.5625,24.63375 42.5625,24.21875 C 42.4575,24.11 42.25125,24.3125 42.15625,24.3125 C 42.048751,24.3125 42.04,24.11 41.9375,24.21875 C 41.6275,24.0075 41.32125,24 40.90625,24 C 40.803751,23.695 40.71875,23.39 40.71875,22.96875 L 40.8125,22.96875 C 42.474998,23.48375 44.0225,23.88125 45.78125,24.09375 L 46.09375,24.3125 C 46.822499,25.56375 47.35875,26.69625 48.1875,27.84375 C 48.392502,28.050001 48.59375,28.25125 48.59375,28.5625 C 48.183748,29.28625 47.54875,29.8125 47.03125,30.4375 L 46.9375,30.75 C 47.03875,30.8575 47.15125,30.86875 47.25,30.96875 L 49.3125,30.5625 L 49.53125,30.4375 C 49.53125,29.91375 49.7325,29.3875 49.625,28.875 C 49.827501,28.55875 50.26375,28.56125 50.46875,28.25 C 50.263749,28.040001 49.9475,27.72875 49.75,27.625 C 49.219999,27.525001 49.205,26.91375 49,26.5 C 48.685,25.663751 49.54,25.86625 49.4375,25.34375 C 49.327501,25.037499 49.21125,24.92375 48.90625,24.71875 C 48.906249,24.4075 49.225,24.3125 49.4375,24.3125 C 49.437501,24.10875 49.32125,24.01625 49.21875,23.90625 C 48.913748,23.81125 48.7025,23.7875 48.5,23.6875 C 48.500002,23.46875 49.2225,23.2825 49.125,22.65625 C 48.917502,22.761251 48.5825,22.66625 48.28125,22.5625 C 48.069999,22.356249 48.4825,22.1525 48.375,21.9375 C 47.8575,21.733749 47.365,21.395 46.84375,21.1875 C 46.32375,21.08375 46.42375,20.57 46.21875,20.15625 C 45.587501,18.598751 45.17125,17.1575 44.03125,15.8125 C 43.823751,15.5 43.71125,15.5 43.40625,15.1875 C 43.40625,15.0875 43.295,14.86 43.5,14.75 C 43.7075,14.65625 44.03125,14.365 44.03125,14.15625 C 44.546251,13.1175 44.54625,11.75 44.03125,10.8125 C 43.411251,9.77625 42.4775,9.375 41.4375,9.375 z M 41.3125,10.71875 C 41.9375,10.71875 42.88625,11.24 43.09375,11.875 C 43.408748,12.496249 43.1875,13.21125 42.875,13.625 C 42.564999,14.1475 41.9375,14.26 41.3125,14.15625 C 41.005,14.05375 40.71125,13.83375 40.40625,13.625 C 40.086252,14.1475 39.4625,14.865 38.9375,15.28125 C 38.517499,15.49125 38.02,15.90625 37.5,15.90625 L 37.5,15.71875 C 38.532502,14.68 39.045,13.0175 39.5625,12.1875 C 39.98,11.24625 40.585,10.71875 41.3125,10.71875 z M 15.1875,40.5 L 15.1875,60.34375 L 30.53125,60.34375 L 30.53125,58.5625 L 17.25,58.5625 L 17.25,42.0625 L 30.21875,42.0625 L 30.21875,40.5 L 15.1875,40.5 z M 46,40.5 L 46,44.78125 L 50.375,44.78125 L 50.375,40.5 L 46,40.5 z M 17.875,42.6875 L 17.875,49.84375 L 29.59375,49.84375 L 29.59375,48.1875 L 20.15625,48.1875 L 20.15625,44.25 L 30.21875,44.25 L 30.21875,42.6875 L 17.875,42.6875 z M 40.09375,45.1875 C 38.338752,45.187498 37.07375,45.71375 36.03125,46.75 L 36.03125,45.6875 L 34.15625,45.6875 L 34.15625,49.65625 C 35.193749,47.58 37.48875,46.9375 38.84375,46.9375 C 40.398748,46.937501 42.375,47.88625 42.375,50.0625 L 42.375,60.34375 L 44.25,60.34375 L 44.25,49.125 C 44.25,46.838748 42.59125,45.1875 40.09375,45.1875 z M 31.6875,45.6875 L 31.6875,60.34375 L 33.65625,60.34375 L 33.65625,45.6875 L 31.6875,45.6875 z M 46,45.6875 L 46,60.34375 L 47.875,60.34375 L 47.875,45.6875 L 46,45.6875 z M 48.5,45.6875 L 48.5,60.34375 L 50.375,60.34375 L 50.375,45.6875 L 48.5,45.6875 z M 38.84375,47.5625 C 37.181251,47.562499 34.15625,48.40375 34.15625,52.34375 L 34.15625,60.34375 L 36.03125,60.34375 L 36.03125,51 C 36.03125,49.968752 36.7775,49.03125 38.125,49.03125 C 39.482499,49.031249 39.78125,49.7375 39.78125,50.5625 L 39.78125,60.34375 L 41.75,60.34375 L 41.75,50.0625 C 41.749998,48.297499 40.29375,47.5625 38.84375,47.5625 z M 17.875,50.46875 L 17.875,57.9375 L 30.53125,57.9375 L 30.53125,56.1875 L 20.0625,56.1875 L 20.0625,52.03125 L 29.59375,52.03125 L 29.59375,50.46875 L 17.875,50.46875 z "
       transform="translate(0.7091964,-2.4417857)"
       style="fill:#221e1f;fill-opacity:1;fill-rule:nonzero;stroke:none"
       id="path4857" />
    <path
       d="M 7.9941964,34.743214 L 58.852946,34.743214 L 58.852946,34.225714 L 7.9941964,34.225714 L 7.9941964,34.743214 z "
       style="fill:#e13b3e;fill-opacity:1;fill-rule:nonzero;stroke:none"
       id="path4861" />
    <path
       d="M 38.409196,6.5169643 C 38.409196,6.3007143 38.199196,5.9944643 37.986696,5.9944643 C 36.954196,5.3707143 35.911696,6.0969643 34.874196,6.0969643 C 34.466696,6.0969643 34.049196,6.2007143 33.839196,5.9944643 C 33.839196,5.7882143 33.946696,5.7882143 33.946696,5.5819643 C 33.734196,5.5819643 33.424196,5.4757143 33.114196,5.4757143 C 33.114196,5.4757143 32.495446,5.4757143 32.072946,5.2719643 C 30.622946,4.7494643 29.272946,4.4357143 27.610446,5.1594643 C 27.095446,5.3707143 26.575446,5.5819643 26.050446,5.5819643 C 25.742946,5.5819643 26.467946,6.0969643 26.367946,6.4069643 C 25.530446,6.5169643 24.707946,6.8269643 23.977946,7.4469643 L 23.977946,7.5532143 C 24.505446,8.0719643 25.227946,8.2807143 26.050446,8.2807143 C 26.257946,8.2807143 26.775446,8.9007143 28.025446,9.0082143 C 29.787946,9.3169643 30.827946,8.3782143 32.072946,8.9007143 C 31.970446,8.6957143 31.970446,8.5957143 31.970446,8.3782143 C 33.424196,8.7919643 34.566696,8.6957143 35.704196,8.1769643 C 36.741696,7.8657143 37.261696,6.4069643 38.409196,6.5169643"
       style="fill:#ca2438;fill-opacity:1;fill-rule:evenodd;stroke:none"
       id="path4877" />
  </g>
</svg>
