<?xml version="1.0" encoding="UTF-8" standalone="no"?>
<!-- Generator: Adobe Illustrator 13.0.0, SVG Export Plug-In . SVG Version: 6.00 Build 14948)  -->

<svg
   version="1.1"
   id="VARG"
   x="0px"
   y="0px"
   width="220"
   height="220"
   viewBox="0 0 220 220"
   xml:space="preserve"
   sodipodi:docname="Esso.svg"
   inkscape:version="1.4.3 (0d15f75, 2025-12-25)"
   xmlns:inkscape="http://www.inkscape.org/namespaces/inkscape"
   xmlns:sodipodi="http://sodipodi.sourceforge.net/DTD/sodipodi-0.dtd"
   xmlns="http://www.w3.org/2000/svg"
   xmlns:svg="http://www.w3.org/2000/svg"><defs
   id="defs7" /><sodipodi:namedview
   id="namedview7"
   pagecolor="#ffffff"
   bordercolor="#000000"
   borderopacity="0.25"
   inkscape:showpageshadow="2"
   inkscape:pageopacity="0.0"
   inkscape:pagecheckerboard="0"
   inkscape:deskcolor="#d1d1d1"
   inkscape:zoom="4.0590649"
   inkscape:cx="90.784456"
   inkscape:cy="16.629446"
   inkscape:window-width="3840"
   inkscape:window-height="2030"
   inkscape:window-x="2869"
   inkscape:window-y="-11"
   inkscape:window-maximized="1"
   inkscape:current-layer="VARG" />
<g
   id="g7"
   transform="translate(0,32)">
	<path
   style="fill:#0e52a5"
   d="m 2.979,78.729 c 0,9.61 2.57,19.062 7.442,27.359 6.05,10.227 14.188,19.061 23.933,25.914 10.12,7.121 21.363,12.555 33.276,16.008 13.787,4.016 28.082,6.051 42.431,6.051 14.322,0 28.617,-2.035 42.431,-6.051 11.886,-3.453 23.13,-8.888 33.249,-16.008 9.743,-6.854 17.882,-15.688 23.933,-25.914 4.872,-8.299 7.442,-17.749 7.442,-27.359 0,-9.583 -2.57,-19.033 -7.442,-27.306 C 203.624,41.17 195.486,32.336 185.741,25.483 175.622,18.362 164.378,12.955 152.492,9.474 138.679,5.459 124.383,3.424 110.061,3.424 95.712,3.424 81.416,5.459 67.63,9.474 55.717,12.954 44.474,18.362 34.354,25.483 24.61,32.337 16.472,41.171 10.421,51.423 5.549,59.695 2.979,69.145 2.979,78.729 Z"
   id="path1" />
	<path
   style="fill:#ffffff"
   d="m 20.701,78.729 c 0,7.496 2.142,14.806 6.104,21.149 5.14,8.192 11.993,15.179 20.078,20.506 8.513,5.622 17.829,9.824 27.627,12.501 11.591,3.159 23.558,4.766 35.578,4.766 11.993,0 23.986,-1.606 35.578,-4.766 9.824,-2.677 19.141,-6.88 27.6,-12.501 8.084,-5.327 14.938,-12.313 20.104,-20.506 3.989,-6.344 6.077,-13.653 6.077,-21.149 0,-7.441 -2.088,-14.776 -6.077,-21.095 -5.167,-8.219 -12.021,-15.206 -20.104,-20.533 -8.459,-5.595 -17.775,-9.798 -27.6,-12.475 -11.592,-3.186 -23.585,-4.792 -35.578,-4.792 -12.02,0 -23.986,1.606 -35.578,4.792 -9.798,2.677 -19.114,6.88 -27.627,12.475 -8.084,5.327 -14.938,12.314 -20.078,20.533 -3.962,6.317 -6.104,13.653 -6.104,21.095 z"
   id="path2" />
	<path
   style="fill:#da0013"
   d="m 61.418,78.916 c 3.24,-0.803 6.585,-0.964 9.905,-0.481 l -0.027,-9.959 c -3.266,0.536 -6.612,0.348 -9.825,-0.535 -1.847,-0.455 -3.373,-1.794 -4.069,-3.561 -1.553,-4.096 1.472,-8.433 5.836,-8.406 3.453,-0.026 6.88,0.696 10.065,2.088 0.401,-3.507 0.776,-7.014 1.124,-10.521 -4.872,-2.543 -10.36,-3.694 -15.848,-3.293 -5.033,0.081 -9.825,2.249 -13.198,5.997 -6.505,7.094 -4.229,18.472 4.498,22.541 -3.079,1.606 -5.648,3.988 -7.469,6.879 -1.125,2.088 -1.66,4.417 -1.633,6.772 -0.027,6.373 3.667,12.182 9.503,14.832 7.656,3.051 16.276,2.623 23.611,-1.205 L 72.77,89.115 c -3.213,1.313 -6.639,1.98 -10.12,2.008 -1.66,0.027 -3.266,-0.563 -4.498,-1.66 -0.856,-0.75 -1.418,-1.74 -1.606,-2.863 -0.695,-3.454 1.446,-6.854 4.872,-7.684 z"
   id="path3" />
	<path
   style="fill:#da0013"
   d="m 135.225,76.962 c -2.115,-0.91 -4.229,-1.82 -6.317,-2.73 -0.535,-0.214 -1.07,-0.482 -1.554,-0.75 -1.098,-0.669 -1.633,-1.981 -1.312,-3.212 0.349,-1.231 1.392,-2.142 2.649,-2.329 1.125,-0.134 2.275,-0.08 3.373,0.161 3.535,0.83 6.908,2.115 10.094,3.828 l 0.025,-10.681 c -2.811,-1.794 -5.942,-2.972 -9.262,-3.454 -3.507,-0.75 -7.148,-0.508 -10.547,0.669 -4.604,1.525 -8.031,5.381 -9.104,10.092 -1.043,4.711 0.644,9.583 4.365,12.583 1.043,0.829 2.194,1.498 3.426,2.006 2.49,0.912 4.898,1.981 7.281,3.16 0.803,0.375 1.42,1.07 1.713,1.9 0.482,1.472 -0.08,3.079 -1.365,3.936 -0.909,0.588 -1.98,0.855 -3.024,0.803 -4.31,-0.24 -8.485,-1.74 -11.966,-4.311 V 99.93 c 5.3,2.998 11.431,4.149 17.428,3.239 6.344,-0.696 11.432,-5.567 12.448,-11.832 0.669,-3.668 -0.269,-7.442 -2.624,-10.333 -1.604,-1.738 -3.559,-3.078 -5.727,-4.042 z"
   id="path4" />
	<path
   style="fill:#da0013"
   d="m 100.182,76.962 c -2.115,-0.91 -4.23,-1.82 -6.318,-2.73 -0.535,-0.214 -1.071,-0.482 -1.553,-0.75 -1.124,-0.669 -1.66,-1.981 -1.338,-3.212 0.375,-1.231 1.418,-2.142 2.677,-2.329 1.124,-0.134 2.275,-0.08 3.373,0.161 3.507,0.83 6.906,2.115 10.092,3.828 l 0.027,-10.681 c -2.812,-1.794 -5.97,-2.972 -9.263,-3.454 -3.507,-0.75 -7.175,-0.508 -10.548,0.669 -4.604,1.525 -8.058,5.381 -9.102,10.092 -1.044,4.711 0.643,9.583 4.363,12.583 1.044,0.829 2.169,1.498 3.427,2.006 2.463,0.912 4.899,1.981 7.282,3.16 0.776,0.375 1.418,1.07 1.686,1.9 0.509,1.472 -0.053,3.079 -1.365,3.936 -0.883,0.588 -1.954,0.855 -3.024,0.803 -4.311,-0.24 -8.46,-1.74 -11.94,-4.311 V 99.93 c 5.274,2.998 11.404,4.149 17.427,3.239 6.345,-0.696 11.431,-5.567 12.448,-11.832 0.67,-3.668 -0.294,-7.442 -2.623,-10.333 -1.605,-1.738 -3.586,-3.078 -5.728,-4.042 z"
   id="path5" />
	<path
   style="fill:#da0013"
   d="m 172.971,58.276 c -4.631,-1.713 -9.744,-1.66 -14.349,0.107 -2.999,1.178 -5.567,3.212 -7.39,5.863 -0.588,0.883 -1.098,1.82 -1.5,2.811 -0.428,1.098 -0.75,2.222 -1.043,3.374 -1.178,5.247 -1.393,10.627 -0.644,15.955 0.269,2.384 0.83,4.687 1.687,6.907 0.402,0.99 0.912,1.928 1.5,2.811 1.928,2.785 4.686,4.899 7.871,6.023 4.551,1.605 9.477,1.579 13.974,-0.08 3.159,-1.178 5.862,-3.293 7.737,-6.076 0.562,-0.83 1.043,-1.74 1.418,-2.678 0.856,-2.223 1.418,-4.523 1.713,-6.907 0.563,-4.122 0.563,-8.299 0,-12.421 -0.293,-2.356 -0.855,-4.685 -1.713,-6.907 -0.375,-0.963 -0.856,-1.847 -1.418,-2.677 -1.901,-2.839 -4.63,-4.954 -7.843,-6.105 z"
   id="path6" />
	<path
   style="fill:#ffffff"
   d="m 171.632,87.402 c 0.644,-2.355 0.964,-4.766 0.964,-7.229 0,-2.409 -0.32,-4.845 -0.964,-7.201 -0.214,-0.83 -0.562,-1.633 -1.017,-2.356 -0.43,-0.749 -1.018,-1.338 -1.715,-1.82 -0.855,-0.535 -1.819,-0.803 -2.836,-0.803 -0.991,0 -1.955,0.268 -2.785,0.803 -0.723,0.482 -1.313,1.071 -1.74,1.82 -0.455,0.723 -0.803,1.526 -1.043,2.356 -0.616,2.356 -0.964,4.792 -0.964,7.201 0,2.463 0.348,4.873 0.964,7.229 0.24,0.855 0.589,1.66 1.043,2.408 0.428,0.696 1.018,1.313 1.74,1.795 0.83,0.509 1.794,0.803 2.785,0.803 1.017,0 1.98,-0.294 2.836,-0.803 0.697,-0.482 1.285,-1.099 1.715,-1.795 0.455,-0.747 0.803,-1.551 1.017,-2.408 z"
   id="path7" />
</g>
</svg>
