<svg height="131" viewBox="0 0 131 131" width="131" xmlns="http://www.w3.org/2000/svg">
<g fill="none" fill-rule="evenodd">
<path d="M0 65.5C0 29.325 29.325 0 65.5 0 101.674 0 131 29.325 131 65.5S101.674 131 65.5 131C29.325 131 0 101.675 0 65.5" fill="#0085F3"></path>
<path d="M111.892 40.553a7.304 7.304 0 1 0 0 14.608 7.304 7.304 0 0 0 0-14.608zM35.166 68.185V80.97c0 9.432 7.646 17.077 17.077 17.077 9.432 0 17.078-7.645 17.078-17.076V58.168H57.356v23.706c0 1.46-.487 2.713-1.46 3.687-.975.974-2.157 1.461-3.617 1.461-1.461 0-2.713-.487-3.688-1.46-.974-.975-1.46-2.157-1.46-3.618V58.168H27.347l.01-2.438c0-2.887 1.957-4.053 3.99-4.053 1.731 0 3.468 1.435 3.94 2.007l8.542-8.312c-3.088-3.73-7.465-5.868-12.007-5.868-8.305 0-16.43 5.487-16.443 18.664H10.54v10.017h4.87V84.16a97.62 97.62 0 0 0 11.964 6.055v-22.03h7.791zm70.744-10.017v31.048a97.864 97.864 0 0 0 11.964-6.457V58.168H105.91zM89.633 40.777v54.127a97.322 97.322 0 0 0 11.964-3.86V40.776H89.633zm-4.313 0v55.118a98.013 98.013 0 0 1-11.965 1.69V40.777H85.32z" fill="#FFF"></path>
</g>
</svg>
