<?xml version="1.0" encoding="UTF-8" standalone="no"?>
<!-- Generator: Adobe Illustrator 13.0.0, SVG Export Plug-In . SVG Version: 6.00 Build 14948)  -->

<svg
   version="1.1"
   id="Layer_1"
   x="0px"
   y="0px"
   width="218"
   height="218"
   viewBox="0 0 218 218"
   enable-background="new 0 0 218 198"
   xml:space="preserve"
   sodipodi:docname="Gulf.svg"
   inkscape:version="1.4.3 (0d15f75, 2025-12-25)"
   xmlns:inkscape="http://www.inkscape.org/namespaces/inkscape"
   xmlns:sodipodi="http://sodipodi.sourceforge.net/DTD/sodipodi-0.dtd"
   xmlns="http://www.w3.org/2000/svg"
   xmlns:svg="http://www.w3.org/2000/svg"><defs
   id="defs11" /><sodipodi:namedview
   id="namedview11"
   pagecolor="#ffffff"
   bordercolor="#000000"
   borderopacity="0.25"
   inkscape:showpageshadow="2"
   inkscape:pageopacity="0.0"
   inkscape:pagecheckerboard="0"
   inkscape:deskcolor="#d1d1d1"
   inkscape:zoom="6.3961022"
   inkscape:cx="108.89444"
   inkscape:cy="99.044696"
   inkscape:window-width="3840"
   inkscape:window-height="2030"
   inkscape:window-x="2869"
   inkscape:window-y="-11"
   inkscape:window-maximized="1"
   inkscape:current-layer="Layer_1" />
<path
   fill="#1f3075"
   d="m 215.79,124.709 c 1.156,-8.23 1.208,-20.591 0.125,-30.067 C 214.465,79.878 205.11,75.779 201.204,74.708 194.216,56.721 182.105,41.334 166.135,30.175 149.585,18.61 130.097,12.498 109.78,12.498 89.463,12.498 69.975,18.61 53.424,30.175 37.454,41.334 25.343,56.722 18.356,74.708 14.449,75.779 5.094,79.879 3.642,94.665 c -1.081,9.453 -1.029,21.813 0.128,30.044 1.14,12.072 8.364,18.083 14.542,19.717 6.973,18.014 19.08,33.427 35.06,44.609 16.562,11.588 36.068,17.713 56.408,17.713 20.34,0 39.846,-6.125 56.408,-17.713 15.98,-11.182 28.087,-26.595 35.06,-44.608 6.178,-1.635 13.402,-7.646 14.542,-19.718 z"
   id="path1" />
<path
   fill="#ffffff"
   d="m 199.849,141.72 c -0.496,0.103 -0.905,0.452 -1.084,0.926 -6.714,17.771 -18.565,32.974 -34.273,43.964 -16.062,11.239 -34.981,17.179 -54.711,17.179 -19.731,0 -38.65,-5.94 -54.712,-17.179 -15.708,-10.99 -27.559,-26.193 -34.273,-43.964 -0.18,-0.474 -0.589,-0.823 -1.085,-0.926 -5.357,-1.108 -11.977,-6.313 -13,-17.336 -0.002,-0.023 -0.005,-0.047 -0.008,-0.07 -1.128,-8.01 -1.177,-20.074 -0.119,-29.336 1.331,-13.55 9.667,-16.803 13.188,-17.574 0.489,-0.106 0.89,-0.453 1.067,-0.92 6.73,-17.741 18.584,-32.916 34.28,-43.883 16.051,-11.216 34.952,-17.144 54.661,-17.144 19.708,0 38.61,5.928 54.661,17.144 15.696,10.967 27.55,26.142 34.28,43.883 0.177,0.467 0.578,0.813 1.066,0.92 3.522,0.771 11.858,4.024 13.187,17.551 1.061,9.286 1.012,21.35 -0.116,29.36 -0.003,0.022 -0.006,0.046 -0.008,0.069 -1.023,11.022 -7.643,16.227 -13.001,17.336 z"
   id="path2" />
<path
   fill="#ec5e04"
   d="M 196.511,76.833 C 183.173,42.278 149.371,17.736 109.78,17.736 c -39.591,0 -73.393,24.542 -86.731,59.097 54.678,-9.145 118.784,-9.639 173.462,0 z"
   id="path3" />
<path
   fill="#ec5e04"
   d="m 196.511,142.413 c -13.338,34.555 -47.14,59.098 -86.731,59.098 -39.591,0 -73.393,-24.542 -86.731,-59.098 54.678,9.146 118.784,9.639 173.462,0 z"
   id="path4" />
<rect
   x="144.545"
   y="89.139"
   fill="#1f3075"
   width="16.52"
   height="44.875"
   id="rect4" />
<path
   fill="#1f3075"
   d="m 113.56,104.919 h 16.52 v 29.094 h -16.52 v -0.986 c -3.205,1.973 -11.588,2.219 -13.561,2.219 -1.973,0 -15.533,-1.726 -15.533,-12.082 v -18.245 h 16.52 v 13.561 c -0.247,2.712 0.739,6.904 5.671,6.904 4.931,0 6.903,-1.479 6.903,-5.671 z"
   id="path5" />
<path
   fill="#1f3075"
   d="m 178.324,134.013 v -17.506 h -6.904 v -11.588 h 6.904 v -7.397 c 0.247,-4.931 2.712,-9.123 10.109,-9.123 7.397,0 11.342,0.986 15.78,3.945 l -0.247,8.63 c -4.685,-2.712 -9.739,-3.452 -9.739,0.986 v 2.959 h 6.903 v 11.588 h -6.903 v 17.506 z"
   id="path6" />
<path
   fill="#1f3075"
   d="m 46.413,115.274 v -8.876 h 25.149 v 27.615 h -16.52 v -0.986 c -3.206,0.986 -9.246,0.953 -12.451,0.986 -11.835,0.123 -27.738,-7.274 -27.738,-25.519 0,-18.246 17.382,-26.383 28.971,-26.383 11.588,0 20.341,3.329 24.286,5.794 v 9.616 C 62.686,95.795 57.508,93.33 50.604,93.33 c -6.904,0 -17.259,4.191 -17.013,16.026 0.246,11.835 9.123,13.808 12.821,13.808 3.698,0 7.396,-0.863 8.629,-2.589 v -5.301 z"
   id="path7" />
<path
   fill="#1f3075"
   d="m 202.922,130.478 c -0.399,-0.399 -0.88,-0.598 -1.443,-0.598 -0.538,0 -1.005,0.185 -1.404,0.554 -0.425,0.396 -0.637,0.891 -0.637,1.487 0,0.574 0.196,1.058 0.59,1.451 0.393,0.394 0.876,0.59 1.451,0.59 0.556,0 1.032,-0.192 1.429,-0.576 0.408,-0.397 0.612,-0.885 0.612,-1.465 0,-0.564 -0.2,-1.044 -0.598,-1.443 z"
   id="path8" />
<path
   fill="#ffffff"
   d="m 202.67,130.738 c 0.326,0.334 0.49,0.729 0.49,1.183 0,0.467 -0.165,0.867 -0.493,1.202 -0.329,0.333 -0.725,0.499 -1.188,0.499 -0.465,0 -0.862,-0.165 -1.191,-0.496 -0.33,-0.331 -0.496,-0.732 -0.496,-1.205 0,-0.456 0.163,-0.85 0.488,-1.183 0.33,-0.34 0.729,-0.509 1.199,-0.509 0.463,0 0.86,0.169 1.191,0.509 z"
   id="path9" />
<path
   fill="#1f3075"
   d="m 201.177,132.256 h 0.125 l 0.13,0.008 c 0.091,0.005 0.158,0.018 0.202,0.036 0.081,0.031 0.137,0.086 0.167,0.166 0.018,0.048 0.03,0.14 0.036,0.277 0.006,0.137 0.018,0.241 0.036,0.313 h 0.565 l -0.019,-0.064 c -0.008,-0.022 -0.013,-0.044 -0.016,-0.066 -0.003,-0.022 -0.004,-0.044 -0.004,-0.066 v -0.202 c 0,-0.23 -0.066,-0.399 -0.199,-0.507 -0.072,-0.057 -0.18,-0.101 -0.321,-0.13 0.155,-0.017 0.285,-0.067 0.392,-0.152 0.106,-0.085 0.159,-0.222 0.159,-0.413 0,-0.25 -0.101,-0.429 -0.302,-0.54 -0.118,-0.064 -0.267,-0.103 -0.446,-0.116 -0.031,-0.002 -0.187,-0.003 -0.466,-0.004 -0.28,-0.001 -0.49,-0.001 -0.63,-0.001 v 2.262 h 0.592 v -0.801 z"
   id="path10" />
<path
   fill="#ffffff"
   d="m 201.731,131.766 c -0.078,0.056 -0.186,0.083 -0.324,0.083 h -0.23 v -0.656 h 0.145 c 0.147,0 0.262,0.016 0.343,0.047 0.122,0.048 0.183,0.133 0.183,0.257 0,0.124 -0.039,0.213 -0.117,0.269 z"
   id="path11" />
</svg>
