<?xml version="1.0" encoding="UTF-8" standalone="no"?>
<!-- Created with Inkscape (http://www.inkscape.org/) -->

<svg
   width="187.06021mm"
   height="176.83855mm"
   viewBox="0 0 187.06021 176.83855"
   version="1.1"
   id="svg1"
   inkscape:version="1.4.3 (0d15f75, 2025-12-25)"
   sodipodi:docname="Hyper-U.svg"
   xmlns:inkscape="http://www.inkscape.org/namespaces/inkscape"
   xmlns:sodipodi="http://sodipodi.sourceforge.net/DTD/sodipodi-0.dtd"
   xmlns="http://www.w3.org/2000/svg"
   xmlns:svg="http://www.w3.org/2000/svg">
  <sodipodi:namedview
     id="namedview1"
     pagecolor="#ffffff"
     bordercolor="#000000"
     borderopacity="0.25"
     inkscape:showpageshadow="2"
     inkscape:pageopacity="0.0"
     inkscape:pagecheckerboard="0"
     inkscape:deskcolor="#d1d1d1"
     inkscape:document-units="mm"
     inkscape:zoom="1.5955177"
     inkscape:cx="395.16955"
     inkscape:cy="334.37423"
     inkscape:window-width="3840"
     inkscape:window-height="2030"
     inkscape:window-x="2869"
     inkscape:window-y="-11"
     inkscape:window-maximized="1"
     inkscape:current-layer="layer1" />
  <defs
     id="defs1" />
  <g
     inkscape:label="Ebene 1"
     inkscape:groupmode="layer"
     id="layer1"
     transform="translate(-0.52928642,-60.060419)">
    <g
       id="g6699"
       transform="matrix(5.4522938,0,0,5.4522938,-201.82019,281.96454)">
      <path
         d="m 53.97488,-9.775359 c -8.098054,0 -14.659135,-6.550029 -14.659135,-14.630048 0,-8.076459 6.561081,-14.622928 14.659135,-14.622928 8.094486,0 14.659135,6.546469 14.659135,14.622928 0,8.080343 -6.564649,14.630048 -14.659135,14.630048"
         id="Shape"
         inkscape:connector-curvature="0"
         style="fill:#ffffff;fill-rule:nonzero;stroke:none;stroke-width:1" />
      <path
         d="m 56.249366,-40.557031 c -0.441729,-0.03689 -0.669081,-0.05113 -1.105621,-0.05113 0.781621,0.02298 1.568756,0.109054 2.355567,0.265354 8.344541,1.621246 13.685514,10.022602 11.932216,18.766652 -1.754918,8.74049 -9.940864,14.513874 -18.285405,12.894569 -0.371351,-0.07378 -0.737513,-0.159859 -1.096865,-0.259852 1.418919,0.437186 2.943568,0.676005 4.550919,0.676005 1.608973,0 2.85373,-0.217785 4.04173,-0.484756 5.153189,-1.16788 9.325297,-4.779278 11.407784,-9.302587 0.883783,-1.977532 1.371567,-4.162817 1.371567,-6.45489 -3.24e-4,-8.951155 -7.026162,-15.359122 -15.171892,-16.049366"
         id="path6063"
         inkscape:connector-curvature="0"
         style="fill:#54bbab;fill-rule:nonzero;stroke:none;stroke-width:1" />
      <path
         d="m 37.151204,-25.718584 c -0.614594,8.794856 6.202054,16.451603 15.497189,17.247017 -0.49654,-0.043686 -0.99827,-0.113908 -1.503567,-0.210665 -8.344541,-1.619304 -13.685514,-10.024543 -11.932216,-18.76827 1.742918,-8.682565 9.83027,-14.434915 18.11481,-12.925959 -0.695675,-0.133647 -1.401405,-0.228463 -2.123351,-0.279592 -9.456649,-0.646233 -17.436973,6.039061 -18.052865,14.937469"
         id="path6065"
         inkscape:connector-curvature="0"
         style="fill:#5bc5f2;fill-rule:nonzero;stroke:none;stroke-width:1" />
      <path
         d="m 57.499312,-40.343453 c -8.34454,-1.623188 -16.532108,4.150519 -18.287351,12.892628 -1.753297,8.745668 3.587676,17.148965 11.932216,18.76827 8.346162,1.619628 16.53373,-4.152461 18.287351,-12.89457 1.753298,-8.742108 -3.586054,-17.145729 -11.932216,-18.766328 M 53.97488,-9.775359 c -8.098054,0 -14.659135,-6.550029 -14.659135,-14.630048 0,-8.076459 6.561081,-14.622928 14.659135,-14.622928 8.094486,0 14.659135,6.546469 14.659135,14.622928 0,8.080343 -6.564649,14.630048 -14.659135,14.630048"
         id="path6067"
         inkscape:connector-curvature="0"
         style="fill:#007e92;fill-rule:nonzero;stroke:none;stroke-width:1" />
      <path
         d="m 62.115096,-31.375147 h -5.017297 c -0.918811,0 -1.045946,0.372466 -1.045946,0.934563 0,0 0.0019,8.137943 0.0019,8.148299 -0.06324,1.865565 -0.756973,2.462934 -2.089622,2.462934 -1.364108,0 -2.061405,-0.629082 -2.089621,-2.613733 v -7.997177 c 0,-0.562096 -0.132,-0.934562 -1.04919,-0.934562 h -5.018873 v 9.690909 c 0,2.144511 0.41546,3.05092 1.304433,3.971244 1.375135,1.431616 3.781297,2.034163 6.853297,2.034163 3.072,0 5.480108,-0.602547 6.858487,-2.034163 0.885405,-0.920324 1.304432,-1.826733 1.304432,-3.971244 z"
         id="path6069"
         inkscape:connector-curvature="0"
         style="fill:#e42313;fill-rule:nonzero;stroke:none;stroke-width:1" />
    </g>
  </g>
</svg>
