<?xml version="1.0" encoding="UTF-8" standalone="no"?>
<svg
   width="80"
   height="80"
   viewBox="0 0 80 80"
   fill="none"
   version="1.1"
   id="svg2"
   sodipodi:docname="Intermarche.svg"
   inkscape:version="1.4.3 (0d15f75, 2025-12-25)"
   xmlns:inkscape="http://www.inkscape.org/namespaces/inkscape"
   xmlns:sodipodi="http://sodipodi.sourceforge.net/DTD/sodipodi-0.dtd"
   xmlns="http://www.w3.org/2000/svg"
   xmlns:svg="http://www.w3.org/2000/svg">
  <defs
     id="defs2" />
  <sodipodi:namedview
     id="namedview2"
     pagecolor="#ffffff"
     bordercolor="#000000"
     borderopacity="0.25"
     inkscape:showpageshadow="2"
     inkscape:pageopacity="0.0"
     inkscape:pagecheckerboard="0"
     inkscape:deskcolor="#d1d1d1"
     inkscape:zoom="11.19375"
     inkscape:cx="39.977666"
     inkscape:cy="19.966499"
     inkscape:window-width="3840"
     inkscape:window-height="2030"
     inkscape:window-x="2869"
     inkscape:window-y="-11"
     inkscape:window-maximized="1"
     inkscape:current-layer="svg2" />
  <path
     fill-rule="evenodd"
     clip-rule="evenodd"
     d="m 52.8317,49.9235 c 0.3253,-0.0165 0.6329,-0.0275 0.9777,-0.0275 3.5303,0 4.7019,1.234 4.408,3.191 l -1.0188,6.7627 h -3.6851 l 1.0755,-7.1436 c 0.0902,-0.5986 -0.145,-1.1056 -1.0755,-1.1056 -0.4075,0 -0.7072,0.0549 -0.9501,0.1281 l -1.2225,8.1211 h -3.6871 l 1.5066,-10.0343 c 0.2625,-1.7062 1.5127,-2.8796 4.1575,-3.1487 z m 14.7102,-2.2902 h -5.0663 l -0.1998,1.2779 h 4.1631 c 0.5466,0 0.9873,-0.5091 1.103,-1.2779 z m -1.8806,5.0903 -0.188,1.0948 c -0.0941,0.595 -0.4839,1.1002 -1.4205,1.0966 H 63.159 l 0.4737,-3.1709 c 0.2429,-0.0731 0.5455,-0.1281 0.953,-0.1281 0.9306,0 1.1658,0.5071 1.0756,1.1076 z m 1.8161,6.6703 c 0.0745,-0.456 -0.1019,-0.822 -0.6799,-0.822 H 63.851 c -0.9325,0 -1.1587,-0.5071 -1.0685,-1.1058 l 0.1214,-0.8431 1.1489,-0.0081 c 3.3835,-0.0403 4.8822,-1.255 5.1779,-3.1626 l 0.0609,-0.3588 c 0.2879,-1.9515 -0.8856,-3.1819 -4.41,-3.1819 -1.9416,0 -3.6146,0.2911 -4.7685,0.7452 l -0.9013,5.9882 c -0.288,1.9076 0.8229,3.1443 4.1494,3.2047 h 4.0437 z M 47.8799,51.7314 47.97,51.1433 c 0.0744,-0.5053 0.1294,-0.9368 -0.6073,-1.0651 -0.7151,-0.1116 -1.5497,-0.1666 -2.5409,-0.1666 -3.5265,0 -5.0663,1.2302 -5.3583,3.1817 l -0.5525,3.7035 c -0.288,1.9534 0.8854,3.2031 4.41,3.2031 0.9992,0 1.9257,-0.0981 2.7506,-0.2355 0.3977,-0.0896 0.6701,-0.2562 0.7817,-1.0417 l 0.0843,-0.5893 c -0.8876,0.1904 -2.0097,0.335 -3.3502,0.335 -0.9151,0 -1.1656,-0.5071 -1.0756,-1.1058 l 0.721,-4.8133 c 0.0902,-0.5987 0.4898,-1.1254 1.4066,-1.1254 2.1025,0 3.2405,0.3075 3.2405,0.3075 z m -14.4803,-0.197 c -0.4101,0 -0.7099,0.0537 -0.9564,0.1276 l -0.491,3.2043 h 0.913 c 0.9405,0.0037 1.333,-0.5051 1.4276,-1.1063 l 0.1895,-1.1082 c 0.0906,-0.6049 -0.1441,-1.1174 -1.0827,-1.1174 z m 5.0145,8.3209 h -3.676 l -2.0997,-3.3079 h -0.9446 l -0.495,3.3079 h -3.7115 l 1.4012,-9.29 c 1.1616,-0.4588 2.8565,-0.753 4.8087,-0.753 3.5537,0 4.7348,1.2062 4.4391,3.1857 l -0.0591,0.3581 c -0.1835,1.184 -0.8284,2.1016 -2.0884,2.6437 z M 22.5555,58.1694 c -0.2449,0.0714 -0.5428,0.1281 -0.9522,0.1281 -0.9308,0 -1.1639,-0.5089 -1.0737,-1.1076 l 0.188,-1.0947 c 0.092,-0.597 0.4841,-1.1004 1.4186,-1.0968 h 0.9051 z m -2.835,-8.2579 c -0.5486,0 -0.9875,0.5053 -1.105,1.2761 h 3.7597 c 0.9305,0 1.1656,0.5418 1.0755,1.1404 L 23.29,53.3014 h -1.2243 c -3.3327,0.0568 -4.8118,1.2668 -5.1077,3.1598 l -0.0587,0.3535 C 16.6093,58.7681 17.7829,60 21.3095,60 c 1.9395,0 3.6126,-0.2892 4.7684,-0.7413 l 0.9226,-6.1233 C 27.2886,51.2261 26.1896,49.972 22.863,49.9115 Z m -7.723,2e-4 c -1.2225,0 -2.34114,0.1171 -3.28943,0.315 -0.65631,-0.2033 -1.49666,-0.315 -2.54687,-0.315 -1.93952,0 -3.61447,0.2928 -4.76847,0.745 L 0,59.8498 h 3.69083 l 1.22448,-8.1211 c 0.24289,-0.0732 0.54263,-0.1282 0.95016,-0.1282 0.79341,0 1.07951,0.3697 1.09128,0.8494 l -1.11468,7.3999 h 3.68509 l 1.22464,-8.1211 c 0.2429,-0.0732 0.5426,-0.1282 0.9501,-0.1282 0.7934,0 1.0794,0.3697 1.0912,0.8494 l -1.1147,7.3999 h 3.6872 l 1.0207,-6.7628 c 0.2938,-1.957 -0.8544,-3.1753 -4.3888,-3.1753 z"
     fill="#e53212"
     id="path1" />
  <path
     fill-rule="evenodd"
     clip-rule="evenodd"
     d="M 2.51983,20 H 8.56765 L 5.33543,42.1793 C 1.12355,41.7266 -0.352187,39.7891 0.0690443,36.9155 Z M 35.5276,40.0327 c 0.9485,0 1.238,0.5297 1.1158,1.2965 l -0.1254,0.8502 -2.6213,-0.0017 c -5.4659,-0.0986 -7.1524,-2.1511 -6.6829,-5.3671 l 1.6681,-11.51311 c 0.4309,-2.87046 2.4846,-4.844728 6.8251,-5.297449 l -0.9814,6.713009 h 3.2633 c -0.1894,1.29361 -0.9129,2.16983 -1.81,2.16983 h -1.7718 l -1.352,9.28932 c -0.1479,1.0042 0.2377,1.8605 1.7651,1.8605 z m 13.4109,-9.8424 -0.3086,1.8418 c -0.1543,1.0011 -0.7942,1.8511 -2.3312,1.845 h -1.4669 l 0.7775,-5.33471 c 0.3986,-0.12301 0.8951,-0.21553 1.5639,-0.21553 1.5274,0 1.9133,0.85309 1.7653,1.86344 z m 2.9805,11.2222 c 0.1222,-0.7671 -0.1673,-1.383 -1.1158,-1.383 h -4.8357 c -1.5304,0 -1.9016,-0.8531 -1.7536,-1.8603 l 0.1993,-1.4185 1.8855,-0.0137 c 5.5529,-0.0677 8.0124,-2.1114 8.4978,-5.3208 l 0.0998,-0.6037 c 0.4726,-3.28321 -1.4533,-5.35315 -7.2375,-5.35315 -3.1864,0 -5.9322,0.48973 -7.8258,1.25366 L 38.3537,36.7877 c -0.4726,3.2094 1.3506,5.2901 6.81,5.3916 H 51.8 Z m 14.6359,-11.2258 -0.3086,1.845 c -0.1543,1.0009 -0.7942,1.8479 -2.3279,1.8418 h -1.4887 l 0.8006,-5.33469 c 0.4021,-0.12301 0.8907,-0.21237 1.5593,-0.21237 1.5307,0 1.9133,0.85308 1.7653,1.86026 z m 5.9578,0.5764 c 0.4823,-3.29563 -1.4437,-5.30355 -7.2375,-5.30355 -3.1831,0 -5.9466,0.48952 -7.8405,1.25345 l -2.2844,15.4663 h 6.0511 l 0.8071,-5.5071 h 1.5403 l 11.4397,14.8919 c 0.7523,0.9794 1.7008,1.7045 2.9129,1.7045 h 1.6204 L 69.0112,35.7605 c 2.0546,-0.9025 3.106,-2.4302 3.405,-4.4013 z m -54.8188,11.4162 1.765,-12.0184 c 0.148,-1.00724 -0.2456,-2.43059 -3.3244,-1.64458 L 14.1282,42.1793 H 8.07687 L 10.3536,26.71301 c 1.8967,-0.76078 4.6395,-1.25366 7.8258,-1.25366 5.7936,0 7.7198,2.04976 7.2343,5.34225 l -1.6689,11.3777 z"
     fill="black"
     id="path2"
     style="fill:#8b8b8b;fill-opacity:1" />
</svg>
