<?xml version="1.0" encoding="UTF-8" standalone="no"?>
<svg
   version="1.1"
   viewBox="0 0 233.85 233.85"
   xml:space="preserve"
   id="svg56"
   sodipodi:docname="Migrol_logo.svg"
   width="233.85001"
   height="233.85001"
   inkscape:version="1.4.3 (0d15f75, 2025-12-25)"
   xmlns:inkscape="http://www.inkscape.org/namespaces/inkscape"
   xmlns:sodipodi="http://sodipodi.sourceforge.net/DTD/sodipodi-0.dtd"
   xmlns="http://www.w3.org/2000/svg"
   xmlns:svg="http://www.w3.org/2000/svg"
   xmlns:rdf="http://www.w3.org/1999/02/22-rdf-syntax-ns#"
   xmlns:cc="http://creativecommons.org/ns#"
   xmlns:dc="http://purl.org/dc/elements/1.1/"><sodipodi:namedview
     id="namedview56"
     pagecolor="#ffffff"
     bordercolor="#000000"
     borderopacity="0.25"
     inkscape:showpageshadow="2"
     inkscape:pageopacity="0.0"
     inkscape:pagecheckerboard="0"
     inkscape:deskcolor="#d1d1d1"
     inkscape:zoom="3.9426982"
     inkscape:cx="116.79819"
     inkscape:cy="13.062121"
     inkscape:window-width="3840"
     inkscape:window-height="2030"
     inkscape:window-x="2869"
     inkscape:window-y="-11"
     inkscape:window-maximized="1"
     inkscape:current-layer="svg56" /><metadata
     id="metadata1"><rdf:RDF><cc:Work
         rdf:about=""><dc:format>image/svg+xml</dc:format><dc:type
           rdf:resource="http://purl.org/dc/dcmitype/StillImage" /></cc:Work></rdf:RDF></metadata><defs
     id="defs39"><clipPath
       id="j"><path
         d="m 370.06,789.91 h 199.56 v 21.514 H 370.06 Z"
         id="path1" /></clipPath><linearGradient
       id="d"
       x2="1"
       gradientTransform="matrix(-3.7923,-0.12902,-0.12902,3.7923,413.52,800.74)"
       gradientUnits="userSpaceOnUse"><stop
         stop-color="#fdd804"
         offset="0"
         id="stop1" /><stop
         stop-color="#fffbb2"
         offset=".46012"
         id="stop2" /><stop
         stop-color="#937d02"
         offset="1"
         id="stop3" /></linearGradient><linearGradient
       id="e"
       x2="1"
       gradientTransform="matrix(-3.7925,-0.12902,-0.12902,3.7925,389.02,800.74)"
       gradientUnits="userSpaceOnUse"><stop
         stop-color="#376e2e"
         offset="0"
         id="stop4" /><stop
         stop-color="#b8e0a5"
         offset=".46012"
         id="stop5" /><stop
         stop-color="#264b1d"
         offset="1"
         id="stop6" /></linearGradient><linearGradient
       id="f"
       x2="1"
       gradientTransform="matrix(3.7923,0.12902,0.12902,-3.7923,444.04,800.61)"
       gradientUnits="userSpaceOnUse"><stop
         stop-color="#fdd804"
         offset="0"
         id="stop7" /><stop
         stop-color="#fffbb2"
         offset=".46012"
         id="stop8" /><stop
         stop-color="#937d02"
         offset="1"
         id="stop9" /></linearGradient><linearGradient
       id="g"
       x2="1"
       gradientTransform="matrix(3.7923,0.12902,0.12902,-3.7923,406.45,800.61)"
       gradientUnits="userSpaceOnUse"><stop
         stop-color="#376e2e"
         offset="0"
         id="stop10" /><stop
         stop-color="#b8e0a5"
         offset=".46012"
         id="stop11" /><stop
         stop-color="#264b1d"
         offset="1"
         id="stop12" /></linearGradient><linearGradient
       id="h"
       x2="1"
       gradientTransform="matrix(3.7923,0.12902,0.12902,-3.7923,381.96,800.61)"
       gradientUnits="userSpaceOnUse"><stop
         stop-color="#a4091e"
         offset="0"
         id="stop13" /><stop
         stop-color="#cfa388"
         offset=".46012"
         id="stop14" /><stop
         stop-color="#730b0e"
         offset="1"
         id="stop15" /></linearGradient><linearGradient
       id="i"
       x2="1"
       gradientTransform="matrix(-9e-7,20.579,20.579,9e-7,379.79,790.38)"
       gradientUnits="userSpaceOnUse"><stop
         stop-color="#7e0d10"
         offset="0"
         id="stop16" /><stop
         stop-color="#a4091e"
         offset=".19632"
         id="stop17" /><stop
         stop-color="#e32426"
         offset=".31288"
         id="stop18" /><stop
         stop-color="#a4091e"
         offset=".52761"
         id="stop19" /><stop
         stop-color="#d0a787"
         offset=".65031"
         id="stop20" /><stop
         stop-color="#fff"
         offset=".80368"
         id="stop21" /><stop
         stop-color="#d0a788"
         offset="1"
         id="stop22" /></linearGradient><linearGradient
       id="c"
       x2="1"
       gradientTransform="matrix(-9e-7,20.579,20.579,9e-7,428.78,790.38)"
       gradientUnits="userSpaceOnUse"><stop
         stop-color="#d87f0e"
         offset="0"
         id="stop23" /><stop
         stop-color="#fdd804"
         offset=".19632"
         id="stop24" /><stop
         stop-color="#fff64d"
         offset=".31288"
         id="stop25" /><stop
         stop-color="#fdd804"
         offset=".52761"
         id="stop26" /><stop
         stop-color="#fffa99"
         offset=".65031"
         id="stop27" /><stop
         stop-color="#fff"
         offset=".80368"
         id="stop28" /><stop
         stop-color="#fffa99"
         offset="1"
         id="stop29" /></linearGradient><linearGradient
       id="b"
       x2="1"
       gradientTransform="matrix(-9e-7,20.579,20.579,9e-7,397.74,790.38)"
       gradientUnits="userSpaceOnUse"><stop
         stop-color="#264b1d"
         offset="0"
         id="stop30" /><stop
         stop-color="#376e2e"
         offset=".19632"
         id="stop31" /><stop
         stop-color="#459046"
         offset=".31288"
         id="stop32" /><stop
         stop-color="#376e2e"
         offset=".52761"
         id="stop33" /><stop
         stop-color="#99daa2"
         offset=".65031"
         id="stop34" /><stop
         stop-color="#fff"
         offset=".80368"
         id="stop35" /><stop
         stop-color="#99daa2"
         offset="1"
         id="stop36" /></linearGradient><linearGradient
       id="a"
       x2="1"
       gradientTransform="matrix(-3.7923,-0.12902,-0.12902,3.7923,377.62,800.74)"
       gradientUnits="userSpaceOnUse"><stop
         stop-color="#a4091e"
         offset="0"
         id="stop37" /><stop
         stop-color="#cfa388"
         offset=".46012"
         id="stop38" /><stop
         stop-color="#730b0e"
         offset="1"
         id="stop39" /></linearGradient></defs><g
     transform="matrix(1.25,0,0,-1.25,-405.91,1048.2)"
     id="g56"><path
       d="m 429.84,758.09 h 5.69 v -20.579 h -5.69 z"
       fill="#a4091e"
       id="path39" /><path
       d="m 455.52,752.42 c -1.5642,0.60231 -3.3672,0.99238 -5.3814,0.99238 -3.6964,0 -5.6202,-2.3139 -5.6202,-5.5927 0,-3.1569 1.5023,-5.233 4.9589,-5.233 0.42151,0 0.84205,0.0619 1.1437,0.15131 v 6.1635 h 5.5897 v -10.011 c -1.9543,-0.8725 -4.5384,-1.4139 -7.3052,-1.4139 -6.8228,0 -10.46,3.8781 -10.46,9.9522 0,6.585 4.5698,11.036 11.964,11.036 2.1036,0 4.2977,-0.39007 5.9503,-0.90198 l -0.84008,-5.1427 z"
       fill="#a4091e"
       id="path40" /><path
       d="m 466.85,753.6 c -0.368,0 -0.887,-0.032 -1.07,-0.063 v -4.438 c 0.214,-0.031 0.641,-0.061 0.947,-0.061 1.561,0 2.631,0.827 2.631,2.356 0,1.225 -0.642,2.206 -2.508,2.206 m 3.009,-16.089 -3.865,7.488 h -0.214 v -7.488 h -5.69 v 20.618 c 1.927,0.122 4.467,0.152 7.066,0.152 5.261,0 8.198,-1.866 8.198,-6.457 0,-2.449 -1.376,-4.804 -3.761,-5.662 0.549,-0.827 1.039,-1.592 1.498,-2.387 l 3.681,-6.264 z"
       fill="#a4091e"
       id="path41" /><path
       d="m 487.37,753.48 c -1.9416,0 -3.9125,-1.4936 -3.9125,-5.288 0,-3.4352 1.105,-5.5271 3.7925,-5.5271 1.7317,0 4.0619,1.1939 4.0619,5.4666 0,3.5279 -1.2837,5.3485 -3.9418,5.3485 m -0.38851,-15.924 c -6.3315,0 -9.4367,3.8247 -9.4367,10.218 0,6.5131 4.5988,10.785 10.242,10.785 5.2577,0 9.4377,-2.8378 9.4377,-10.157 0,-6.5726 -4.51,-10.845 -10.243,-10.845"
       fill="#a4091e"
       id="path42" /><path
       d="m 500.43,737.51 v 20.579 h 5.691 V 742.57 h 5.69 v -5.06 z"
       fill="#a4091e"
       id="path43" /><g
       transform="translate(-49.449,-52.865)"
       id="g44"><path
         d="m 413.17,810.96 -3.097,-20.578 h 34.32 l 3.096,20.578 z"
         fill="url(#c)"
         id="path44"
         style="fill:url(#c)" /></g><g
       transform="translate(-49.449,-52.865)"
       id="g45"><path
         d="m 388.67,810.96 -3.096,-20.578 h 21.221 l 3.099,20.578 z"
         fill="url(#b)"
         id="path45"
         style="fill:url(#b)" /></g><g
       transform="translate(-49.449,-52.865)"
       id="g46"><path
         d="m 377.27,810.96 -3.096,-20.578 h 8.128 l 3.096,20.578 z"
         fill="url(#i)"
         id="path46"
         style="fill:url(#i)" /></g><g
       transform="translate(-49.449,-52.865)"
       id="g47"><path
         d="m 374.18,790.38 c 2.71,9.162 2.912,10.483 3.096,20.578 z"
         fill="url(#a)"
         id="path47"
         style="fill:url(#a)" /></g><g
       transform="translate(-49.449,-52.865)"
       id="g48"><path
         d="m 382.31,790.38 3.096,20.578 c -2.711,-9.163 -2.913,-10.484 -3.096,-20.578"
         fill="url(#h)"
         id="path48"
         style="fill:url(#h)" /></g><g
       transform="translate(-49.449,-52.865)"
       id="g49"><path
         d="m 406.8,790.38 3.096,20.578 c -2.711,-9.163 -2.912,-10.484 -3.096,-20.578"
         fill="url(#g)"
         id="path49"
         style="fill:url(#g)" /></g><g
       transform="translate(-49.449,-52.865)"
       id="g50"><path
         d="m 444.39,790.38 3.096,20.578 c -2.711,-9.163 -2.912,-10.484 -3.096,-20.578"
         fill="url(#f)"
         id="path50"
         style="fill:url(#f)" /></g><g
       transform="translate(-49.449,-52.865)"
       id="g51"><path
         d="m 385.58,790.38 c 2.711,9.162 2.913,10.483 3.096,20.578 z"
         fill="url(#e)"
         id="path51"
         style="fill:url(#e)" /></g><g
       transform="translate(-49.449,-52.865)"
       id="g52"><path
         d="m 410.07,790.38 c 2.712,9.162 2.914,10.483 3.097,20.578 z"
         fill="url(#d)"
         id="path52"
         style="fill:url(#d)" /></g><g
       transform="translate(-49.449,-52.865)"
       id="g55"><g
         clip-path="url(#j)"
         id="g54"><g
           transform="translate(470.8,790.38)"
           id="g53"><path
             d="m 0,0 -1.131,6.859 c -0.215,1.372 -0.429,2.895 -0.613,4.663 h -0.06 C -2.142,9.725 -2.539,8.018 -3.059,6.127 L -4.711,0 h -5.06 l -1.621,5.458 c -0.551,1.889 -1.071,3.992 -1.346,6.064 H -12.8 C -12.982,9.481 -13.198,7.926 -13.412,6.371 L -14.347,0 h -5.575 l 3.096,20.579 h 6.424 l 2.174,-7.134 c 0.428,-1.434 0.763,-2.868 1.1,-4.665 h 0.061 c 0.305,1.738 0.674,3.139 1.193,4.756 l 2.203,7.043 H 2.568 L 5.966,0 Z"
             fill="#a4091e"
             id="path53" /></g></g></g></g></svg>
