<?xml version="1.0" encoding="UTF-8" standalone="no"?>
<svg
   version="1.1"
   width="650"
   height="651"
   viewBox="0 0 650 651"
   xml:space="preserve"
   id="svg1"
   sodipodi:docname="Monoprix.svg"
   inkscape:version="1.4.3 (0d15f75, 2025-12-25)"
   xmlns:inkscape="http://www.inkscape.org/namespaces/inkscape"
   xmlns:sodipodi="http://sodipodi.sourceforge.net/DTD/sodipodi-0.dtd"
   xmlns="http://www.w3.org/2000/svg"
   xmlns:svg="http://www.w3.org/2000/svg"><defs
   id="defs1" /><sodipodi:namedview
   id="namedview1"
   pagecolor="#ffffff"
   bordercolor="#000000"
   borderopacity="0.25"
   inkscape:showpageshadow="2"
   inkscape:pageopacity="0.0"
   inkscape:pagecheckerboard="0"
   inkscape:deskcolor="#d1d1d1"
   inkscape:zoom="1.0030038"
   inkscape:cx="325.5222"
   inkscape:cy="75.273894"
   inkscape:window-width="3840"
   inkscape:window-height="2030"
   inkscape:window-x="2869"
   inkscape:window-y="-11"
   inkscape:window-maximized="1"
   inkscape:current-layer="svg1" />
<path
   id="apostrophe"
   d="M 756.78242,64.632958 C 756.47153,48.958401 746.482,37.1775 727.76136,37.1775 c -15.22671,0 -27.55169,11.643956 -27.55169,25.671482 0,16.485122 12.94308,24.705474 29.90565,24.705474 7.62816,-0.162853 3.24965,13.598184 -10.74087,23.613614 l 0.89939,1.65443 c 25.06819,-7.86503 36.84169,-32.019027 36.50858,-48.189542"
   style="display:none;fill:#e41f13" />
<path
   id="monoprix"
   d="m 179.56347,277.1775 c -20.90683,0 -37.93506,16.94449 -37.93506,37.8225 0,20.88883 17.02823,37.8225 37.93506,37.8225 20.92126,0 37.82251,-16.93367 37.82251,-37.8225 0.004,-20.87801 -16.90125,-37.8225 -37.82251,-37.8225 z m 158.832,0 c -20.91765,0 -37.93507,16.94449 -37.93507,37.8225 0,20.88883 17.01742,37.8225 37.93507,37.8225 20.92125,0 37.82249,-16.93367 37.82249,-37.8225 0,-20.87801 -16.90124,-37.8225 -37.82249,-37.8225 z m -288.39656,1.91364 0.11256,3.15187 c 3.537306,0 7.65456,1.27426 7.65456,6.64145 v 62.13697 h 6.19118 v -53.35674 l 26.002966,53.35674 h 3.03931 l 25.890394,-58.98508 v 58.98508 h 10.69387 V 279.09114 H 117.76422 L 93.674887,334.24895 66.883949,279.09114 Z m 171.66461,0 v 3.15187 c 3.5265,0 7.76712,1.27426 7.76712,6.64145 v 62.13697 h 6.19119 v -58.19712 l 51.33053,59.99819 h 1.91364 v -73.73136 h -6.07862 l -0.11257,52.23107 -44.68907,-52.23107 z m 158.94456,0 v 3.15187 c 3.53369,0 7.65455,1.28507 7.65455,6.64145 v 62.13697 h 10.80642 v -32.19414 c 5.05741,0.82849 8.71089,1.05181 11.81954,0.90053 12.07079,-0.58715 23.07622,-8.11383 23.07622,-20.48718 0,-12.76961 -10.73709,-20.1495 -23.30135,-20.1495 z m 58.53482,0 v 3.15187 c 3.5301,0 7.76711,1.26346 7.76711,6.64145 v 62.13697 h 10.69387 v -33.65751 c 1.44086,0.0864 3.14467,0.16749 4.50267,0.22513 3.07264,0.22332 8.30385,-0.30708 14.07088,9.79332 2.24054,3.89752 12.38236,22.06133 13.28289,23.63906 h 12.60751 c 0,0 -11.14863,-19.58935 -13.50804,-23.5265 -2.83128,-4.7224 -6.3947,-9.83474 -11.81953,-11.81952 7.83106,-2.17571 15.87195,-7.8959 15.87195,-17.56045 0,-12.57148 -10.42731,-19.02382 -23.30137,-19.02382 z m 67.20247,0 v 3.15187 c 3.5301,0 7.76712,1.27426 7.76712,6.64145 v 62.13697 h 10.69387 v -71.93029 z m 28.70458,0 v 3.15187 c 2.42423,0 5.12224,0.43586 6.75401,2.70161 l 21.16259,31.06848 -26.00297,35.00833 h 7.65456 l 22.06313,-29.71766 20.26205,29.71766 h 13.05777 l -26.5658,-38.72303 24.65216,-33.20726 h -7.65456 l -20.71232,27.80405 -19.02381,-27.80405 z m -355.59904,2.47647 c 14.4482,0 26.11554,11.37377 26.11554,33.54497 0,22.16398 -11.66734,33.43237 -26.11554,33.43237 -14.44819,0 -26.2281,-11.272 -26.2281,-33.43237 0,-22.15679 11.77991,-33.54497 26.2281,-33.54497 z m 158.83198,0 c 14.4482,0 26.11554,11.37377 26.11554,33.54497 0,22.16398 -11.66734,33.43237 -26.11554,33.43237 -14.46979,0 -26.2281,-11.272 -26.2281,-33.43237 0,-22.15679 11.75831,-33.54497 26.2281,-33.54497 z m 118.42046,1.80108 h 7.99225 c 9.12063,0 16.54734,3.51208 16.54734,14.85883 0.004,11.073 -7.53118,15.08397 -16.54734,15.08397 -2.46747,0 -5.12496,-0.19451 -7.09172,-0.45025 v -25.21501 c 0,-3.26714 -0.56915,-3.79846 -0.90053,-4.27754 z m -58.53483,0.11256 h 7.87969 c 9.13143,0 16.54735,4.54861 16.54735,15.64682 0.004,12.20405 -7.51677,16.20964 -16.54735,16.20964 -2.46027,0 -4.81067,-0.37822 -6.97916,-0.90054 v -26.56581 c 0,-3.26354 -0.38543,-3.64446 -0.90053,-4.39011 z"
   style="fill:#e30613" />
</svg>
