<?xml version="1.0" encoding="UTF-8" standalone="no"?>
<svg
   id="Calque_2"
   data-name="Calque 2"
   viewBox="0 0 217.99 217.99"
   version="1.1"
   sodipodi:docname="Netto-FR.svg"
   width="217.99001"
   height="217.99001"
   inkscape:version="1.4.3 (0d15f75, 2025-12-25)"
   xmlns:inkscape="http://www.inkscape.org/namespaces/inkscape"
   xmlns:sodipodi="http://sodipodi.sourceforge.net/DTD/sodipodi-0.dtd"
   xmlns="http://www.w3.org/2000/svg"
   xmlns:svg="http://www.w3.org/2000/svg">
  <sodipodi:namedview
     id="namedview2"
     pagecolor="#ffffff"
     bordercolor="#000000"
     borderopacity="0.25"
     inkscape:showpageshadow="2"
     inkscape:pageopacity="0.0"
     inkscape:pagecheckerboard="0"
     inkscape:deskcolor="#d1d1d1"
     inkscape:zoom="4.2295517"
     inkscape:cx="109.11322"
     inkscape:cy="48.350278"
     inkscape:window-width="3840"
     inkscape:window-height="2030"
     inkscape:window-x="2869"
     inkscape:window-y="-11"
     inkscape:window-maximized="1"
     inkscape:current-layer="Calque_2" />
  <defs
     id="defs1">
    <style
       id="style1">
      .cls-1 {
        fill: #e06008;
      }

      .cls-1, .cls-2 {
        stroke-width: 0px;
      }

      .cls-2 {
        fill: #e00018;
      }
    </style>
  </defs>
  <g
     id="Ebene_1"
     data-name="Ebene 1"
     transform="translate(0,60)">
    <g
       id="g2">
      <path
         class="cls-1"
         d="M 42.36,0 V 11.17 H 11.17 V 42.36 H 0 V 0 Z M 217.99,96.76 V 54.4 h -11.17 v 31.19 h -31.19 v 11.17 z"
         id="path1" />
      <path
         class="cls-2"
         d="m 193.46,39.91 c -3.46,-4.2 -8.89,-6.61 -14.92,-6.61 -12.7,0 -23.92,8.97 -26.1,20.86 -0.97,5.28 0.34,10.4 3.69,14.42 3.52,4.23 8.88,6.65 14.7,6.65 13.58,0 24.08,-10.58 26.01,-20.38 1.11,-5.64 -0.09,-10.95 -3.38,-14.94 z m -6.7,13.98 c -1.22,6.62 -7.81,12 -14.69,12 -3.02,0 -5.66,-1.19 -7.46,-3.35 -1.79,-2.15 -2.51,-5.08 -1.97,-8.04 1.18,-6.42 7.77,-11.85 14.39,-11.85 3.26,0 6.06,1.2 7.88,3.38 1.74,2.09 2.4,4.88 1.85,7.86 z M 151.58,34.31 153.86,21.89 H 143.6 l -2.29,12.42 h -10.27 l 2.29,-12.42 h -10.27 l -2.28,12.42 h -5.2 l -1.72,9.35 h 5.2 l -5.63,30.64 h 10.27 l 5.63,-30.64 h 10.27 l -5.63,30.64 h 10.26 l 5.63,-30.64 h 6.32 l 1.71,-9.35 z m -41.89,5.21 c -3.34,-4.01 -8.47,-6.22 -14.45,-6.22 -11.55,0 -22.3,9.25 -24.47,21.06 -0.97,5.29 0.38,10.61 3.71,14.61 3.36,4.03 8.27,6.26 13.82,6.26 8.74,0 17.4,-5.22 22.05,-13.31 l 0.04,-0.07 H 99.26 c -2.57,2.53 -6.05,4.04 -9.52,4.04 -4.62,0 -8.02,-2.73 -9.02,-7.09 h 31.15 l 0.35,-1 c 0.48,-1.38 0.7,-2.55 0.91,-3.7 1.01,-5.52 -0.21,-10.7 -3.44,-14.58 z m -27.6,10.94 c 2.31,-4.87 7.8,-7.81 12.19,-7.81 2.78,0 5.33,1.06 7.01,2.9 1.24,1.37 1.93,3.05 2.03,4.91 z M 62.21,21.89 55.88,56.39 39.3,21.89 H 28.92 L 19.29,74.3 h 10.54 l 6.45,-35.1 16.89,35.1 h 9.96 l 9.63,-52.41 z"
         id="path2" />
    </g>
  </g>
</svg>
