<?xml version="1.0" encoding="UTF-8" standalone="no"?>
<svg
   version="1.2"
   viewBox="0 0 1811 1811"
   width="1811"
   height="1811"
   id="svg15"
   sodipodi:docname="Roady-white.svg"
   inkscape:version="1.4.3 (0d15f75, 2025-12-25)"
   xmlns:inkscape="http://www.inkscape.org/namespaces/inkscape"
   xmlns:sodipodi="http://sodipodi.sourceforge.net/DTD/sodipodi-0.dtd"
   xmlns="http://www.w3.org/2000/svg"
   xmlns:svg="http://www.w3.org/2000/svg"
   xmlns:rdf="http://www.w3.org/1999/02/22-rdf-syntax-ns#"
   xmlns:cc="http://creativecommons.org/ns#"
   xmlns:dc="http://purl.org/dc/elements/1.1/">
  <defs
     id="defs15" />
  <sodipodi:namedview
     id="namedview15"
     pagecolor="#ffffff"
     bordercolor="#000000"
     borderopacity="0.25"
     inkscape:showpageshadow="2"
     inkscape:pageopacity="0.0"
     inkscape:pagecheckerboard="0"
     inkscape:deskcolor="#d1d1d1"
     inkscape:zoom="0.509111"
     inkscape:cx="1413.2478"
     inkscape:cy="370.25324"
     inkscape:window-width="3840"
     inkscape:window-height="2030"
     inkscape:window-x="2869"
     inkscape:window-y="-11"
     inkscape:window-maximized="1"
     inkscape:current-layer="g14" />
  <title
     id="title1">Roady-svg</title>
  <style
     id="style1">
		.s0 { fill: #e2001a } 
		.s1 { fill: #ffffff } 
		.s2 { fill: #1a171a } 
	</style>
  <g
     id="logo Raody Quadri">
    <g
       id="g15">
      <g
         id="g9"
         transform="translate(0,512)">
        <path
           id="&lt;Path&gt;"
           class="s0"
           d="m 1752.9,530.7 -20.6,169.8 H 545.9 L 448.6,530.7 Z" />
        <g
           id="&lt;Group&gt;">
          <path
             id="&lt;Compound Path&gt;"
             class="s1"
             d="m 571.1,603.2 c 0,-22.5 12.7,-27.9 34,-27.9 h 27.8 c 33.6,0 38,7.3 37.8,29.1 H 647 v -2.1 c 0,-5.5 -4,-7.1 -11,-7.1 h -25.8 c -12.5,0 -14.8,5.8 -14.8,15.4 v 8.3 c 0,11.2 2.3,15.4 13.6,15.4 h 25.2 c 10.6,0 13.8,-1.1 13.8,-10.6 h 23.6 v 7.2 c 0,13 -4.6,23.2 -28.4,23.2 h -38.1 c -21.3,0 -34,-5.3 -34,-27.9 z" />
          <path
             id="path1"
             class="s1"
             d="m 685.9,576.2 h 84.3 v 17.9 h -60.7 v 12.3 H 767 v 16 h -57.5 v 12.3 h 62.1 v 18.6 h -85.7 z" />
          <path
             id="path2"
             class="s1"
             d="m 785.8,576.2 h 36.6 l 44.4,56 h 0.2 v -56 h 23.7 v 77.1 H 854 l -44.3,-56.1 h -0.2 v 56.1 h -23.7 z" />
          <path
             id="path3"
             class="s1"
             d="m 901,576.2 h 90 v 19.2 h -33.2 v 57.9 H 934.2 V 595.4 H 901 Z" />
          <path
             id="path4"
             fill-rule="evenodd"
             class="s1"
             d="m 1001.4,576.2 h 71.3 c 18.2,0 23.1,9.1 23.1,22.9 v 4.9 c 0,10.3 -2.3,16.4 -13.2,18.9 v 0.2 c 7,1.3 12.9,4.4 12.9,17.1 v 13.1 h -23.7 V 644 c 0,-8.1 -2.3,-10.8 -9.6,-10.8 H 1025 v 20.1 h -23.6 z m 23.6,37.9 h 39.1 c 6.4,0 8.7,-2.6 8.7,-8.1 v -2.6 c 0,-6.8 -3.4,-8.1 -10.9,-8.1 H 1025 Z" />
          <path
             id="path5"
             class="s1"
             d="m 1111.8,576.2 h 84.2 v 17.9 h -60.6 v 12.3 h 57.4 v 16 h -57.4 v 12.3 h 62 v 18.6 h -85.6 z" />
          <path
             id="path6"
             fill-rule="evenodd"
             class="s1"
             d="m 1298.4,576.2 h 30.8 l 42.3,77.1 h -26.2 l -7.4,-13.7 H 1290 l -6.9,13.7 h -26.4 z m 0.5,46.8 h 30.2 l -15.4,-28.9 z" />
          <path
             id="path7"
             class="s1"
             d="m 1380,576.2 h 23.6 v 44.5 c 0,9.8 3.5,13.6 13.2,13.6 h 23.4 c 9.7,0 13.2,-3.8 13.2,-13.6 v -44.5 h 23.6 v 49.6 c 0,19.1 -9.9,28.3 -31.6,28.3 h -33.8 c -21.8,0 -31.6,-9.2 -31.6,-28.3 z" />
          <path
             id="path8"
             class="s1"
             d="m 1487.3,576.2 h 90.1 v 19.2 h -33.2 v 57.9 h -23.6 v -57.9 h -33.3 z" />
          <path
             id="path9"
             fill-rule="evenodd"
             class="s1"
             d="m 1586,603.2 c 0,-22.5 12.7,-27.9 34,-27.9 h 37.9 c 21.3,0 33.9,5.4 33.9,27.9 v 23 c 0,22.6 -12.6,27.9 -33.9,27.9 H 1620 c -21.3,0 -34,-5.3 -34,-27.9 z m 24.3,15.7 c 0,11.2 2.3,15.4 13.5,15.4 h 30.2 c 11.2,0 13.6,-4.2 13.6,-15.4 v -8.3 c 0,-9.6 -2.4,-15.4 -14.9,-15.4 h -27.6 c -12.5,0 -14.8,5.8 -14.8,15.4 z" />
        </g>
      </g>
      <g
         id="g14">
        <path
           id="path10"
           fill-rule="evenodd"
           class="s2"
           d="m 1464.8,512.7 -65.3,466.1 q -135,0 -146.3,0 c -116.6,0 -155.6,-42.8 -146.2,-112 l 16.4,-127.2 c 8.5,-69.2 58.7,-112.8 175.3,-112.8 10,0 19.1,0.3 28.3,0.8 q 5.8,-108.1 137.8,-114.9 z m -146.6,177.4 c -6.6,-1.8 -14.8,-3 -25.6,-3 -30.7,0 -43.2,17.9 -45.8,39.1 l -19.9,154.1 c -2.9,21.1 5.1,39.1 35.7,39.1 9.6,0 17.2,-1 23.8,-2.5 z"
           style="fill:#ffffff;fill-opacity:1" />
        <path
           id="path11"
           fill-rule="evenodd"
           class="s2"
           d="m 348,752.3 c -6,41.5 -27.2,73.5 -68.6,92.5 L 491,1212.7 h -32.6 c -24.4,0 -43.5,-15.2 -58.6,-35.8 L 169.5,864 l -31,-0.1 -16.2,115.8 H 0.5 l 45.9,-325 c 38.1,-16.1 93.8,-26.3 157.8,-26.3 116.7,0 155.4,42.1 145.7,111.4 z M 194.5,688.6 c -13.4,0 -23.3,1.9 -31.4,4.4 L 147,805.1 h 30 c 30.9,0.2 43.8,-17.6 46.9,-38.6 l 6.2,-38.8 c 2.9,-21.2 -4.8,-39.1 -35.6,-39.1 z"
           style="fill:#ffffff;fill-opacity:1" />
        <g
           id="g12"
           style="fill:#ffffff;fill-opacity:1"
           transform="translate(0,512)">
          <path
             id="path12"
             fill-rule="evenodd"
             class="s2"
             d="m 939,116.4 c 109.9,2.1 146.2,46.4 136.7,113.9 l -30.5,216.5 C 1007,462.8 951.7,473 887.6,473 771.2,473 732.4,429.5 742,360.4 l 1.9,-12.5 C 753.7,281 802.5,238.2 912.6,236.2 h 40.5 l 5.3,-34.4 c 3,-21.2 -4.8,-40.3 -35.5,-40.3 H 798.7 c 3.8,-27.2 18.4,-45.1 36.5,-45.1 z m 5.8,179.7 H 915 c -30.9,0 -43.8,17.7 -46.9,38.9 l -6.2,38.6 c -3,21.2 4.7,39.2 35.4,39.2 13.6,0 23.4,-2 31.5,-4.5 z"
             style="fill:#ffffff;fill-opacity:1" />
        </g>
        <path
           id="path13"
           fill-rule="evenodd"
           class="s2"
           d="m 721.5,737.7 c -4.1,29.7 -20,141.9 -21.3,150.8 -9.8,58.8 -54.3,96.2 -154.8,96.2 q -2,0 -2.6,0 c -118.6,0 -172.9,-30.6 -162,-111.6 q 11,-81 31.3,-220.8 55,-26.3 173.7,-26.3 c 86,0 146.6,30.7 135.7,111.7 z M 547.7,916.4 q 41,0.1 48.6,-45.5 h 0.1 l 19.3,-137.5 q 5.7,-45.9 -35,-45.9 -48.2,0 -64,7.9 l -25.4,175 q -5.7,46 35,46 z"
           style="fill:#ffffff;fill-opacity:1" />
        <path
           id="path14"
           class="s2"
           d="m 1810.2,644.5 c -8.6,60.1 -33.7,235.4 -34.1,238.3 -9.7,57.8 -53,94.8 -150.1,96 h -145.7 l 2.2,-15.5 c 2.2,-16.1 11.8,-29.1 30.9,-29.1 h 92.5 c 30.7,0 44,-19 47.1,-40.1 l 4.6,-34.4 h -40.5 C 1507.6,857.7 1471,814.9 1480.5,748 l 13.7,-96.6 c 0.9,-0.7 34.6,-25.1 128,-25.1 L 1601,760.9 c -3,21.1 4.7,38.9 35.7,38.8 h 29.9 l 24.9,-175.1 c 66.9,0 103.2,12.5 118.7,19.9 z"
           style="fill:#ffffff;fill-opacity:1" />
      </g>
    </g>
  </g>
  <metadata
     id="metadata15">
    <rdf:RDF>
      <cc:Work
         rdf:about="">
        <dc:title>Roady-svg</dc:title>
      </cc:Work>
    </rdf:RDF>
  </metadata>
</svg>
