<?xml version="1.0" encoding="UTF-8" standalone="no"?>
<svg
   version="1.0"
   width="554"
   height="554"
   viewBox="-0.835 -0.23 554 554"
   id="svg2"
   xml:space="preserve"
   sodipodi:docname="Rompetrol.svg"
   inkscape:version="1.4.3 (0d15f75, 2025-12-25)"
   xmlns:inkscape="http://www.inkscape.org/namespaces/inkscape"
   xmlns:sodipodi="http://sodipodi.sourceforge.net/DTD/sodipodi-0.dtd"
   xmlns="http://www.w3.org/2000/svg"
   xmlns:svg="http://www.w3.org/2000/svg"><sodipodi:namedview
   id="namedview1"
   pagecolor="#ffffff"
   bordercolor="#000000"
   borderopacity="0.25"
   inkscape:showpageshadow="2"
   inkscape:pageopacity="0.0"
   inkscape:pagecheckerboard="0"
   inkscape:deskcolor="#d1d1d1"
   inkscape:zoom="1.3486446"
   inkscape:cx="277.6862"
   inkscape:cy="165.72194"
   inkscape:window-width="3840"
   inkscape:window-height="2030"
   inkscape:window-x="2869"
   inkscape:window-y="-11"
   inkscape:window-maximized="1"
   inkscape:current-layer="svg2" />
	<defs
   id="defs4">
	</defs>
	<g
   transform="matrix(0.9819166,0,0,0.9698346,6,108)"
   id="g6">
		<path
   d="m 485.989,273.692 c -6.525,0 -12.473,2.266 -18.147,7.084 -5.383,5.104 -9.071,11.058 -10.766,18.421 -1.416,6.233 -0.851,11.051 1.974,14.739 2.559,3.682 6.812,5.389 12.759,5.389 6.52,0 12.753,-2.272 18.142,-7.376 5.383,-4.812 9.071,-10.766 10.772,-18.142 1.409,-6.227 0.844,-11.045 -1.701,-14.727 -2.839,-3.687 -7.085,-5.388 -13.033,-5.388 m -17.576,57.814 c -9.922,0 -17.291,-2.838 -21.83,-8.785 -4.817,-5.669 -5.947,-13.604 -3.682,-23.239 1.13,-4.532 3.117,-9.35 5.662,-13.889 2.838,-4.253 6.246,-8.493 10.207,-11.901 4.253,-3.968 9.071,-6.799 14.46,-9.064 5.383,-1.987 10.766,-3.117 16.44,-3.117 9.915,0 17.278,2.838 21.823,8.785 4.532,5.662 5.954,13.317 3.676,22.668 -1.13,5.104 -3.117,9.636 -5.669,13.889 -2.552,4.532 -5.662,8.22 -9.35,11.609 -4.532,4.26 -9.636,7.655 -15.025,9.643 -5.375,2.259 -11.044,3.401 -16.712,3.401 m -60.417,-39.685 h 1.986 c 5.39,0 9.064,-0.553 11.331,-1.975 2.266,-1.415 3.688,-3.967 4.538,-7.369 0.565,-3.11 0.394,-5.065 -0.863,-6.52 -1.193,-1.371 -4.24,-1.727 -9.064,-1.688 h -1.402 z m -13.604,37.984 h -13.895 l 24.096,-66.594 13.876,-0.006 c 5.675,0 9.934,0.279 12.206,0.851 10.506,2.628 13.896,17.367 2.26,29.192 -3.517,3.567 -8.214,5.669 -13.889,6.799 l 8.221,29.758 h -15.305 l -6.525,-30.608 z m -366.9,-37.984 h 2 c 5.383,0 9.058,-0.553 11.324,-1.975 2.266,-1.415 3.682,-3.967 4.532,-7.369 0.565,-3.11 0.406,-5.065 -0.857,-6.52 -1.193,-1.371 -4.234,-1.727 -9.064,-1.688 H 34.018 Z M 13.889,329.805 H 0 l 24.096,-66.594 13.876,-0.006 c 5.668,0 9.94,0.279 12.2,0.851 10.512,2.628 13.901,17.367 2.26,29.192 -3.517,3.567 -8.214,5.669 -13.882,6.799 l 8.22,29.758 H 31.465 l -6.519,-30.608 z m 230.578,-36.842 h 1.987 c 5.383,0 9.071,-0.845 11.336,-2.26 2.272,-1.422 3.688,-4.26 4.532,-7.662 0.851,-3.11 0.565,-5.389 -0.851,-6.519 -1.415,-1.137 -4.253,-1.98 -8.785,-1.98 h -1.701 z m -13.603,36.842 -13.895,0.013 24.381,-66.606 h 12.759 c 6.24,0 10.48,0.279 13.038,0.845 2.546,0.851 4.532,1.986 5.954,3.402 1.975,1.701 3.11,3.967 3.682,6.519 0.559,2.552 0.279,5.39 -0.285,8.5 -0.851,3.688 -2.267,6.805 -4.247,9.921 -1.993,2.825 -4.538,5.383 -7.661,7.37 -2.546,1.409 -5.383,2.837 -8.214,3.396 -3.123,0.857 -7.363,1.137 -13.038,1.137 h -3.117 z m 40.911,0 24.089,-66.594 h 39.477 l -4.228,11.61 -25.606,0.006 -5.39,15.019 h 25.556 l -4.233,11.616 h -25.575 l -5.947,16.44 h 25.587 l -4.329,11.902 h -39.401 z m -144.384,0.006 34.328,-66.593 14.46,-0.007 -2.342,45.538 30.659,-45.538 h 15.355 l -13.679,66.612 h -13.825 c 0,0 12.962,-47.493 14.098,-51.181 -1.987,3.408 -34.684,51.181 -34.684,51.181 h -8.88 l 2.311,-51.181 -23.962,51.181 z m 384.23,-0.025 24.375,-66.587 h 13.87 l -20.104,54.711 h 23.232 l -4.532,11.876 z m -172.04,0.019 20.122,-54.978 h -17.291 l 4.253,-11.616 h 47.055 l -4.259,11.616 H 373.306 L 353.47,329.805 Z M 104.565,273.692 c -6.805,0 -12.752,2.266 -18.142,7.084 -5.668,5.104 -9.064,11.058 -10.772,18.421 -1.416,6.233 -0.851,11.051 1.708,14.739 2.831,3.682 7.084,5.389 13.038,5.389 6.519,0 12.467,-2.272 17.856,-7.376 5.668,-4.812 9.35,-10.766 11.058,-18.142 1.409,-6.227 0.565,-11.045 -1.993,-14.727 -2.546,-3.687 -7.085,-5.388 -12.753,-5.388 m -17.856,57.814 c -9.915,0 -17.291,-2.838 -21.817,-8.785 -4.539,-5.669 -5.954,-13.604 -3.688,-23.239 1.13,-4.532 3.11,-9.35 5.948,-13.889 2.552,-4.253 5.954,-8.493 9.921,-11.901 4.532,-3.968 9.35,-6.799 14.46,-9.064 5.383,-1.987 10.766,-3.117 16.434,-3.117 9.915,0 17.285,2.838 21.823,8.785 4.818,5.662 5.954,13.317 3.688,22.668 -1.136,5.104 -2.837,9.636 -5.389,13.889 -2.545,4.532 -5.668,8.22 -9.356,11.609 -4.532,4.26 -9.629,7.655 -15.019,9.643 -5.668,2.259 -11.051,3.401 -17.005,3.401"
   style="fill:#6157b7;fill-opacity:1"
   id="path8" />
		<path
   d="M 392.418,234.92 H 157.422 c -31.421,-0.857 -56.627,-26.622 -56.627,-58.246 0,-11.286 3.212,-21.823 8.766,-30.742 2.85,-4.926 6.392,-9.388 10.499,-13.267 -4.177,-14.644 -2.653,-30.894 5.567,-45.119 8.233,-14.27 21.588,-23.734 36.41,-27.416 3.625,-14.942 13.121,-28.431 27.485,-36.728 14.346,-8.284 30.748,-9.769 45.481,-5.453 C 245.604,6.887 260.527,0 277.056,0 c 16.44,0 31.281,6.805 41.875,17.754 14.701,-4.259 31.047,-2.755 45.348,5.503 14.314,8.265 23.791,21.684 27.441,36.556 14.847,3.669 28.247,13.14 36.492,27.422 8.252,14.308 9.757,30.653 5.497,45.348 6.538,6.246 11.629,13.997 14.708,22.699 2.615,6.614 4.056,13.838 4.056,21.392 0,32.164 -26.082,58.246 -58.246,58.246 z"
   style="fill:#faa61a"
   id="path10" />
		<path
   d="m 325.616,90.416 c 1.079,-2.171 2.298,-4.278 3.644,-6.31 -1.08,2.184 -2.305,4.298 -3.644,6.31 M 235.003,17.951 c -10.029,10.461 -16.193,24.661 -16.193,40.295 0,26.495 17.691,48.852 41.895,55.917 C 278.18,95.945 282.351,67.698 269.09,44.726 261.282,31.211 248.885,22.007 235.003,17.951 m -72.966,42.187 c 14.117,-3.504 29.555,-1.758 43.151,6.087 22.915,13.235 33.446,39.692 27.498,64.168 -24.572,6.113 -51.194,-4.405 -64.479,-27.422 -7.789,-13.488 -9.573,-28.799 -6.17,-42.833 m 231.454,172.82 c 15.679,0 29.904,-6.195 40.371,-16.263 -4.05,-13.914 -13.267,-26.349 -26.8,-34.156 -23.004,-13.279 -51.289,-9.096 -69.513,8.449 7.039,24.248 29.421,41.97 55.942,41.97 M 120.06,132.666 c 4.005,14.028 13.254,26.571 26.882,34.442 22.833,13.184 50.876,9.153 69.107,-8.074 -6.951,-24.388 -29.402,-42.25 -56.018,-42.25 -15.482,0 -29.536,6.043 -39.971,15.882 m 286.831,34.144 c 13.564,-7.827 22.781,-20.287 26.818,-34.22 -10.454,-9.991 -24.616,-16.123 -40.212,-16.123 -26.553,0 -48.94,17.754 -55.968,42.034 18.225,17.424 46.422,21.557 69.362,8.309 m -287.085,50.35 c 10.448,9.984 24.623,16.116 40.219,16.116 26.54,0 48.94,-17.748 55.961,-42.027 -18.224,-17.424 -46.42,-21.557 -69.361,-8.309 -13.559,7.832 -22.782,20.28 -26.819,34.22 M 385.594,102.826 c -13.272,22.991 -39.856,33.509 -64.396,27.435 -3.333,-13.514 -1.619,-27.657 4.424,-39.844 1.34,-2.012 2.552,-4.126 3.638,-6.31 4.817,-7.255 11.337,-13.527 19.392,-18.18 13.565,-7.833 28.978,-9.591 43.075,-6.106 3.452,14.072 1.688,29.459 -6.133,43.005 m -92.313,11.381 C 275.64,95.989 271.407,67.628 284.712,44.58 c 7.833,-13.559 20.28,-22.775 34.22,-26.819 10.131,10.48 16.371,24.756 16.371,40.485 0,9.287 -2.171,18.072 -6.043,25.86 -1.346,2.031 -2.564,4.139 -3.644,6.31 -7.529,11.356 -18.942,19.906 -32.335,23.791"
   style="fill:#ed1c24"
   id="path12" />
		<path
   d="m 232.68,130.394 c 5.167,-1.289 10.239,-3.307 15.076,-6.1 4.894,-2.825 9.223,-6.246 12.942,-10.131 5.187,1.517 10.671,2.33 16.352,2.33 5.631,0 11.07,-0.8 16.219,-2.292 3.682,3.802 7.947,7.167 12.752,9.94 4.869,2.812 9.966,4.837 15.165,6.125 1.282,5.218 3.319,10.34 6.138,15.228 2.851,4.919 6.291,9.268 10.207,13.006 -1.491,5.148 -2.291,10.588 -2.291,16.212 0,5.656 0.78,11.146 2.285,16.32 -11.908,10.397 -21.925,43.843 -60.887,43.888 -34.906,0 -48.909,-32.31 -60.658,-43.672 1.492,-5.142 2.285,-10.582 2.285,-16.212 0,-5.548 -0.768,-10.912 -2.222,-15.996 4.018,-3.79 7.554,-8.22 10.461,-13.248 2.85,-4.938 4.893,-10.124 6.176,-15.398"
   style="fill:#ffdd00"
   id="path14" />
		<path
   d="m 239.973,174.459 c 0,-20.243 16.415,-36.645 36.664,-36.645 20.242,0 36.657,16.402 36.657,36.645 0,20.243 -16.415,36.651 -36.657,36.651 -20.249,0 -36.664,-16.408 -36.664,-36.651"
   style="fill:#ffffff"
   id="path16" />
	</g>
</svg>
