<?xml version="1.0" encoding="UTF-8" standalone="no"?>
<!-- Generator: Adobe Illustrator 19.2.1, SVG Export Plug-In . SVG Version: 6.00 Build 0)  -->

<svg
   version="1.1"
   id="layer"
   x="0px"
   y="0px"
   viewBox="0 0 125.1 125.1"
   xml:space="preserve"
   width="125.1"
   height="125.1"
   sodipodi:docname="Spar.svg"
   inkscape:version="1.4.3 (0d15f75, 2025-12-25)"
   xmlns:inkscape="http://www.inkscape.org/namespaces/inkscape"
   xmlns:sodipodi="http://sodipodi.sourceforge.net/DTD/sodipodi-0.dtd"
   xmlns="http://www.w3.org/2000/svg"
   xmlns:svg="http://www.w3.org/2000/svg"><sodipodi:namedview
   id="namedview1"
   pagecolor="#ffffff"
   bordercolor="#000000"
   borderopacity="0.25"
   inkscape:showpageshadow="2"
   inkscape:pageopacity="0.0"
   inkscape:pagecheckerboard="0"
   inkscape:deskcolor="#d1d1d1"
   inkscape:zoom="2.1728128"
   inkscape:cx="-334.35922"
   inkscape:cy="100.10066"
   inkscape:window-width="3840"
   inkscape:window-height="2030"
   inkscape:window-x="2869"
   inkscape:window-y="-11"
   inkscape:window-maximized="1"
   inkscape:current-layer="layer" /><defs
   id="defs156" />
<style
   type="text/css"
   id="style133">
	.st0{fill:#00703A;}
	.st1{fill:#FFFFFF;}
	.st2{fill:#E3000F;}
</style>
<g
   id="g151"
   transform="translate(-495.6,-256.7)">
	<g
   id="g141">
		<g
   id="g139">
			<path
   class="st0"
   d="m 495.6,321.2 c 0,22.5 11.3,42.7 31.3,52.5 18.7,9.2 43.7,9.2 62.5,0 18.6,-9.1 31.3,-30 31.3,-52.5 0,-34.4 -27.6,-62.5 -62.6,-62.5 -35.1,0 -62.5,27.9 -62.5,62.5"
   id="path135" />
			<path
   class="st1"
   d="m 558.1,275 c -6.3,21.4 -25,52.6 -38.7,67.9 h 32.4 l 0.1,9.3 c -0.1,5.2 -4.3,10.8 -10.4,10.6 -8.4,-0.1 -19.1,-4 -25.5,-14.9 -4.7,-7.9 -8,-14.2 -8,-26.7 0,-27.3 22,-50.1 50,-50.1 27.7,0 50,23.3 50,50.1 0,12.5 -5.8,23.3 -7.8,26.4 -6.9,11.1 -17.2,15 -25.3,15.1 -5.5,0.1 -10.7,-4 -10.7,-10.7 v -9.3 h 33 c -14,-15.2 -32.8,-46.4 -39.1,-67.7"
   id="path137" />
		</g>
	</g>
	
	
	
	
</g>
</svg>
