<?xml version="1.0" encoding="UTF-8" standalone="no"?>
<svg
   version="1.2"
   viewBox="0 0 2.5611598 2.5611601"
   width="64"
   height="64"
   id="svg18"
   sodipodi:docname="TotalEnergies.svg"
   inkscape:version="1.4.3 (0d15f75, 2025-12-25)"
   xmlns:inkscape="http://www.inkscape.org/namespaces/inkscape"
   xmlns:sodipodi="http://sodipodi.sourceforge.net/DTD/sodipodi-0.dtd"
   xmlns="http://www.w3.org/2000/svg"
   xmlns:svg="http://www.w3.org/2000/svg"
   xmlns:rdf="http://www.w3.org/1999/02/22-rdf-syntax-ns#"
   xmlns:cc="http://creativecommons.org/ns#"
   xmlns:dc="http://purl.org/dc/elements/1.1/">
  <sodipodi:namedview
     id="namedview18"
     pagecolor="#ffffff"
     bordercolor="#000000"
     borderopacity="0.25"
     inkscape:showpageshadow="2"
     inkscape:pageopacity="0.0"
     inkscape:pagecheckerboard="0"
     inkscape:deskcolor="#d1d1d1"
     inkscape:zoom="26.159848"
     inkscape:cx="31.976486"
     inkscape:cy="32.741016"
     inkscape:window-width="3840"
     inkscape:window-height="2030"
     inkscape:window-x="2869"
     inkscape:window-y="-11"
     inkscape:window-maximized="1"
     inkscape:current-layer="svg18" />
  <title
     id="title1">TotalEnergies_logo-svg</title>
  <defs
     id="defs15">
    <linearGradient
       id="g1"
       x1="828.20001"
       y1="299.79999"
       x2="1242.5"
       y2="749.90002"
       gradientUnits="userSpaceOnUse">
      <stop
         offset="0"
         stop-color="#0186f5"
         id="stop1" />
      <stop
         offset=".1"
         stop-color="#0186f5"
         id="stop2" />
      <stop
         offset=".3"
         stop-color="#35c2b0"
         id="stop3" />
      <stop
         offset=".7"
         stop-color="#aad825"
         id="stop4" />
      <stop
         offset="1"
         stop-color="#fed700"
         id="stop5" />
    </linearGradient>
    <linearGradient
       id="g2"
       x1="493.70001"
       y1="714.20001"
       x2="497.10001"
       y2="431.70001"
       gradientUnits="userSpaceOnUse">
      <stop
         offset="0"
         stop-color="#ff7f00"
         id="stop6" />
      <stop
         offset="1"
         stop-color="#fe0201"
         id="stop7" />
    </linearGradient>
    <linearGradient
       id="g3"
       x1="911.20001"
       y1="125.1"
       x2="1368.8"
       y2="133.89999"
       gradientUnits="userSpaceOnUse">
      <stop
         offset="0"
         stop-color="#0186f5"
         id="stop8" />
      <stop
         offset=".2"
         stop-color="#0186f5"
         id="stop9" />
      <stop
         offset="1"
         stop-color="#3156fd"
         id="stop10" />
    </linearGradient>
    <linearGradient
       id="g4"
       x1="1438.8"
       y1="359"
       x2="1481"
       y2="275.79999"
       gradientUnits="userSpaceOnUse">
      <stop
         offset="0"
         stop-color="#8434d5"
         id="stop11" />
      <stop
         offset=".9"
         stop-color="#3156fd"
         id="stop12" />
      <stop
         offset="1"
         stop-color="#3156fd"
         id="stop13" />
    </linearGradient>
    <linearGradient
       id="g5"
       x1="1346"
       y1="379"
       x2="994.59998"
       y2="395.60001"
       gradientUnits="userSpaceOnUse">
      <stop
         offset="0"
         stop-color="#8434d5"
         id="stop14" />
      <stop
         offset="1"
         stop-color="#fe0201"
         id="stop15" />
    </linearGradient>
  </defs>
  <style
     id="style15">
		.s0 { fill: url(#g1) }
		.s1 { fill: url(#g2) }
		.s2 { fill: url(#g3) }
		.s3 { fill: url(#g4) }
		.s4 { fill: url(#g5) }
	</style>
  <g
     id="surface1"
     transform="matrix(0.00160534,0,0,0.00160534,9.4337277e-4,0.68176353)">
    <path
       id="Layer"
       class="s0"
       d="m 991.3,245.5 c -16.8,10.7 -103.5,68.8 -63.4,225.7 14,54.7 54.8,94.6 115.3,120.7 95.8,41.4 175.5,38.5 248.5,22.3 105,-23.3 108.4,-39 143.6,-18.4 36.1,21.1 33.5,69.2 16.7,94 -15.5,23 -86.7,47.6 -132.5,59.4 -129.9,33.6 -273.2,30.2 -387.1,-20 -79.8,-35.1 -146.9,-83.4 -179.9,-178.9 -24.3,-70.2 -55.8,-178.2 1,-295.8 27.6,-57.2 75.1,-109.5 124.7,-149 z"
       style="fill:url(#g1)" />
    <path
       id="path15"
       class="s1"
       d="M 984.8,476.7 C 953,474 562.5,432.6 562.5,432.6 c 0,0 32.9,169.2 47.3,231.8 C 635.2,774.1 499,782.2 482.3,730.7 439.6,599.4 401.9,493.3 387.6,465.2 340.9,372.8 148.4,393.3 78.5,373.8 -45,339.4 -19.2,138.5 135.4,149.3 c 80.5,5.6 332.2,58.4 546.4,96.3 138.4,24.6 270.6,38.6 315.8,44.6 z"
       style="fill:url(#g2)" />
    <path
       id="path16"
       class="s2"
       d="M 990.7,246.4 877.4,106 C 972.1,30.6 1090.9,5.8 1203.8,1 c 118.2,-5 196.9,18.1 253,46.3 73.9,37.3 139.8,102 137.8,222.3 l -216.7,-42.8 c -38.9,-25.9 -125.2,-38.7 -174.7,-40 -92,-2.4 -159.1,25.8 -212.5,59.6 z"
       style="fill:url(#g3)" />
    <path
       id="path17"
       class="s3"
       d="m 1594.6,267.3 c -1.6,92.9 -58.4,168.9 -187.3,203.4 l -56.6,-175.1 c 71.5,-11.8 63.7,-37.5 40.1,-59.1 -4.9,-4.6 -16.4,-11.9 -16.4,-11.9 z"
       style="fill:url(#g4)" />
    <path
       id="path18"
       class="s4"
       d="m 1409.4,470.1 c -53.1,14.2 -150,30.4 -425.6,6.6 l 12.8,-186.5 c 169.6,22.5 292.7,15.7 356.2,5.2 z"
       style="fill:url(#g5)" />
  </g>
  <metadata
     id="metadata18">
    <rdf:RDF>
      <cc:Work
         rdf:about="">
        <dc:title>TotalEnergies_logo-svg</dc:title>
      </cc:Work>
    </rdf:RDF>
  </metadata>
</svg>
