<?xml version="1.0" encoding="UTF-8" standalone="no"?>
<svg
   viewBox="0 0 461 461"
   xml:space="preserve"
   style="clip-rule:evenodd;fill-rule:evenodd;stroke-linejoin:round;stroke-miterlimit:2"
   version="1.1"
   id="svg9"
   sodipodi:docname="Logo_Vito.svg"
   width="461"
   height="461"
   inkscape:version="1.4.3 (0d15f75, 2025-12-25)"
   xmlns:inkscape="http://www.inkscape.org/namespaces/inkscape"
   xmlns:sodipodi="http://sodipodi.sourceforge.net/DTD/sodipodi-0.dtd"
   xmlns="http://www.w3.org/2000/svg"
   xmlns:svg="http://www.w3.org/2000/svg"><defs
   id="defs9" /><sodipodi:namedview
   id="namedview9"
   pagecolor="#ffffff"
   bordercolor="#000000"
   borderopacity="0.25"
   inkscape:showpageshadow="2"
   inkscape:pageopacity="0.0"
   inkscape:pagecheckerboard="0"
   inkscape:deskcolor="#d1d1d1"
   inkscape:zoom="1.773709"
   inkscape:cx="230.30835"
   inkscape:cy="178.43964"
   inkscape:window-width="3840"
   inkscape:window-height="2030"
   inkscape:window-x="2869"
   inkscape:window-y="-11"
   inkscape:window-maximized="1"
   inkscape:current-layer="svg9" />
    <path
   d="m 160.751,68.042 a 556.436,556.436 0 0 0 -30.3,14.63 c -0.873,0.453 -1.59,0.277 -2.15,-0.53 l -2.23,-3.2 c -0.58,-0.84 -0.463,-1.57 0.35,-2.19 1.393,-1.067 2.757,-1.907 4.09,-2.52 6.76,-3.107 13.507,-6.143 20.24,-9.11 7.22,-3.187 16.667,-6.137 28.34,-8.85 2.6,-0.6 5.36,-0.26 7.36,1.55 a 0.92,0.92 0 0 1 -0.137,1.467 0.886,0.886 0 0 1 -0.253,0.103 c -8.573,2.06 -17.01,4.943 -25.31,8.65 z m 20.02,14.27 a 4.11,4.11 0 0 0 0.36,1.76 1.072,1.072 0 0 1 -0.64,1.46 c -6.04,1.96 -13.37,3.74 -18.37,7.51 -3.49,2.64 -7.05,4.22 -10.87,5.83 -15.7,6.64 -31.9,13.22 -46.79,21.51 -12.46,6.94 -25.217,14.3 -38.27,22.08 -0.633,0.38 -0.793,0.237 -0.48,-0.43 4.973,-10.7 11.413,-20.68 19.32,-29.94 a 3.948,3.948 0 0 1 1.11,-0.9 c 20.673,-11.587 41.487,-21.65 62.44,-30.19 14.68,-5.987 28.813,-10.293 42.4,-12.92 6.24,-1.2 15.457,-2.76 27.65,-4.68 18.04,-2.84 35.23,-2.6 53.47,-0.87 0.493,0.047 0.743,0.317 0.75,0.81 0,0.253 -0.107,0.45 -0.32,0.59 -0.627,0.413 -1.3,0.627 -2.02,0.64 -3.173,0.08 -6.307,0.293 -9.4,0.64 -17.98,2.04 -32.133,4.28 -42.46,6.72 a 914.762,914.762 0 0 0 -37.32,9.65 c -0.367,0.107 -0.553,0.35 -0.56,0.73 z"
   style="fill:#009740;fill-rule:nonzero"
   id="path1" />
    <path
   d="m 175.761,116.152 0.09,0.27 c 0.013,0.04 0.04,0.053 0.08,0.04 10.76,-3.187 21.693,-6.413 32.8,-9.68 7.87,-2.32 16,-3.9 24.16,-6.3 1.127,-0.333 2.37,-0.55 3.73,-0.65 0.507,-0.04 0.913,0.123 1.22,0.49 a 0.702,0.702 0 0 1 -0.33,1.12 c -21.167,6.407 -43.517,13.533 -67.05,21.38 a 316.6,316.6 0 0 1 -8.7,2.76 124.142,124.142 0 0 0 -9.09,3.18 c -29.56,11.67 -59.62,26.98 -85.87,43.27 -5.28,3.273 -10.647,7.14 -16.1,11.6 -0.453,0.367 -0.57,0.277 -0.35,-0.27 4.22,-10.59 7.56,-21.99 12.91,-31.58 0.35,-0.64 1.07,-1.35 1.72,-1.69 27,-14.6 53.857,-27.547 80.57,-38.84 8.81,-3.73 17.9,-6.87 26.88,-10.26 3.59,-1.36 7.53,-0.98 11.3,-2.06 a 1396.053,1396.053 0 0 1 54.71,-14.47 172.785,172.785 0 0 1 27.25,-4.36 c 1.79,-0.14 3.46,0.15 5.2,-0.15 8.84,-1.527 17.12,-2.273 24.84,-2.24 3.84,0.02 8.69,0.98 10.27,5 a 0.9,0.9 0 0 1 -0.81,1.22 c -9.627,0.327 -18.853,0.927 -27.68,1.8 -4.213,0.413 -12.9,2.167 -26.06,5.26 -2.37,0.55 -3.82,3.36 -5.96,3.73 -5.28,0.927 -9.75,1.927 -13.41,3 a 1161.654,1161.654 0 0 0 -56.15,18.08 c -0.167,0.06 -0.223,0.177 -0.17,0.35 z"
   style="fill:#009740;fill-rule:nonzero"
   id="path2" />
    <path
   d="m 130.021,173.992 c -0.06,0.04 -0.077,0.07 -0.05,0.09 l 0.28,0.22 c 0.053,0.04 0.113,0.05 0.18,0.03 a 2239.128,2239.128 0 0 1 57.36,-20.48 c 48.173,-16.473 98.567,-29.197 151.18,-38.17 1.407,-0.24 2.553,0.197 3.44,1.31 l 0.16,0.21 c 0.92,1.167 0.66,1.923 -0.78,2.27 a 4744.047,4744.047 0 0 0 -94.79,23.93 c -0.99,0.26 -1.47,0.73 -1.7,1.7 a 0.843,0.843 0 0 1 -0.66,0.66 c -23.7,5.82 -47.49,13.617 -71.37,23.39 -14.467,5.927 -29.803,12.5 -46.01,19.72 a 529.004,529.004 0 0 0 -18.08,8.45 c -29.313,14.427 -56.26,29.53 -80.84,45.31 -8.987,5.773 -18.29,13.333 -27.91,22.68 -0.387,0.373 -0.513,0.3 -0.38,-0.22 2.46,-9.25 4.09,-16.6 12.24,-22.79 8.827,-6.693 19.877,-13.387 33.15,-20.08 0.387,-0.201 0.65,-0.584 0.7,-1.02 l 2.91,-27.49 c 0.06,-0.62 0.337,-1.117 0.83,-1.49 31.17,-23.88 65.22,-44.43 101.78,-58.61 21.513,-8.347 42.463,-15.49 62.85,-21.43 a 351.819,351.819 0 0 1 18.74,-4.91 c 5.507,-1.28 11.96,-2.497 19.36,-3.65 7.72,-1.2 15.503,-2.393 23.35,-3.58 a 677.693,677.693 0 0 1 52.84,-5.88 3.279,3.279 0 0 1 2.92,1.4 l 0.39,0.55 c 0.687,0.987 0.44,1.593 -0.74,1.82 -16.55,3.25 -33.19,6.22 -49.4,10.58 a 0.823,0.823 0 0 0 -0.61,0.78 c -0.013,0.447 -0.13,0.87 -0.35,1.27 -0.18,0.32 -0.45,0.523 -0.81,0.61 a 1569.07,1569.07 0 0 0 -24.49,5.76 43.52,43.52 0 0 0 -5.68,1.83 c -0.447,0.173 -0.64,0.497 -0.58,0.97 l 0.21,1.69 c 0.04,0.32 -0.093,0.53 -0.4,0.63 l -50.79,17.21 a 0.799,0.799 0 0 0 -0.43,1.16 l 0.91,1.51 c 0.28,0.46 0.163,0.783 -0.35,0.97 -23.74,8.48 -46.77,18.75 -68.58,31.09 z"
   style="fill:#009740;fill-rule:nonzero"
   id="path3" />
    <ellipse
   rx="2.4100001"
   ry="1.3099999"
   style="fill:#009740"
   transform="rotate(7.7)"
   id="ellipse3"
   cx="262.2088"
   cy="61.745987" />
    <path
   d="m 383.711,109.952 0.11,-0.28 c 0.047,-0.14 0,-0.213 -0.14,-0.22 l -37.16,-1.33 a 2.702,2.702 0 0 1 -1.81,-0.79 l -7.85,-7.86 a 0.52,0.52 0 0 1 0.31,-0.88 c 2.553,-0.24 5.113,-0.33 7.68,-0.27 19.627,0.473 39.457,2.44 59.49,5.9 4.61,0.79 12.97,2.89 14.9,6.95 a 0.637,0.637 0 0 1 -0.43,0.89 833.989,833.989 0 0 1 -52.11,9.36 c -2.507,0.373 -5.067,0.693 -7.68,0.96 a 2.904,2.904 0 0 1 -2.51,-1.02 l -4.9,-5.87 c -0.713,-0.853 -0.52,-1.347 0.58,-1.48 l 31.2,-3.79 c 0.16,-0.02 0.267,-0.11 0.32,-0.27 z"
   style="fill:#009740;fill-rule:nonzero"
   id="path4" />
    <path
   d="m 391.121,130.532 -0.12,0.35 a 0.18,0.18 0 0 0 -0.008,0.039 0.195,0.195 0 0 0 0.164,0.221 0.162,0.162 0 0 0 0.044,0 l 33.13,-3.61 c 0.7,-0.073 1.133,0.23 1.3,0.91 l 0.06,0.25 c 0.1,0.387 -0.05,0.61 -0.45,0.67 l -32.34,5.28 a 0.36,0.36 0 0 0 -0.28,0.48 l 0.13,0.35 c 0.133,0.353 0.387,0.513 0.76,0.48 l 33.21,-2.68 c 0.42,-0.033 0.673,0.153 0.76,0.56 l 0.07,0.34 c 0.127,0.58 -0.103,0.923 -0.69,1.03 l -31.91,5.77 c -0.16,0.027 -0.213,0.117 -0.16,0.27 l 0.1,0.29 c 0.127,0.36 0.383,0.523 0.77,0.49 l 33.23,-2.94 a 0.542,0.542 0 0 1 0.54,0.33 l 0.14,0.36 a 0.703,0.703 0 0 1 -0.51,0.95 l -31.83,6.51 c -0.227,0.047 -0.317,0.18 -0.27,0.4 l 0.07,0.35 c 0.06,0.293 0.24,0.423 0.54,0.39 l 33.1,-3.21 c 0.413,-0.04 0.677,0.137 0.79,0.53 l 0.11,0.4 0.005,0.018 a 0.498,0.498 0 0 1 -0.365,0.598 l -0.02,0.004 -31.77,6.33 c -0.26,0.053 -0.357,0.207 -0.29,0.46 l 0.11,0.44 c 0.06,0.22 0.203,0.317 0.43,0.29 l 32.57,-3.98 c 0.52,-0.067 0.857,0.15 1.01,0.65 l 0.08,0.24 a 0.482,0.482 0 0 1 -0.36,0.61 l -32.15,6.56 a 0.492,0.492 0 0 0 -0.34,0.71 l 0.15,0.29 c 0.213,0.407 0.55,0.583 1.01,0.53 l 32.77,-3.82 a 0.601,0.601 0 0 1 0.61,0.33 l 0.2,0.4 a 0.637,0.637 0 0 1 -0.44,0.91 l -31.73,6.88 a 0.372,0.372 0 0 0 -0.28,0.44 l 0.07,0.28 a 0.794,0.794 0 0 0 0.86,0.61 l 32.9,-3.86 a 0.557,0.557 0 0 1 0.58,0.35 l 0.12,0.27 a 0.762,0.762 0 0 1 -0.54,1.03 l -31.59,6.66 c -0.32,0.067 -0.397,0.24 -0.23,0.52 l 0.2,0.33 c 0.247,0.42 0.613,0.6 1.1,0.54 l 32.45,-3.76 c 0.24,-0.027 0.377,0.077 0.41,0.31 l 0.06,0.35 c 0.06,0.38 -0.1,0.61 -0.48,0.69 l -31.57,6.71 a 0.472,0.472 0 0 0 -0.3,0.7 l 0.2,0.33 c 0.213,0.367 0.53,0.523 0.95,0.47 l 32.42,-3.99 a 0.662,0.662 0 0 1 0.71,0.43 l 0.12,0.33 c 0.093,0.253 0.007,0.41 -0.26,0.47 l -31.73,6.81 c -0.016,0.004 -0.033,0.008 -0.049,0.014 a 0.567,0.567 0 0 0 -0.351,0.756 l 0.14,0.33 a 0.371,0.371 0 0 0 0.38,0.22 l 33.24,-3.77 a 0.427,0.427 0 0 1 0.47,0.35 l 0.05,0.32 a 0.834,0.834 0 0 1 -0.64,0.95 l -31.03,7.11 a 0.467,0.467 0 0 0 -0.36,0.52 l 0.05,0.33 c 0.073,0.5 0.36,0.723 0.86,0.67 l 33.11,-3.44 c 0.213,-0.027 0.317,0.07 0.31,0.29 l -0.01,0.25 c -0.013,0.44 -0.24,0.707 -0.68,0.8 l -31.2,6.43 a 0.583,0.583 0 0 0 -0.45,0.67 l 0.05,0.29 c 0.113,0.607 0.473,0.873 1.08,0.8 l 32.46,-3.67 a 0.572,0.572 0 0 1 0.62,0.43 l 0.09,0.35 0.001,0.005 a 0.356,0.356 0 0 1 -0.268,0.424 l -0.003,10e-4 -31.12,6.57 c -0.567,0.12 -0.803,0.467 -0.71,1.04 l 0.05,0.32 c 0.05,0.298 0.334,0.507 0.64,0.47 l 32.27,-4.15 c 0.513,-0.067 0.867,0.14 1.06,0.62 l 0.09,0.24 a 0.431,0.431 0 0 1 -0.31,0.59 l -31.23,6.92 c -0.413,0.087 -0.637,0.34 -0.67,0.76 -0.04,0.487 0.27,0.857 0.93,1.11 0.197,0.079 0.411,0.103 0.62,0.07 l 32,-4.57 c 0.373,-0.053 0.577,0.107 0.61,0.48 l 0.04,0.35 a 0.908,0.908 0 0 1 -0.7,0.97 l -31.1,7.19 -0.022,0.006 a 0.517,0.517 0 0 0 -0.358,0.654 l 0.12,0.34 c 0.18,0.56 0.56,0.803 1.14,0.73 l 32.09,-4.16 c 0.443,-0.055 0.872,0.191 1.05,0.6 l 0.14,0.31 a 0.39,0.39 0 0 1 -0.27,0.53 l -31.54,7.13 a 0.687,0.687 0 0 0 -0.52,0.77 l 0.05,0.36 a 0.29,0.29 0 0 0 0.33,0.25 l 33.14,-4.72 0.01,-0.002 a 0.529,0.529 0 0 1 0.589,0.453 l 0.001,0.009 0.04,0.37 c 0.073,0.633 -0.203,1.027 -0.83,1.18 l -31.07,7.41 a 0.522,0.522 0 0 0 -0.39,0.59 l 0.06,0.31 a 0.733,0.733 0 0 0 0.81,0.6 l 33.25,-4.23 c 0.313,-0.04 0.467,0.097 0.46,0.41 v 0.32 c -0.007,0.573 -0.29,0.923 -0.85,1.05 l -31.51,7.16 a 0.321,0.321 0 0 0 -0.21,0.47 l 0.14,0.24 c 0.279,0.479 0.82,0.747 1.37,0.68 l 31.9,-4.03 c 0.56,-0.073 0.947,0.153 1.16,0.68 l 0.15,0.36 0.014,0.041 a 0.467,0.467 0 0 1 -0.354,0.589 c -43.913,8.287 -86.027,18.187 -126.34,29.7 -24.207,6.92 -50.243,15.377 -78.11,25.37 a 498.388,498.388 0 0 0 -18.45,7.04 c -30.21,12.21 -58.69,23.74 -87.76,38.03 a 186644.17,186644.17 0 0 0 -94.91,46.71 c -0.527,0.26 -0.963,0.153 -1.31,-0.32 l -0.24,-0.34 a 0.564,0.564 0 0 1 0.14,-0.79 l 27.55,-18.56 c 0.387,-0.26 0.497,-0.607 0.33,-1.04 l -0.1,-0.27 -0.006,-0.015 a 0.418,0.418 0 0 0 -0.564,-0.215 l -29.26,14.67 c -0.447,0.227 -0.82,0.137 -1.12,-0.27 l -0.17,-0.22 a 0.5,0.5 0 0 1 0.13,-0.71 l 27.96,-18.48 a 0.472,0.472 0 0 0 0.14,-0.64 l -0.13,-0.23 c -0.253,-0.4 -0.59,-0.497 -1.01,-0.29 l -29.68,14.57 c -0.247,0.12 -0.4,0.043 -0.46,-0.23 l -0.06,-0.27 a 0.99,0.99 0 0 1 0.41,-1.01 l 27.47,-18.72 a 0.567,0.567 0 0 0 0.24,-0.6 l -0.08,-0.3 a 0.522,0.522 0 0 0 -0.75,-0.34 l -29.48,15.7 a 0.425,0.425 0 0 1 -0.049,0.021 0.307,0.307 0 0 1 -0.391,-0.251 l -0.05,-0.31 c -0.06,-0.453 0.097,-0.81 0.47,-1.07 l 27.3,-18.98 a 0.41,0.41 0 0 0 0.1,-0.59 l -0.19,-0.26 c -0.24,-0.327 -0.54,-0.397 -0.9,-0.21 l -29.19,15.11 a 0.35,0.35 0 0 1 -0.48,-0.17 l -0.12,-0.29 c -0.18,-0.407 -0.083,-0.737 0.29,-0.99 l 27.52,-18.59 a 0.55,0.55 0 0 0 0.13,-0.78 l -0.24,-0.31 c -0.287,-0.387 -0.64,-0.463 -1.06,-0.23 l -28.48,15.7 a 0.673,0.673 0 0 1 -0.83,-0.14 l -0.21,-0.24 c -0.387,-0.433 -0.34,-0.813 0.14,-1.14 l 27.64,-18.9 a 0.488,0.488 0 0 0 0.12,-0.688 l -0.01,-0.012 -0.2,-0.25 c -0.32,-0.393 -0.7,-0.467 -1.14,-0.22 l -28.59,16.24 -0.018,0.009 a 0.317,0.317 0 0 1 -0.422,-0.144 l -0.01,-0.025 -0.12,-0.31 c -0.147,-0.407 -0.047,-0.737 0.3,-0.99 l 27.37,-19.53 a 0.44,0.44 0 0 0 0.09,-0.62 l -0.21,-0.28 c -0.26,-0.34 -0.58,-0.407 -0.96,-0.2 l -28.92,15.87 a 0.3,0.3 0 0 1 -0.42,-0.14 l -0.11,-0.23 a 0.672,0.672 0 0 1 0.23,-0.83 l 27.31,-18.93 a 0.667,0.667 0 0 0 0.23,-0.82 l -0.13,-0.29 c -0.233,-0.527 -0.6,-0.653 -1.1,-0.38 l -28.83,15.5 a 0.48,0.48 0 0 1 -0.67,-0.25 l -0.13,-0.35 c -0.187,-0.5 -0.057,-0.897 0.39,-1.19 l 27.31,-18.14 a 0.667,0.667 0 0 0 0.23,-0.85 l -0.13,-0.29 c -0.26,-0.527 -0.647,-0.647 -1.16,-0.36 l -28.5,15.75 a 0.528,0.528 0 0 1 -0.723,-0.216 l -0.007,-0.014 -0.14,-0.26 a 0.903,0.903 0 0 1 0.32,-1.15 l 27.18,-17.73 c 0.433,-0.28 0.607,-0.677 0.52,-1.19 l -0.04,-0.29 a 0.457,0.457 0 0 0 -0.66,-0.32 l -28.65,15 c -0.573,0.3 -1.087,0.22 -1.54,-0.24 l -0.21,-0.21 -0.032,-0.037 a 0.538,0.538 0 0 1 0.08,-0.753 c 0.013,-0.01 0.027,-0.021 0.042,-0.03 l 27.97,-18 c 0.347,-0.22 0.447,-0.523 0.3,-0.91 l -0.13,-0.36 -0.007,-0.016 a 0.417,0.417 0 0 0 -0.548,-0.211 l -0.015,0.007 -29.2,15.08 c -0.453,0.233 -0.817,0.133 -1.09,-0.3 l -0.18,-0.3 a 0.522,0.522 0 0 1 0.16,-0.71 l 28.06,-18.15 0.02,-0.013 a 0.708,0.708 0 0 0 0.182,-0.98 l -0.012,-0.017 -0.21,-0.3 c -0.147,-0.207 -0.333,-0.25 -0.56,-0.13 l -28.94,15.39 c -0.54,0.287 -0.96,0.163 -1.26,-0.37 l -0.15,-0.26 a 0.623,0.623 0 0 1 0.2,-0.83 l 27.8,-18.44 c 0.347,-0.227 0.417,-0.517 0.21,-0.87 l -0.14,-0.24 a 0.33,0.33 0 0 0 -0.45,-0.13 l -29.57,15.6 c -0.373,0.2 -0.567,0.087 -0.58,-0.34 l -0.01,-0.39 a 0.869,0.869 0 0 1 0.39,-0.76 l 27.3,-18.24 c 0.427,-0.287 0.537,-0.663 0.33,-1.13 l -0.13,-0.29 -0.006,-0.014 a 0.398,0.398 0 0 0 -0.544,-0.166 l -28.98,15.87 c -0.447,0.24 -0.747,0.12 -0.9,-0.36 l -0.12,-0.4 a 0.617,0.617 0 0 1 0.24,-0.71 l 27.33,-18.42 c 0.413,-0.28 0.56,-0.663 0.44,-1.15 l -0.09,-0.34 c -0.107,-0.413 -0.343,-0.517 -0.71,-0.31 l -29.13,16.41 -0.01,0.005 a 0.357,0.357 0 0 1 -0.477,-0.158 l -0.003,-0.007 -0.14,-0.31 c -0.18,-0.393 -0.09,-0.71 0.27,-0.95 l 27.7,-18.24 c 0.273,-0.173 0.363,-0.417 0.27,-0.73 l -0.08,-0.26 c -0.153,-0.527 -0.473,-0.66 -0.96,-0.4 l -29.01,15.61 c -0.26,0.133 -0.487,0.093 -0.68,-0.12 l -0.2,-0.23 a 0.51,0.51 0 0 1 0.1,-0.77 l 28.23,-18.42 a 0.367,0.367 0 0 0 0.13,-0.49 l -0.13,-0.22 c -0.26,-0.467 -0.627,-0.573 -1.1,-0.32 l -28.5,15.24 c -0.347,0.18 -0.673,0.15 -0.98,-0.09 l -0.29,-0.23 a 0.321,0.321 0 0 1 0.02,-0.51 c 7.573,-5.24 18.79,-12.53 33.65,-21.87 49.207,-30.927 98.22,-56.053 147.04,-75.38 a 353.199,353.199 0 0 1 18.86,-6.88 c 29.14,-9.68 57.67,-18.103 85.59,-25.27 43.133,-11.067 87.49,-19.46 133.07,-25.18 0.353,-0.04 0.487,0.11 0.4,0.45 l -0.08,0.33 a 0.763,0.763 0 0 1 -0.62,0.61 l -31.13,6.77 a 0.625,0.625 0 0 0 -0.46,0.4 z m -18.72,99.07 c 9.42,-4.173 13.263,-11.627 11.53,-22.36 a 5966.248,5966.248 0 0 1 -5.98,-37.89 31.16,31.16 0 0 0 -2.35,-8.02 c -3.84,-8.56 -12.76,-10.1 -21.02,-8.07 -16.52,4.04 -33.25,8.137 -50.19,12.29 -10.76,2.63 -16.97,10.06 -15.12,21.46 a 12329.19,12329.19 0 0 1 7.31,45.4 c 1.77,11.11 13.31,13.28 22.74,10.93 15.82,-3.94 32.57,-8.19 50.25,-12.75 a 18.275,18.275 0 0 0 2.83,-0.99 z m -143.97,-24.93 14.06,64.67 0.004,0.018 a 0.306,0.306 0 0 0 0.378,0.207 l 0.018,-0.005 16.5,-5.67 a 0.557,0.557 0 0 0 0.36,-0.64 l -13,-65.07 c -0.06,-0.327 0.067,-0.54 0.38,-0.64 7.867,-2.52 16.303,-5.24 25.31,-8.16 3.35,-1.08 5.29,-3.82 4.68,-7.45 a 143.516,143.516 0 0 1 -1.12,-7.88 0.437,0.437 0 0 0 -0.57,-0.36 l -80.96,26.97 c -0.38,0.127 -0.517,0.38 -0.41,0.76 0.667,2.5 1.263,4.957 1.79,7.37 0.8,3.667 3.07,4.893 6.81,3.68 a 2316.88,2316.88 0 0 0 24.89,-8.3 0.682,0.682 0 0 1 0.88,0.5 z m -46.79,18.58 a 0.422,0.422 0 0 0 0.26,-0.5 l -3.76,-14.56 a 0.42,0.42 0 0 0 -0.56,-0.29 l -17.59,6.78 a 0.42,0.42 0 0 0 -0.26,0.49 l 3.51,14.12 a 0.421,0.421 0 0 0 0.55,0.3 z m -59.72,83.78 a 0.95,0.95 0 0 1 -1.415,0.688 0.931,0.931 0 0 1 -0.275,-0.248 l -39.77,-53 a 0.698,0.698 0 0 0 -0.91,-0.18 l -17.06,10.01 c -0.32,0.187 -0.367,0.427 -0.14,0.72 a 16302.319,16302.319 0 0 0 40.36,52.83 c 2.46,3.21 6.72,6.48 10.95,6.68 5.77,0.28 13.42,-4.69 18.21,-8.23 5.47,-4.04 8.53,-9.88 8.5,-16.63 -0.133,-26.073 -0.343,-50.977 -0.63,-74.71 a 0.462,0.462 0 0 0 -0.005,-0.065 0.357,0.357 0 0 0 -0.475,-0.265 c -4.54,1.687 -8.73,3.463 -12.57,5.33 -5.28,2.57 -6,7.12 -5.9,12.51 0.4,20.62 0.833,41.21 1.3,61.77 0.02,0.92 -0.037,1.85 -0.17,2.79 z m 62.04,-75.09 -18.49,6.27 a 0.578,0.578 0 0 0 -0.37,0.69 2545.316,2545.316 0 0 1 9.98,38.21 c 0.767,3.047 1.687,5.4 2.76,7.06 4.51,7.01 13.05,7.56 20.62,4.27 0.233,-0.1 0.32,-0.273 0.26,-0.52 l -14.23,-55.69 a 0.41,0.41 0 0 0 -0.53,-0.29 z"
   style="fill:#db121c;fill-rule:nonzero"
   id="path5" />
    <path
   d="m 372.401,229.602 c -0.912,0.406 -1.858,0.737 -2.83,0.99 -17.68,4.56 -34.43,8.81 -50.25,12.75 -9.43,2.35 -20.97,0.18 -22.74,-10.93 a 12329.19,12329.19 0 0 0 -7.31,-45.4 c -1.85,-11.4 4.36,-18.83 15.12,-21.46 16.94,-4.153 33.67,-8.25 50.19,-12.29 8.26,-2.03 17.18,-0.49 21.02,8.07 a 31.16,31.16 0 0 1 2.35,8.02 5966.248,5966.248 0 0 0 5.98,37.89 c 1.733,10.733 -2.11,18.187 -11.53,22.36 z m -58.76,-53.22 c -5.87,1.79 -4.67,6.04 -3.83,11.58 a 4282.096,4282.096 0 0 1 5.06,34.02 c 0.687,4.78 3.7,6.533 9.04,5.26 9.22,-2.207 19.94,-4.73 32.16,-7.57 4.54,-1.05 8.62,-2.97 9.2,-7.87 0.113,-0.913 -0.213,-3.793 -0.98,-8.64 -1.56,-9.867 -3.14,-19.723 -4.74,-29.57 -1.15,-7.07 -5.51,-7.02 -11.46,-5.65 -18.3,4.2 -29.783,7.013 -34.45,8.44 z"
   style="fill:#ffffff;fill-rule:nonzero"
   id="path6" />
    <path
   d="m 313.641,176.382 c 4.667,-1.427 16.15,-4.24 34.45,-8.44 5.95,-1.37 10.31,-1.42 11.46,5.65 1.6,9.847 3.18,19.703 4.74,29.57 0.767,4.847 1.093,7.727 0.98,8.64 -0.58,4.9 -4.66,6.82 -9.2,7.87 -12.22,2.84 -22.94,5.363 -32.16,7.57 -5.34,1.273 -8.353,-0.48 -9.04,-5.26 a 4282.096,4282.096 0 0 0 -5.06,-34.02 c -0.84,-5.54 -2.04,-9.79 3.83,-11.58 z"
   style="fill:#db121c;fill-rule:nonzero"
   id="path7" />
    <path
   d="m 228.431,204.672 a 0.682,0.682 0 0 0 -0.88,-0.5 2316.88,2316.88 0 0 1 -24.89,8.3 c -3.74,1.213 -6.01,-0.013 -6.81,-3.68 a 165.988,165.988 0 0 0 -1.79,-7.37 c -0.107,-0.38 0.03,-0.633 0.41,-0.76 l 80.96,-26.97 a 0.437,0.437 0 0 1 0.57,0.36 c 0.293,2.587 0.667,5.213 1.12,7.88 0.61,3.63 -1.33,6.37 -4.68,7.45 -9.007,2.92 -17.443,5.64 -25.31,8.16 -0.313,0.1 -0.44,0.313 -0.38,0.64 l 13,65.07 a 0.557,0.557 0 0 1 -0.36,0.64 l -16.5,5.67 -0.018,0.005 a 0.306,0.306 0 0 1 -0.378,-0.207 l -0.004,-0.018 z m -46.79,18.58 -17.85,6.34 a 0.422,0.422 0 0 1 -0.55,-0.3 l -3.51,-14.12 a 0.42,0.42 0 0 1 0.26,-0.49 l 17.59,-6.78 a 0.419,0.419 0 0 1 0.56,0.29 l 3.76,14.56 a 0.422,0.422 0 0 1 -0.26,0.5 z m -59.72,83.78 c 0.133,-0.94 0.19,-1.87 0.17,-2.79 -0.467,-20.56 -0.9,-41.15 -1.3,-61.77 -0.1,-5.39 0.62,-9.94 5.9,-12.51 3.84,-1.867 8.03,-3.643 12.57,-5.33 a 0.357,0.357 0 0 1 0.475,0.265 0.462,0.462 0 0 1 0.005,0.065 c 0.287,23.733 0.497,48.637 0.63,74.71 0.03,6.75 -3.03,12.59 -8.5,16.63 -4.79,3.54 -12.44,8.51 -18.21,8.23 -4.23,-0.2 -8.49,-3.47 -10.95,-6.68 a 16302.319,16302.319 0 0 1 -40.36,-52.83 c -0.227,-0.293 -0.18,-0.533 0.14,-0.72 l 17.06,-10.01 a 0.698,0.698 0 0 1 0.91,0.18 l 39.77,53 c 0.074,0.1 0.168,0.185 0.275,0.248 a 0.95,0.95 0 0 0 1.415,-0.688 z m 43.55,-68.82 18.49,-6.27 a 0.41,0.41 0 0 1 0.53,0.29 l 14.23,55.69 c 0.06,0.247 -0.027,0.42 -0.26,0.52 -7.57,3.29 -16.11,2.74 -20.62,-4.27 -1.073,-1.66 -1.993,-4.013 -2.76,-7.06 a 2545.316,2545.316 0 0 0 -9.98,-38.21 0.578,0.578 0 0 1 0.37,-0.69 z"
   style="fill:#ffffff;fill-rule:nonzero"
   id="path8" />
    <path
   d="m 269.971,403.452 c -4.787,0.22 -9.307,0.707 -13.56,1.46 -2.107,0.373 -2.26,-0.02 -0.46,-1.18 1.627,-1.053 3.177,-1.883 4.65,-2.49 12.993,-5.353 27.653,-11.257 43.98,-17.71 0.96,-0.387 1.38,-1.063 1.26,-2.03 -0.047,-0.393 -0.27,-0.587 -0.67,-0.58 -1.52,0.033 -3.003,0.34 -4.45,0.92 a 3901.636,3901.636 0 0 0 -70.64,29.34 c -3.22,1.38 -6.81,1.13 -10.04,0 -0.393,-0.14 -0.46,-0.37 -0.2,-0.69 a 11.422,11.422 0 0 1 3.02,-2.61 c 6.987,-4.18 14.32,-8.01 22,-11.49 5.4,-2.44 7.6,-8.37 12.87,-11.1 4.15,-2.14 9.83,-3.21 12.68,-5.2 a 381.49,381.49 0 0 1 7.79,-5.3 8.063,8.063 0 0 1 3,-1.21 c 4.06,-0.8 8.12,-2.05 11.75,-4.06 4.967,-2.753 8.487,-4.427 10.56,-5.02 5.78,-1.647 11.587,-3.277 17.42,-4.89 1.38,-0.38 1.37,-0.73 -0.03,-1.05 a 11.343,11.343 0 0 0 -3.92,-0.18 c -4.607,0.593 -8.95,1.56 -13.03,2.9 -28.353,9.32 -62.263,21.653 -101.73,37 -5.413,2.107 -9.66,4.35 -12.74,6.73 -1.91,1.47 -4.08,1.86 -6.19,0.51 a 1.7,1.7 0 0 1 -0.39,-2.5 c 3.4,-4.153 7.37,-6.75 11.91,-7.79 4.08,-0.933 7.107,-2.94 9.08,-6.02 a 6.893,6.893 0 0 1 2.47,-2.33 c 10.43,-5.78 21.93,-10.13 33.09,-14.5 7.567,-2.967 14.787,-5.23 21.66,-6.79 0.093,-0.02 0.13,-0.08 0.11,-0.18 l -0.07,-0.33 c -0.047,-0.227 -0.183,-0.313 -0.41,-0.26 -4.66,1.127 -9.587,2.073 -14.78,2.84 -1.16,0.173 -2.223,0.043 -3.19,-0.39 -0.207,-0.093 -0.297,-0.257 -0.27,-0.49 0.073,-0.767 0.473,-1.28 1.2,-1.54 4.913,-1.733 10.883,-4.08 17.91,-7.04 11.413,-4.807 24.853,-10.033 40.32,-15.68 13.933,-5.093 26.403,-8.943 37.41,-11.55 a 35.064,35.064 0 0 0 8.93,-3.47 c 1.233,-0.68 1.157,-1.133 -0.23,-1.36 -1.033,-0.173 -2.14,-0.13 -3.32,0.13 a 251.62,251.62 0 0 0 -13.04,3.26 77030.169,77030.169 0 0 0 -67.82,18.92 c -1.93,0.54 -4.04,0.87 -6.02,0.62 -2.83,-0.36 -6.02,-0.21 -8.48,1.41 -3.78,2.487 -8.403,4.503 -13.87,6.05 -10.03,2.85 -18.89,6.8 -28.16,10.99 a 55.482,55.482 0 0 1 -13.42,4.12 c -2.18,0.38 -4.137,1.017 -5.87,1.91 a 126.194,126.194 0 0 1 -12.43,5.57 c -2.98,1.16 -4.94,3.68 -7.75,5.13 a 139.658,139.658 0 0 0 -13.13,7.75 c -4.05,2.7 -7.27,-0.63 -4.97,-4.53 3.19,-5.4 7.28,-6.14 12.51,-8.64 8.98,-4.28 16.79,-8.57 24.43,-13.81 2.14,-1.467 4.583,-2.817 7.33,-4.05 13.84,-6.213 24.893,-10.78 33.16,-13.7 a 12607.208,12607.208 0 0 1 64.77,-22.66 c 0.32,-0.113 0.64,-0.22 0.96,-0.32 1.653,-0.527 2.193,-1.6 1.62,-3.22 a 1.486,1.486 0 0 1 0.86,-1.87 c 2.34,-0.927 4.547,-1.657 6.62,-2.19 a 5871.782,5871.782 0 0 1 35.27,-9.02 26.644,26.644 0 0 0 5.41,-2.01 c 1.707,-0.867 1.603,-1.277 -0.31,-1.23 -3.8,0.093 -8.033,0.59 -12.7,1.49 -13.18,2.54 -26.46,5.56 -39.76,9.62 -22.473,6.867 -44.54,13.18 -66.2,18.94 -3.94,1.05 -7.9,2.53 -11.72,4.04 a 3192.22,3192.22 0 0 1 -20.84,8.21 c -3.64,1.42 -7.53,1.82 -11.08,3.44 -3.64,1.66 -10.01,5.33 -13.76,4.49 a 2.556,2.556 0 0 0 -2.04,0.41 75.878,75.878 0 0 1 -11.22,6.61 c -2.033,0.967 -4.027,0.893 -5.98,-0.22 -0.38,-0.22 -0.773,-0.417 -1.18,-0.59 -1.933,-0.807 -1.963,-1.673 -0.09,-2.6 20.03,-9.98 40.47,-19.07 60.83,-28.37 8.8,-4.02 17.71,-8.91 26.87,-12.51 a 4165.87,4165.87 0 0 1 48.18,-18.57 c 7.12,-2.687 13.667,-4.917 19.64,-6.69 34.25,-10.14 68.75,-19.65 103.48,-28.74 1.087,-0.28 1.793,-0.957 2.12,-2.03 0.033,-0.107 0.057,-0.217 0.07,-0.33 0.087,-1.027 -0.377,-1.44 -1.39,-1.24 -109.57,22.21 -215.39,65.55 -312.4,121.32 -1.28,0.733 -1.18,1.087 0.3,1.06 11.1,-0.193 22.573,-0.973 34.42,-2.34 a 20.05,20.05 0 0 0 3.54,-0.75 c 4.24,-1.29 9.36,6.07 11.06,9.06 a 1.06,1.06 0 0 1 -0.71,1.56 c -10.2,2.16 -21.577,3.847 -34.13,5.06 a 89.408,89.408 0 0 1 -16.46,0.1 728.98,728.98 0 0 1 -29.91,-3.19 0.321,0.321 0 0 1 -0.13,-0.58 c 62.19,-40.81 129.03,-73.85 198.85,-97.65 a 1523.082,1523.082 0 0 1 199.56,-53.24 0.342,0.342 0 0 1 0.35,0.51 l -8.62,13.36 a 1.835,1.835 0 0 1 -1.12,0.79 2392.727,2392.727 0 0 0 -39.78,9.87 c -2.3,0.587 -3.603,2.03 -3.91,4.33 a 424.308,424.308 0 0 1 -3.11,19.67 c -10.61,58.5 -60.33,98.91 -114.78,116.38 a 87.563,87.563 0 0 1 -26.11,4.21 c -2.133,0.02 -2.263,-0.483 -0.39,-1.51 a 105.457,105.457 0 0 1 8,-3.96 c 1.213,-0.54 1.157,-0.78 -0.17,-0.72 z"
   style="fill:#009740;fill-rule:nonzero"
   id="path9" />
</svg>
