<?xml version="1.0" encoding="UTF-8" standalone="no"?>
<!-- Created with Inkscape (http://www.inkscape.org/) -->

<svg
   id="svg2"
   version="1.1"
   inkscape:version="1.4.3 (0d15f75, 2025-12-25)"
   xml:space="preserve"
   width="700"
   height="694"
   viewBox="0 0 700 693.99996"
   sodipodi:docname="Weldom.svg"
   xmlns:inkscape="http://www.inkscape.org/namespaces/inkscape"
   xmlns:sodipodi="http://sodipodi.sourceforge.net/DTD/sodipodi-0.dtd"
   xmlns="http://www.w3.org/2000/svg"
   xmlns:svg="http://www.w3.org/2000/svg"
   xmlns:rdf="http://www.w3.org/1999/02/22-rdf-syntax-ns#"
   xmlns:cc="http://creativecommons.org/ns#"
   xmlns:dc="http://purl.org/dc/elements/1.1/"><metadata
     id="metadata8"><rdf:RDF><cc:Work
         rdf:about=""><dc:format>image/svg+xml</dc:format><dc:type
           rdf:resource="http://purl.org/dc/dcmitype/StillImage" /></cc:Work></rdf:RDF></metadata><defs
     id="defs6" /><sodipodi:namedview
     pagecolor="#ffffff"
     bordercolor="#666666"
     borderopacity="1"
     objecttolerance="10"
     gridtolerance="10"
     guidetolerance="10"
     inkscape:pageopacity="0"
     inkscape:pageshadow="2"
     inkscape:window-width="3840"
     inkscape:window-height="2030"
     id="namedview4"
     showgrid="false"
     inkscape:zoom="0.75198702"
     inkscape:cx="277.26542"
     inkscape:cy="28.590919"
     inkscape:window-x="2869"
     inkscape:window-y="-11"
     inkscape:window-maximized="1"
     inkscape:current-layer="g10"
     inkscape:showpageshadow="2"
     inkscape:pagecheckerboard="0"
     inkscape:deskcolor="#d1d1d1" /><g
     id="g10"
     inkscape:groupmode="layer"
     inkscape:label="Logo"
     transform="matrix(1.25,0,0,-1.25,0,184.99995)"><path
       d="m 24.938884,-84.74469 v 8.321748 L 60.474451,-54.96644 96.0049,-76.422942 v -8.321748 h 24.89332 v 15.33411 c 0,4.35779 -2.27792,8.39335 -6.00961,10.64898 l -47.979672,28.97011 c -3.956928,2.3886 -8.917165,2.3886 -12.874093,0 L 6.0551747,-58.7616 C 2.3285983,-61.01723 0.04555842,-65.05279 0.04555842,-69.41058 v -15.33411 z"
       style="fill:#f25c19;fill-opacity:1;fill-rule:nonzero;stroke:none"
       id="path304"
       inkscape:connector-curvature="0" /><path
       d="m 418.25701,-103.81464 c -7.93433,7.876766 -17.82921,11.866294 -29.38774,11.866294 -11.56365,0 -21.42782,-3.989528 -29.3212,-11.871404 -7.90362,-7.88699 -11.89638,-17.74829 -11.89638,-29.31281 0,-11.55428 3.99276,-21.43604 11.89638,-29.37929 7.88826,-7.93303 17.75755,-11.94813 29.3212,-11.94813 11.55853,0 21.45341,4.0151 29.40821,11.94813 7.93433,7.94325 11.96805,17.82501 11.96805,29.37929 0,11.56964 -4.03372,21.43093 -11.98852,29.31792 m -43.88965,-14.86355 c 3.9518,3.94861 8.8199,5.94338 14.48143,5.94338 5.66153,0 10.58082,-1.99988 14.58893,-5.95361 3.99788,-3.95372 6.03009,-8.79742 6.03009,-14.41345 0,-5.63648 -2.03221,-10.51598 -6.04033,-14.52597 -4.00811,-4.00999 -8.91716,-6.04567 -14.57869,-6.04567 -5.66153,0 -10.52451,2.03057 -14.48143,6.04055 -3.93646,3.99465 -5.93796,8.87926 -5.93796,14.53109 0,5.63137 1.99638,10.48019 5.93796,14.42368"
       style="fill:#181210;fill-opacity:1;fill-rule:nonzero;stroke:none"
       id="path306"
       inkscape:connector-curvature="0" /><path
       d="m 248.4746,-156.28768 c -2.86148,1.60604 -3.30171,4.99714 -3.30171,6.89473 v 84.08187 h -23.95656 v -84.08187 c 0,-10.77685 5.43118,-19.65099 14.88071,-24.33101 1.31044,-0.68027 2.65672,-1.24801 3.82384,-1.61627 l 0.33785,-0.087 c 1.22342,-0.27109 2.60041,-0.57286 3.99276,-0.57286 7.20232,0 11.67114,5.44724 11.67114,10.51088 0,4.16854 -2.85124,7.68751 -7.44803,9.20148"
       style="fill:#181210;fill-opacity:1;fill-rule:nonzero;stroke:none"
       id="path308"
       inkscape:connector-curvature="0" /><path
       d="m 315.47363,-65.30955 v -30.213004 c -5.28785,2.373258 -11.12854,3.575231 -17.40946,3.575231 -11.56365,0 -21.42781,-3.994643 -29.32119,-11.871407 -7.8985,-7.88699 -11.9015,-17.74828 -11.9015,-29.3128 0,-11.55429 4.003,-21.44116 11.9015,-29.3793 7.88826,-7.93302 17.75242,-11.95324 29.32119,-11.95324 11.56365,0 21.45341,4.02022 29.39798,11.95324 7.57089,7.55965 11.57388,16.89923 11.94245,27.78349 l 0.0307,69.41779 h -23.96168 z m -31.91649,-53.36761 c 3.95181,3.94861 8.82502,5.94337 14.48655,5.94337 5.67177,0 10.58082,-1.99988 14.58894,-5.9536 4.00299,-3.95373 6.02497,-8.79743 6.02497,-14.41345 0,-5.63649 -2.02709,-10.52111 -6.03521,-14.52598 -4.00812,-4.0151 -8.91205,-6.04567 -14.5787,-6.04567 -5.65641,0 -10.52962,2.02545 -14.47631,6.04056 -3.94669,3.98952 -5.95331,8.87925 -5.95331,14.53109 0,5.62625 2.00662,10.4853 5.94307,14.42368"
       style="fill:#181210;fill-opacity:1;fill-rule:nonzero;stroke:none"
       id="path310"
       inkscape:connector-curvature="0" /><path
       d="m 201.84223,-105.00024 c -7.53506,8.291057 -18.37694,12.853441 -30.51902,12.853441 -22.93278,0 -41.58614,-18.428551 -41.58614,-41.102371 0,-22.48969 18.65336,-40.79549 41.58614,-40.79549 18.82228,0 33.55966,9.78458 38.83215,25.59436 h -25.91711 c -3.03552,-3.34507 -7.69886,-5.28868 -13.06349,-5.28868 -7.85755,0 -14.22037,4.29641 -17.06649,11.35993 h 57.87966 l 0.15357,1.56 c 1.40259,14.47483 -2.16018,26.86283 -10.29927,35.81881 m -48.62978,-21.71736 c 2.03222,8.51611 9.40859,14.83798 18.21313,14.83798 8.80967,0 16.19116,-6.32187 18.21825,-14.83798 z"
       style="fill:#181210;fill-opacity:1;fill-rule:nonzero;stroke:none"
       id="path312"
       inkscape:connector-curvature="0" /><path
       d="M 96.056601,-92.090537 V -138.4509 c 0,-7.1965 -4.719648,-12.31128 -11.763287,-12.75627 -9.828333,0.43987 -11.312821,8.17342 -11.312821,12.75627 v 46.375708 H 48.102525 V -138.4509 c 0,-7.18627 -4.724767,-12.30105 -11.768406,-12.75627 -10.335106,0.47568 -11.461269,9.07362 -11.461269,12.75627 v 46.360363 H 0 v -45.915383 c 0,-21.77362 13.862045,-35.83415 35.315454,-35.83415 0.204757,0 0.409514,0.0102 0.619389,0.0205 l 0.19452,0.0256 0.394157,-0.0256 c 0.23547,-0.0102 0.465822,-0.0205 0.706411,-0.0205 8.753359,0 16.83614,3.17117 22.973729,8.96621 5.922595,-5.79504 14.041207,-8.96621 23.06587,-8.96621 0.23547,0 0.465822,0.0102 0.691054,0.0205 l 0.296898,0.0256 0.312254,-0.0256 c 0.199638,-0.0102 0.409514,-0.0205 0.624509,-0.0205 21.043895,0 35.750565,14.7408 35.750565,35.83415 v 45.915383 z"
       style="fill:#181210;fill-opacity:1;fill-rule:nonzero;stroke:none"
       id="path314"
       inkscape:connector-curvature="0" /><path
       d="m 535.10667,-173.81807 v 46.35525 c 0,7.19649 -4.71452,12.30616 -11.75816,12.75626 -9.84369,-0.44499 -11.3077,-8.17853 -11.3077,-12.75626 v -46.38083 h -24.88309 v 46.38083 c 0,7.18115 -4.73501,12.30104 -11.77353,12.75626 -10.32998,-0.47056 -11.45103,-9.07362 -11.45103,-12.75626 v -46.35525 h -24.88309 v 45.91026 c 0,21.76339 13.86717,35.834152 35.31546,35.834152 0.20987,0 0.41463,-0.01535 0.61939,-0.02557 l 0.1894,-0.02046 0.39927,0.02046 c 0.24059,0.01535 0.47094,0.02557 0.70642,0.02557 8.75847,0 16.83102,-3.171163 22.97884,-8.971322 5.91748,5.800159 14.03097,8.971322 23.06075,8.971322 0.23036,0 0.47094,-0.01023 0.69106,-0.02557 l 0.30201,-0.02046 0.30714,0.02046 c 0.19964,0.01535 0.41463,0.02557 0.62451,0.02557 21.04901,0 35.75568,-14.735682 35.75568,-35.834152 v -45.91026 z"
       style="fill:#181210;fill-opacity:1;fill-rule:nonzero;stroke:none"
       id="path316"
       inkscape:connector-curvature="0" /></g></svg>
